<svg width="101" height="100" viewBox="0 0 101 100" fill="none" xmlns="http://www.w3.org/2000/svg">
<path d="M93.4767 74.4774C89.7495 81.3292 84.5692 86.8747 78.1508 91.245C67.8349 98.2693 56.3729 101.159 44.0425 99.5794C27.804 97.4994 15.3779 89.2547 6.86591 75.2118C8.37056 74.3347 9.87534 73.4576 11.3802 72.5806C11.4659 72.6738 11.5462 72.7716 11.6209 72.8738C21.8061 88.4566 36.143 95.6656 54.7412 94.1236C62.5829 93.4734 69.6246 90.5636 76.0073 86.0169C81.3139 82.2368 85.4607 77.4024 88.7978 71.8414L93.4767 74.4774Z" fill="url(#paint0_linear_313_503)"/>
<path d="M93.4767 74.4774C91.9171 73.5987 90.3572 72.7203 88.7978 71.8414C93.417 63.4065 95.3796 54.4024 94.2799 44.837C92.9691 33.4361 87.9716 23.867 79.378 16.2565C70.9853 8.82396 61.0458 5.32055 49.9086 5.02314C49.9038 3.38224 49.8991 1.74135 49.8944 0.100458C56.3189 -0.120495 62.7126 1.08456 68.6159 3.62902C85.6469 10.9032 95.9956 23.7303 99.2602 41.9342C101.262 53.0966 99.2961 63.809 93.8815 73.8304C93.7609 74.0537 93.6124 74.2622 93.4767 74.4774Z" fill="url(#paint1_linear_313_503)"/>
<path d="M49.8944 0.100458C49.8991 1.74135 49.9038 3.38224 49.9086 5.02314C46.1382 5.24096 42.3866 5.58401 38.7147 6.54209C15.7567 12.5323 1.42525 35.3152 6.04662 58.4736C7.0443 63.4732 8.92284 68.1355 11.3802 72.5806C9.87534 73.4576 8.37056 74.3347 6.86591 75.2118C3.66619 69.9377 1.55157 64.077 0.646442 57.9749C-1.66711 42.5587 2.22406 28.8391 12.4049 17.0519C20.1139 8.12657 29.9272 2.71642 41.5654 0.69226C44.316 0.21386 47.0832 -0.195886 49.8944 0.100458Z" fill="url(#paint2_linear_313_503)"/>
<path d="M45.4445 35.0954C46.0061 33.332 47.0776 32.0917 49.0114 31.9272C50.8818 31.768 52.0633 32.7905 53.0007 34.337C60.4569 46.6379 67.9318 58.9275 75.4253 71.2057C76.5756 73.0968 76.3843 74.9609 74.9446 76.3065C74.2913 76.8863 73.465 77.2344 72.5938 77.2969C71.7225 77.3593 70.855 77.1325 70.1257 76.6517C69.398 76.1546 68.9824 75.4121 68.5412 74.6869C62.2996 64.4298 56.0573 54.1733 49.814 43.9172C49.6831 43.7022 49.522 43.5055 49.375 43.3002C48.5327 41.8901 47.7211 40.4603 46.8389 39.0756C46.0574 37.8491 45.3656 36.6133 45.4445 35.0954Z" fill="url(#paint3_linear_313_503)"/>
<path d="M45.4445 35.0954C45.3656 36.6133 46.0574 37.8491 46.8389 39.0756C47.7211 40.4603 48.5327 41.8901 49.375 43.3002C47.2516 46.2203 45.5439 49.4004 43.6586 52.4686C39.0137 60.0278 34.4332 67.6265 29.8074 75.1975C28.4937 77.3476 26.3307 77.9313 24.3528 76.7433C22.4731 75.6144 21.9887 73.2047 23.237 71.1588C30.4228 59.3816 37.6101 47.6054 44.799 35.8302C44.9699 35.5504 45.0468 35.1797 45.4445 35.0954Z" fill="url(#paint4_linear_313_503)"/>
<path d="M49.6758 59.0676C50.3566 59.0556 51.0328 59.1805 51.6644 59.4348C52.296 59.6892 52.8701 60.0679 53.3525 60.5484C53.8349 61.029 54.2158 61.6015 54.4726 62.2321C54.7294 62.8628 54.8569 63.5385 54.8475 64.2194C54.8478 64.8987 54.7141 65.5713 54.4542 66.1989C54.1943 66.8265 53.8132 67.3967 53.3327 67.8769C52.8522 68.3571 52.2818 68.7379 51.654 68.9974C51.0263 69.257 50.3535 69.3902 49.6742 69.3895C48.9949 69.3888 48.3224 69.2542 47.6952 68.9934C47.068 68.7326 46.4983 68.3507 46.0188 67.8696C45.5393 67.3884 45.1593 66.8175 44.9007 66.1894C44.642 65.5612 44.5097 64.8883 44.5113 64.209C44.4981 63.5282 44.6228 62.8518 44.8779 62.2205C45.1331 61.5892 45.5134 61.0161 45.9959 60.5357C46.4785 60.0554 47.0533 59.6776 47.6857 59.4253C48.3181 59.173 48.9951 59.0513 49.6758 59.0676Z" fill="url(#paint5_linear_313_503)"/>
<path d="M74.0879 16.9726C73.3946 18.3096 72.7387 19.668 71.9917 20.9742C71.82 21.2306 71.7294 21.5329 71.732 21.8415C71.7345 22.1501 71.8301 22.4508 72.0061 22.7043C72.7348 23.9816 73.3769 25.3084 74.2124 26.9188C72.5703 26.3681 71.3558 25.628 70.1474 24.9242C69.313 24.4383 68.6561 24.4272 67.8321 24.9275C66.6622 25.6378 65.4119 26.2158 64.196 26.8502L63.9742 26.6158C64.6648 25.2864 65.3183 23.9357 66.0625 22.637C66.2242 22.3983 66.3101 22.1164 66.309 21.828C66.308 21.5397 66.2201 21.2584 66.0567 21.0208C65.3156 19.7079 64.6501 18.3522 63.8373 16.79C64.9235 17.0349 65.9469 17.5033 66.8423 18.1652C68.3483 19.2062 69.6893 19.2466 71.1747 18.1348C71.9681 17.541 72.9405 17.1864 73.8321 16.7238L74.0879 16.9726Z" fill="url(#paint6_linear_313_503)"/>
<path d="M72.6613 36.8119C70.5099 37.8218 69.716 39.3487 70.0159 41.6505C69.1459 39.4346 67.5481 38.8009 65.3092 39.0562C67.3329 38.0409 68.3215 36.643 67.8264 34.307C68.9095 36.2151 70.2387 37.4174 72.6613 36.8119Z" fill="url(#paint7_linear_313_503)"/>
<path d="M49.6156 22.7672C51.3489 21.7711 52.5706 20.6684 51.8704 18.3802C52.921 20.1118 54.1347 21.1968 56.3137 20.6238C54.7434 21.7525 53.2499 22.8023 54.0166 25.168C53.0704 23.1997 51.7641 22.3498 49.6156 22.7672Z" fill="url(#paint8_linear_313_503)"/>
<defs>
<linearGradient id="paint0_linear_313_503" x1="-3.39897e-06" y1="2.2598e-06" x2="100" y2="100" gradientUnits="userSpaceOnUse">
<stop stop-color="#FFC107"/>
<stop offset="1" stop-color="#32CAB2"/>
</linearGradient>
<linearGradient id="paint1_linear_313_503" x1="-3.39897e-06" y1="2.2598e-06" x2="100" y2="100" gradientUnits="userSpaceOnUse">
<stop stop-color="#FFC107"/>
<stop offset="1" stop-color="#32CAB2"/>
</linearGradient>
<linearGradient id="paint2_linear_313_503" x1="-3.39897e-06" y1="2.2598e-06" x2="100" y2="100" gradientUnits="userSpaceOnUse">
<stop stop-color="#FFC107"/>
<stop offset="1" stop-color="#32CAB2"/>
</linearGradient>
<linearGradient id="paint3_linear_313_503" x1="-3.39897e-06" y1="2.2598e-06" x2="100" y2="100" gradientUnits="userSpaceOnUse">
<stop stop-color="#FFC107"/>
<stop offset="1" stop-color="#32CAB2"/>
</linearGradient>
<linearGradient id="paint4_linear_313_503" x1="-3.39897e-06" y1="2.2598e-06" x2="100" y2="100" gradientUnits="userSpaceOnUse">
<stop stop-color="#FFC107"/>
<stop offset="1" stop-color="#32CAB2"/>
</linearGradient>
<linearGradient id="paint5_linear_313_503" x1="-3.39897e-06" y1="2.2598e-06" x2="100" y2="100" gradientUnits="userSpaceOnUse">
<stop stop-color="#FFC107"/>
<stop offset="1" stop-color="#32CAB2"/>
</linearGradient>
<linearGradient id="paint6_linear_313_503" x1="-3.39897e-06" y1="2.2598e-06" x2="100" y2="100" gradientUnits="userSpaceOnUse">
<stop stop-color="#FFC107"/>
<stop offset="1" stop-color="#32CAB2"/>
</linearGradient>
<linearGradient id="paint7_linear_313_503" x1="-3.39897e-06" y1="2.2598e-06" x2="100" y2="100" gradientUnits="userSpaceOnUse">
<stop stop-color="#FFC107"/>
<stop offset="1" stop-color="#32CAB2"/>
</linearGradient>
<linearGradient id="paint8_linear_313_503" x1="-3.39897e-06" y1="2.2598e-06" x2="100" y2="100" gradientUnits="userSpaceOnUse">
<stop stop-color="#FFC107"/>
<stop offset="1" stop-color="#32CAB2"/>
</linearGradient>
</defs>
</svg>
