<svg width="164" height="160" viewBox="0 0 164 160" fill="none" xmlns="http://www.w3.org/2000/svg">
<rect width="164" height="157" rx="5" fill="#4C40F6"/>
<g filter="url(#filter0_bd_159_644)">
<rect width="164" height="157" rx="5" fill="url(#paint0_linear_159_644)" shape-rendering="crispEdges"/>
<rect x="0.5" y="0.5" width="163" height="156" rx="4.5" stroke="url(#paint1_linear_159_644)" shape-rendering="crispEdges"/>
</g>
<g clip-path="url(#clip0_159_644)">
<path d="M71.8347 77.3967C71.8416 77.3967 71.8451 77.3931 71.8486 77.3931C71.8564 77.388 71.8645 77.3833 71.8729 77.3793C71.8605 77.3857 71.8477 77.3915 71.8347 77.3967ZM72.4926 77.2122H72.4996C72.597 77.1843 72.3255 77.2191 72.4926 77.2122L72.4926 77.2122ZM125.79 67.3742C125.786 67.3582 125.784 67.3419 125.784 67.3254C125.777 67.3063 125.773 67.2864 125.773 67.2662C125.763 67.2252 125.759 67.1831 125.759 67.141C125.777 66.9494 125.794 66.758 125.808 66.5665C126.14 62.612 126.144 58.6369 125.822 54.6816C125.331 48.7147 124.429 41.0177 118.654 37.7209C115.952 36.1752 112.725 36.412 109.958 37.6826C108.996 38.1301 108.081 38.6711 107.225 39.2979C107.138 39.3571 107.051 39.4198 106.967 39.4824C106.943 39.5033 106.919 39.5207 106.894 39.5382V39.5416C106.47 39.8584 106.055 40.1915 105.652 40.5407C105.45 40.7113 105.251 40.8888 105.056 41.0664C104.858 41.2474 104.663 41.4284 104.468 41.6095C104.276 41.794 104.081 41.9784 103.893 42.163C103.608 42.4449 103.326 42.7269 103.048 43.0124C102.766 43.2978 102.487 43.5833 102.212 43.8688C101.432 44.6764 100.203 43.4441 100.983 42.6399C101.913 41.6756 102.867 40.7113 103.869 39.8062C103.98 39.7087 104.092 39.6078 104.203 39.5138C104.259 39.4581 104.318 39.4093 104.374 39.3605C104.52 39.2353 104.666 39.11 104.816 38.9881C102.605 38.2988 100.366 37.7186 98.0972 37.2475C86.0233 34.7497 73.5057 35.4591 61.7913 39.3049C62.3518 39.9907 62.8844 40.6962 63.3892 41.4215C63.504 41.6213 63.5355 41.8582 63.4769 42.0811C63.4182 42.3039 63.2742 42.4947 63.0759 42.6121C62.8755 42.7227 62.6403 42.7523 62.4188 42.6946C62.1973 42.637 62.0063 42.4965 61.8853 42.3023C59.6642 39.1273 56.8792 36.2344 53.3667 34.5112C50.3136 33.0108 46.6583 32.4782 43.3999 33.6026C40.7332 34.5251 38.3381 36.6522 37.4434 39.3745C36.8517 41.1743 36.9526 43.096 37.1719 44.9549C37.4017 46.9219 37.7254 48.8783 38.091 50.8243C38.8134 54.7009 39.7525 58.534 40.9038 62.3055C41.0009 62.4348 41.0582 62.5896 41.0687 62.7509C41.0792 62.9123 41.0425 63.0732 40.963 63.214C40.7332 63.6528 40.5174 64.1018 40.3224 64.5578C39.3164 66.9321 38.9613 69.3968 38.8708 71.952C38.7663 74.9041 38.7176 77.8632 38.8708 80.8118C39.1597 86.3992 40.2841 91.9065 42.8881 96.8951C44.7516 100.406 47.1591 103.599 50.0212 106.357C53.112 109.421 56.6211 112.031 60.444 114.11C63.1923 115.577 66.0903 116.744 69.088 117.591C68.0646 115.269 67.3811 112.812 67.0584 110.294C66.6726 107.018 67.0162 103.696 68.0645 100.568C68.7921 98.3712 69.7459 96.2476 70.5814 94.0893C72.0923 90.2042 73.5173 86.2878 74.8564 82.3401C73.8721 82.6503 72.824 82.6992 71.8151 82.4819C70.8062 82.2646 69.8712 81.7887 69.1019 81.1007C68.2367 80.2834 67.6257 79.2338 67.3423 78.0778C67.0588 76.9219 67.115 75.7087 67.504 74.5838C68.3639 72.2166 70.6754 70.4968 73.2307 70.5978C73.2646 70.5976 73.2984 70.6011 73.3316 70.6082C74.6896 70.7289 75.9627 71.3203 76.9308 72.2801C77.899 73.24 78.5013 74.508 78.6335 75.8649C78.7414 76.7087 78.6766 77.5656 78.4432 78.3837C78.2098 79.2018 77.8127 79.9639 77.2759 80.6238C76.4752 83.0258 75.6443 85.4186 74.7833 87.8021C73.8991 90.2633 72.9812 92.7118 72.0296 95.1475C71.1976 97.278 70.2437 99.3807 69.5684 101.57C68.6267 104.603 68.3968 107.813 68.8965 110.949C69.332 113.537 70.1695 116.041 71.3786 118.371C71.3821 118.374 71.3856 118.378 71.3891 118.381C72.7523 119.747 74.3131 120.899 76.0191 121.8C78.4538 123.112 81.1534 123.858 83.9165 123.982C86.6797 124.105 89.4351 123.603 91.9772 122.514C93.0338 122.054 94.0523 121.512 95.0233 120.891C95.448 120.623 95.8622 120.341 96.2695 120.045C96.6873 119.739 96.837 119.624 97.2513 119.279C97.9301 118.729 98.5709 118.134 99.1694 117.497C99.1806 117.488 99.19 117.478 99.1973 117.466C99.2034 117.455 99.2081 117.443 99.2112 117.431C99.2112 117.43 99.2113 117.43 99.2114 117.43C99.2116 117.429 99.2119 117.429 99.2122 117.428C99.2125 117.428 99.2129 117.428 99.2133 117.428C99.2137 117.427 99.2142 117.427 99.2147 117.427C100.378 114.42 100.896 111.203 100.736 107.983C100.503 105.036 99.593 102.183 98.0763 99.6452C97.016 97.8716 96.0583 96.0386 95.2078 94.1553C93.1364 89.3163 92.0503 84.1432 91.6325 78.9075C91.0766 77.5264 91.0382 75.9909 91.5246 74.5838C92.3845 72.2165 94.696 70.4968 97.2513 70.5978C97.2852 70.5976 97.319 70.6011 97.3522 70.6082C98.7102 70.7288 99.9833 71.3202 100.951 72.2801C101.92 73.2399 102.522 74.5079 102.654 75.8648C102.791 76.9386 102.649 78.0295 102.241 79.0321C101.833 80.0347 101.173 80.9151 100.325 81.5881C98.3618 83.0537 95.5803 82.8969 93.6377 81.5114C93.9228 83.6907 94.3449 85.8499 94.9014 87.9761C95.4882 90.1935 96.2675 92.3554 97.2304 94.4373C98.1529 96.4077 99.3539 98.2214 100.332 100.16C101.811 103.073 102.561 106.301 102.518 109.567C102.46 112.003 102.049 114.417 101.296 116.735C105.749 115.669 109.907 113.622 113.467 110.743C116.679 108.07 119.331 104.786 121.268 101.083C122.677 98.3437 123.835 95.4819 124.725 92.5331C126.251 87.8029 127.018 82.861 126.998 77.8909C126.982 74.3517 126.577 70.825 125.79 67.3742V67.3742ZM43.3198 58.4726C42.0387 53.6024 41.1231 49.5223 40.4756 46.4067C40.1443 45.0067 40.1455 43.5485 40.4791 42.1491C41.0918 39.6913 43.2745 37.7836 45.7358 37.1674C48.7401 36.4154 51.2361 37.4946 53.0603 38.3754C55.6547 39.6512 57.8381 41.6308 59.3614 44.0881C52.638 47.0821 47.0262 52.1142 43.3198 58.4726L43.3198 58.4726ZM92.5167 115.844C92.6262 116.045 92.6547 116.28 92.5965 116.501C92.5382 116.722 92.3976 116.913 92.2034 117.034C90.1278 118.503 87.6874 119.372 85.1504 119.544C82.6134 119.717 80.0779 119.187 77.8224 118.012C76.8268 117.497 77.7075 115.997 78.7032 116.512C80.6928 117.529 82.9253 117.976 85.1532 117.803C87.3812 117.63 89.5177 116.843 91.3262 115.53C91.5262 115.417 91.7628 115.386 91.9853 115.444C92.2078 115.503 92.3985 115.646 92.5167 115.844L92.5167 115.844ZM91.5838 102.392C92.5829 105.421 91.0372 109.076 88.1687 110.465C86.7146 111.151 85.0631 111.294 83.5128 110.868C81.9625 110.442 80.6158 109.475 79.7162 108.143C77.7145 105.118 78.6927 100.926 80.9068 99.4608C81.9442 98.7715 83.1209 98.8098 85.4777 98.8795C87.3192 98.9351 88.8057 98.9978 90.0659 100.063C90.7781 100.684 91.3036 101.49 91.5838 102.392L91.5838 102.392ZM122.703 60.1123C122.699 60.342 122.689 60.5753 122.678 60.805C122.675 60.9269 122.671 61.0488 122.664 61.1706C122.654 61.4526 122.64 61.7345 122.623 62.0165C122.616 62.201 122.602 62.3855 122.591 62.57C117.864 56.1625 112.02 50.6609 105.338 46.33C105.443 46.1768 105.554 46.0237 105.665 45.874C105.7 45.8287 105.735 45.7835 105.766 45.7417C105.867 45.6094 105.972 45.4806 106.08 45.3518C106.101 45.3274 106.121 45.2995 106.146 45.2752C106.285 45.1081 106.428 44.948 106.577 44.7913C106.591 44.7739 106.609 44.76 106.623 44.7426C106.689 44.673 106.759 44.6033 106.828 44.5337C106.88 44.478 106.936 44.4258 106.992 44.377C107.235 44.1333 107.497 43.9036 107.765 43.6843C107.855 43.6112 107.946 43.538 108.036 43.4685C108.113 43.4092 108.189 43.3501 108.266 43.2944C108.398 43.1968 108.53 43.1028 108.666 43.0089C108.677 43.0045 108.688 42.9986 108.698 42.9915C108.833 42.8975 108.973 42.807 109.115 42.72V42.7165C109.293 42.6086 109.474 42.5006 109.658 42.3997C109.749 42.3475 109.843 42.2988 109.937 42.2501C110.031 42.2013 110.125 42.1525 110.219 42.1073C111.643 41.418 113.589 40.4885 115.89 41.0385C117.933 41.5259 119.594 43.096 120.607 44.9375C121.648 46.8279 122.083 48.5232 122.348 50.9566C122.635 53.6807 122.76 56.4195 122.724 59.1584C122.72 59.4786 122.713 59.7955 122.703 60.1123V60.1123ZM96.729 77.2122H96.736C96.8335 77.1843 96.5619 77.2191 96.7291 77.2122L96.729 77.2122Z" fill="#EAEAEA"/>
<path d="M99.2111 117.431C99.208 117.443 99.2033 117.455 99.1972 117.466C99.19 117.478 99.1805 117.488 99.1694 117.497C99.1807 117.473 99.1948 117.451 99.2111 117.431Z" fill="#1D1C1A"/>
<path d="M72.4926 77.212H72.4995C72.597 77.1842 72.3254 77.2189 72.4926 77.212ZM71.8346 77.3966C71.8416 77.3966 71.845 77.393 71.8485 77.393C71.8563 77.3878 71.8645 77.3832 71.8729 77.3791C71.8604 77.3856 71.8477 77.3914 71.8346 77.3966L71.8346 77.3966Z" fill="#EAEAEA"/>
<path d="M76.9381 76.3104C76.9238 76.0607 76.8889 75.8127 76.8337 75.5689C76.6587 74.7153 76.214 73.9406 75.5653 73.3589C74.9166 72.7773 74.0981 72.4195 73.2306 72.3383C72.2373 72.318 71.2684 72.647 70.4929 73.2679C69.7174 73.8889 69.1844 74.7623 68.9869 75.736C68.8114 76.5836 68.8922 77.4643 69.2189 78.266C69.5456 79.0676 70.1035 79.7538 70.8216 80.2372C72.3568 81.198 74.4316 81.1006 75.7127 79.809C75.7336 79.7916 75.751 79.7707 75.7684 79.7534C76.5975 78.8051 77.0179 77.5674 76.9381 76.3104ZM75.4934 77.4209C75.3764 77.6196 75.1857 77.7641 74.9627 77.8228C74.7396 77.8815 74.5025 77.8496 74.3028 77.7342C74.1623 77.6281 74.0133 77.5337 73.8572 77.4522C73.8433 77.4418 73.8015 77.4208 73.7632 77.3999C73.7033 77.3707 73.6402 77.3485 73.5752 77.3338C73.4125 77.2612 73.2379 77.2187 73.06 77.2085C73.0774 77.212 73.0913 77.212 73.1053 77.2155C73.0796 77.2148 73.054 77.2124 73.0287 77.2085C72.9407 77.201 72.8524 77.1986 72.7641 77.2016C72.6771 77.2016 72.59 77.2085 72.4995 77.212H72.4926C72.4846 77.2148 72.4764 77.2171 72.4682 77.2189C72.2948 77.2512 72.1238 77.2954 71.9565 77.3512C71.9197 77.3631 71.8837 77.377 71.8485 77.393C71.845 77.393 71.8416 77.3965 71.8346 77.3965C71.7859 77.4243 71.7302 77.4487 71.6814 77.4766C71.5255 77.561 71.3765 77.6576 71.2358 77.7655C70.8494 78.058 70.275 77.8073 70.0452 77.4522C69.9304 77.248 69.8992 77.0071 69.9582 76.7804C70.0256 76.5653 70.1676 76.3813 70.3586 76.2616C71.0577 75.7504 71.9 75.4722 72.766 75.4666C73.6321 75.461 74.4779 75.7282 75.1836 76.2303C75.378 76.3512 75.5186 76.5421 75.5763 76.7637C75.6339 76.9853 75.6043 77.2205 75.4934 77.4209H75.4934Z" fill="#EAEAEA"/>
<path d="M97.3765 77.2189H97.3761C97.3692 77.2182 97.3625 77.216 97.3557 77.2155C97.3626 77.2155 97.3696 77.2189 97.3765 77.2189Z" fill="#EAEAEA"/>
<path d="M96.729 77.2121H96.7359C96.8334 77.1842 96.5619 77.2189 96.729 77.2121Z" fill="#EAEAEA"/>
<path d="M100.854 75.5689C100.679 74.7153 100.235 73.9406 99.5859 73.3589C98.9372 72.7773 98.1187 72.4195 97.2512 72.3383C96.2579 72.318 95.2891 72.647 94.5135 73.2679C93.738 73.8889 93.205 74.7623 93.0076 75.736C92.9117 76.202 92.8917 76.6804 92.9484 77.1528C93.0061 77.6115 93.1366 78.058 93.3348 78.4757V78.4791C93.6697 79.1902 94.1905 79.7977 94.8422 80.2372C96.3983 81.2119 98.5114 81.097 99.789 79.7533C100.282 79.188 100.635 78.5149 100.82 77.788C101.005 77.0612 101.017 76.301 100.854 75.5689ZM99.7298 77.4208C99.6129 77.6196 99.4221 77.7641 99.1991 77.8228C98.9761 77.8815 98.7389 77.8496 98.5392 77.7342C98.3981 77.6272 98.2478 77.5329 98.0902 77.4522C98.0693 77.4418 98.0066 77.4035 97.9614 77.3756C97.9683 77.3826 97.9822 77.3895 97.9962 77.3999C97.9372 77.3713 97.8754 77.3491 97.8117 77.3338C97.674 77.2717 97.5269 77.2329 97.3765 77.2189H97.3626C97.3313 77.2155 97.2964 77.212 97.2651 77.2085C97.1771 77.201 97.0888 77.1987 97.0005 77.2016C96.9135 77.2016 96.823 77.2085 96.736 77.212H96.729C96.721 77.2148 96.7129 77.2171 96.7046 77.2189C96.5311 77.2507 96.3601 77.2949 96.1929 77.3512C96.1685 77.3582 96.1442 77.3686 96.1198 77.3756C96.1093 77.3791 96.1024 77.3826 96.0919 77.3861C96.0327 77.4173 95.9736 77.4452 95.9144 77.4766C95.7596 77.561 95.6118 77.6576 95.4723 77.7655C95.0858 78.0579 94.5115 77.8073 94.2817 77.4522C94.1668 77.2479 94.1356 77.0071 94.1947 76.7803C94.2608 76.5646 94.4031 76.3803 94.595 76.2615C95.2934 75.7503 96.1352 75.4722 97.0007 75.4666C97.8662 75.461 98.7115 75.7282 99.4165 76.2303C99.6114 76.3507 99.7525 76.5415 99.8108 76.763C99.8691 76.9846 99.8401 77.22 99.7299 77.4208H99.7298Z" fill="#EAEAEA"/>
<path d="M71.8729 77.3792C71.8645 77.3832 71.8563 77.3878 71.8485 77.393C71.845 77.393 71.8416 77.3966 71.8346 77.3966C71.8476 77.3914 71.8604 77.3856 71.8729 77.3792Z" fill="#1D1C1A"/>
<path d="M72.4995 77.2121H72.4925C72.3254 77.2189 72.597 77.1842 72.4995 77.2121Z" fill="#1D1C1A"/>
<path d="M96.7359 77.2121H96.729C96.5619 77.2189 96.8334 77.1842 96.7359 77.2121Z" fill="#1D1C1A"/>
</g>
<defs>
<filter id="filter0_bd_159_644" x="-40" y="-40" width="244" height="237" filterUnits="userSpaceOnUse" color-interpolation-filters="sRGB">
<feFlood flood-opacity="0" result="BackgroundImageFix"/>
<feGaussianBlur in="BackgroundImage" stdDeviation="20"/>
<feComposite in2="SourceAlpha" operator="in" result="effect1_backgroundBlur_159_644"/>
<feColorMatrix in="SourceAlpha" type="matrix" values="0 0 0 0 0 0 0 0 0 0 0 0 0 0 0 0 0 0 127 0" result="hardAlpha"/>
<feMorphology radius="1" operator="erode" in="SourceAlpha" result="effect2_dropShadow_159_644"/>
<feOffset dy="4"/>
<feComposite in2="hardAlpha" operator="out"/>
<feColorMatrix type="matrix" values="0 0 0 0 0 0 0 0 0 0 0 0 0 0 0 0 0 0 0.2 0"/>
<feBlend mode="normal" in2="effect1_backgroundBlur_159_644" result="effect2_dropShadow_159_644"/>
<feBlend mode="normal" in="SourceGraphic" in2="effect2_dropShadow_159_644" result="shape"/>
</filter>
<linearGradient id="paint0_linear_159_644" x1="0" y1="0" x2="107.626" y2="179.716" gradientUnits="userSpaceOnUse">
<stop stop-color="#E1E8EB" stop-opacity="0.4"/>
<stop offset="1" stop-color="#E1E8EB" stop-opacity="0.1"/>
</linearGradient>
<linearGradient id="paint1_linear_159_644" x1="18.7744" y1="10.8203" x2="95.842" y2="168.592" gradientUnits="userSpaceOnUse">
<stop stop-color="#E1E8EB" stop-opacity="0.6"/>
<stop offset="0.381568" stop-color="#E1E8EB" stop-opacity="0.1"/>
<stop offset="0.617815" stop-color="#E1E8EB" stop-opacity="0.1"/>
<stop offset="1" stop-color="#E1E8EB" stop-opacity="0.6"/>
</linearGradient>
<clipPath id="clip0_159_644">
<rect width="89.9988" height="91" fill="white" transform="translate(37 33)"/>
</clipPath>
</defs>
</svg>
