<svg width="25" height="25" viewBox="0 0 25 25" fill="none" xmlns="http://www.w3.org/2000/svg">
<g clip-path="url(#clip0_315_542)">
<path d="M9.57002 12.1969C9.57193 12.1969 9.57289 12.1959 9.57385 12.1959C9.57599 12.1945 9.57823 12.1932 9.58054 12.1921C9.57712 12.1938 9.57361 12.1954 9.57002 12.1969V12.1969ZM9.75078 12.1462H9.75269C9.77947 12.1385 9.70487 12.1481 9.75078 12.1462L9.75078 12.1462ZM24.3931 9.44342C24.3919 9.43904 24.3913 9.43454 24.3911 9.43002C24.3893 9.42479 24.3884 9.4193 24.3883 9.41377C24.3856 9.4025 24.3843 9.39094 24.3844 9.37935C24.3892 9.32672 24.394 9.27414 24.3978 9.22154C24.489 8.13513 24.4903 7.04306 24.4017 5.95644C24.2668 4.31718 24.0191 2.20263 22.4325 1.29691C21.6903 0.872281 20.8037 0.937332 20.0434 1.2864C19.7792 1.40933 19.5277 1.55797 19.2926 1.73016C19.2687 1.74643 19.2448 1.76364 19.2219 1.78084C19.2152 1.78659 19.2085 1.79138 19.2018 1.79616V1.7971C19.0851 1.88414 18.9713 1.97564 18.8604 2.07159C18.8049 2.11845 18.7504 2.16723 18.6968 2.216C18.6423 2.26574 18.5888 2.31547 18.5352 2.36521C18.4826 2.41589 18.429 2.46657 18.3774 2.51728C18.299 2.59473 18.2215 2.6722 18.145 2.75063C18.0675 2.82904 17.991 2.90746 17.9155 2.9859C17.7012 3.20777 17.3636 2.86922 17.5779 2.6483C17.8332 2.38338 18.0953 2.11846 18.3707 1.86981C18.4013 1.84301 18.4319 1.81529 18.4625 1.78947C18.4778 1.77417 18.4941 1.76077 18.5094 1.74737C18.5495 1.71295 18.5897 1.67853 18.6308 1.64505C18.0235 1.45569 17.4083 1.29629 16.785 1.16686C13.468 0.480661 10.0291 0.675537 6.81085 1.73207C6.96484 1.92048 7.11116 2.11431 7.24983 2.31356C7.28139 2.36845 7.29004 2.43355 7.27393 2.49477C7.25782 2.55599 7.21824 2.6084 7.16376 2.64064C7.10871 2.67104 7.0441 2.67916 6.98324 2.66332C6.92239 2.64749 6.86992 2.60891 6.83667 2.55553C6.2265 1.6833 5.46139 0.888535 4.4964 0.415128C3.65765 0.00294383 2.65344 -0.143386 1.75826 0.165525C1.02567 0.418957 0.367678 1.00332 0.121886 1.7512C-0.0406946 2.24566 -0.0129642 2.77359 0.0472882 3.28428C0.11041 3.82466 0.199354 4.36213 0.299774 4.89676C0.498249 5.96176 0.75624 7.01479 1.07253 8.05092C1.09921 8.08645 1.11495 8.12897 1.11784 8.1733C1.12072 8.21763 1.11063 8.26184 1.08879 8.30053C1.02567 8.42106 0.966375 8.54441 0.912818 8.6697C0.636422 9.32196 0.538871 9.99909 0.514005 10.7011C0.485313 11.5121 0.471924 12.325 0.514005 13.1351C0.593385 14.6701 0.902298 16.1831 1.61767 17.5536C2.12963 18.518 2.79103 19.3954 3.57731 20.153C4.42643 20.9946 5.39048 21.7117 6.44073 22.2829C7.19575 22.6859 7.99189 23.0065 8.81544 23.2393C8.53429 22.6013 8.34651 21.9262 8.25786 21.2347C8.15188 20.3345 8.24627 19.422 8.53426 18.5626C8.73415 17.9591 8.9962 17.3757 9.22573 16.7827C9.6408 15.7154 10.0323 14.6395 10.4002 13.5549C10.1298 13.6402 9.84183 13.6536 9.56466 13.5939C9.28749 13.5342 9.03061 13.4034 8.81926 13.2144C8.58157 12.9899 8.41371 12.7016 8.33585 12.384C8.25798 12.0664 8.27341 11.7331 8.38028 11.4241C8.61651 10.7738 9.25155 10.3013 9.95354 10.329C9.96286 10.329 9.97216 10.33 9.98127 10.3319C10.3543 10.365 10.7041 10.5275 10.9701 10.7912C11.236 11.0549 11.4015 11.4033 11.4378 11.776C11.4675 12.0079 11.4497 12.2433 11.3856 12.468C11.3214 12.6928 11.2123 12.9021 11.0649 13.0834C10.8449 13.7433 10.6166 14.4007 10.3801 15.0555C10.1372 15.7317 9.885 16.4043 9.62359 17.0734C9.39501 17.6588 9.13296 18.2364 8.94742 18.838C8.68873 19.6712 8.62556 20.5529 8.76284 21.4145C8.88248 22.1256 9.11256 22.8135 9.44474 23.4535C9.4457 23.4545 9.44665 23.4554 9.44761 23.4564C9.82212 23.8314 10.2509 24.148 10.7196 24.3955C11.3885 24.7561 12.1301 24.961 12.8892 24.995C13.6483 25.0289 14.4053 24.891 15.1037 24.5916C15.394 24.4654 15.6738 24.3163 15.9405 24.1459C16.0572 24.0723 16.171 23.9948 16.2829 23.9135C16.3977 23.8294 16.4388 23.7978 16.5526 23.7031C16.7391 23.552 16.9152 23.3884 17.0796 23.2134C17.0826 23.2111 17.0852 23.2082 17.0872 23.2048C17.0889 23.2018 17.0902 23.1986 17.0911 23.1953C17.091 23.1952 17.0911 23.195 17.0911 23.1949C17.0912 23.1948 17.0912 23.1947 17.0913 23.1946C17.0914 23.1945 17.0915 23.1944 17.0916 23.1944C17.0917 23.1943 17.0919 23.1943 17.092 23.1943C17.4115 22.3682 17.5539 21.4842 17.5099 20.5996C17.446 19.7901 17.1959 19.0062 16.7793 18.3091C16.488 17.8218 16.2249 17.3183 15.9912 16.8009C15.4222 15.4715 15.1238 14.0503 15.009 12.6119C14.8563 12.2325 14.8457 11.8107 14.9793 11.4241C15.2156 10.7737 15.8506 10.3013 16.5526 10.329C16.5619 10.329 16.5712 10.3299 16.5803 10.3319C16.9534 10.365 17.3032 10.5275 17.5691 10.7912C17.8351 11.0549 18.0006 11.4032 18.0369 11.776C18.0746 12.071 18.0354 12.3707 17.9234 12.6461C17.8113 12.9216 17.63 13.1634 17.3971 13.3483C16.8577 13.751 16.0935 13.7079 15.5599 13.3273C15.6382 13.926 15.7542 14.5192 15.907 15.1033C16.0683 15.7125 16.2823 16.3064 16.5469 16.8783C16.8003 17.4197 17.1303 17.9179 17.399 18.4506C17.8052 19.2508 18.0113 20.1375 17.9996 21.0348C17.9836 21.704 17.8706 22.3673 17.6639 23.004C18.8871 22.7112 20.0295 22.1489 21.0075 21.3581C21.89 20.6235 22.6184 19.7215 23.1507 18.7041C23.5378 17.9515 23.8557 17.1653 24.1004 16.3552C24.5196 15.0557 24.7304 13.698 24.7249 12.3326C24.7203 11.3603 24.6091 10.3914 24.3931 9.44342V9.44342ZM1.73626 6.99794C1.38431 5.65995 1.13278 4.53907 0.954893 3.68311C0.863871 3.2985 0.864198 2.89792 0.95585 2.51345C1.12417 1.83824 1.72383 1.31414 2.39999 1.14486C3.22535 0.938265 3.91109 1.23475 4.41223 1.47672C5.12498 1.82723 5.72482 2.37106 6.14329 3.04615C4.29622 3.86867 2.75451 5.25112 1.73626 6.99793L1.73626 6.99794ZM15.2519 22.7592C15.282 22.8144 15.2898 22.879 15.2738 22.9398C15.2578 23.0006 15.2192 23.053 15.1658 23.0863C14.5956 23.4898 13.9252 23.7284 13.2282 23.7758C12.5312 23.8232 11.8346 23.6776 11.215 23.355C10.9415 23.2135 11.1834 22.8013 11.457 22.9428C12.0036 23.2223 12.6169 23.3451 13.229 23.2975C13.841 23.2499 14.428 23.0338 14.9248 22.6731C14.9798 22.6419 15.0448 22.6334 15.1059 22.6495C15.167 22.6656 15.2194 22.705 15.2519 22.7592L15.2519 22.7592ZM14.9956 19.0637C15.2701 19.8958 14.8455 20.9 14.0574 21.2816C13.6579 21.47 13.2042 21.5093 12.7783 21.3923C12.3524 21.2753 11.9824 21.0097 11.7353 20.6437C11.1854 19.8126 11.4541 18.6611 12.0624 18.2584C12.3474 18.0691 12.6706 18.0796 13.3181 18.0987C13.824 18.114 14.2324 18.1312 14.5786 18.4239C14.7743 18.5944 14.9186 18.8159 14.9956 19.0637L14.9956 19.0637ZM23.5447 7.44839C23.5438 7.51151 23.5409 7.5756 23.538 7.63871C23.5371 7.6722 23.5361 7.70568 23.5342 7.73913C23.5314 7.81661 23.5275 7.89407 23.5227 7.97153C23.5208 8.02222 23.517 8.07291 23.5141 8.1236C22.2156 6.36329 20.6099 4.85187 18.7743 3.66205C18.803 3.61997 18.8336 3.5779 18.8642 3.53678C18.8737 3.52433 18.8833 3.51191 18.8919 3.50042C18.9197 3.46409 18.9483 3.42869 18.978 3.39332C18.9837 3.38662 18.9895 3.37896 18.9962 3.37228C19.0344 3.32637 19.0736 3.28239 19.1148 3.23933C19.1186 3.23457 19.1234 3.23074 19.1272 3.22595C19.1454 3.20682 19.1645 3.18768 19.1836 3.16856C19.198 3.15326 19.2133 3.13893 19.2286 3.12553C19.2955 3.05858 19.3672 2.99547 19.4409 2.9352C19.4658 2.91512 19.4906 2.89502 19.5155 2.87592C19.5365 2.85965 19.5576 2.8434 19.5786 2.8281C19.6149 2.8013 19.6513 2.77547 19.6886 2.74967C19.6917 2.74845 19.6945 2.74684 19.6972 2.74489C19.7345 2.71907 19.7727 2.6942 19.812 2.67029V2.66933C19.8607 2.63968 19.9105 2.61003 19.9612 2.58231C19.986 2.56795 20.0118 2.55458 20.0377 2.54119C20.0635 2.52779 20.0893 2.51439 20.1151 2.50197C20.5063 2.3126 21.0409 2.05726 21.6731 2.20835C22.2345 2.34226 22.6907 2.77359 22.969 3.2795C23.255 3.79884 23.3745 4.26458 23.4472 4.93309C23.526 5.68148 23.5605 6.43388 23.5505 7.18635C23.5495 7.27432 23.5476 7.36137 23.5447 7.44839V7.44839ZM16.4091 12.1462H16.4111C16.4378 12.1385 16.3632 12.1481 16.4091 12.1462L16.4091 12.1462Z" fill="#EAEAEA"/>
<path d="M17.091 23.1953C17.0901 23.1986 17.0888 23.2019 17.0872 23.2049C17.0852 23.2082 17.0826 23.2111 17.0795 23.2135C17.0826 23.207 17.0865 23.2009 17.091 23.1953V23.1953Z" fill="#1D1C1A"/>
<path d="M9.75071 12.1461H9.75262C9.77939 12.1384 9.70479 12.148 9.75071 12.1461ZM9.56995 12.1968C9.57186 12.1968 9.57282 12.1958 9.57377 12.1958C9.57592 12.1944 9.57815 12.1931 9.58047 12.192C9.57705 12.1938 9.57353 12.1954 9.56995 12.1968L9.56995 12.1968Z" fill="#EAEAEA"/>
<path d="M10.972 11.8986C10.9681 11.83 10.9585 11.7619 10.9433 11.6949C10.8952 11.4604 10.7731 11.2476 10.5949 11.0878C10.4166 10.928 10.1918 10.8297 9.95346 10.8074C9.68058 10.8018 9.41441 10.8922 9.20135 11.0628C8.98829 11.2334 8.84188 11.4733 8.78763 11.7408C8.73941 11.9737 8.76159 12.2156 8.85135 12.4359C8.9411 12.6561 9.09438 12.8446 9.29164 12.9774C9.71341 13.2414 10.2834 13.2146 10.6354 12.8598C10.6411 12.855 10.6459 12.8492 10.6507 12.8445C10.8784 12.584 10.9939 12.2439 10.972 11.8986V11.8986ZM10.5751 12.2037C10.543 12.2583 10.4906 12.298 10.4293 12.3141C10.368 12.3302 10.3029 12.3215 10.248 12.2898C10.2094 12.2606 10.1685 12.2347 10.1256 12.2123C10.1218 12.2094 10.1103 12.2037 10.0998 12.1979C10.0833 12.1899 10.066 12.1838 10.0481 12.1798C10.0034 12.1598 9.95548 12.1482 9.9066 12.1454C9.91138 12.1463 9.91521 12.1463 9.91903 12.1473C9.91199 12.1471 9.90496 12.1464 9.89799 12.1454C9.87382 12.1433 9.84955 12.1426 9.82531 12.1434C9.8014 12.1434 9.77749 12.1454 9.75262 12.1463H9.75071C9.74852 12.1471 9.74628 12.1477 9.74401 12.1482C9.69637 12.1571 9.64939 12.1692 9.60342 12.1846C9.59333 12.1878 9.58343 12.1916 9.57378 12.196C9.57282 12.196 9.57186 12.197 9.56995 12.197C9.55656 12.2046 9.54126 12.2113 9.52787 12.219C9.48504 12.2422 9.44411 12.2687 9.40545 12.2984C9.29929 12.3787 9.14149 12.3099 9.07837 12.2123C9.04682 12.1562 9.03825 12.09 9.05446 12.0277C9.07298 11.9686 9.11198 11.9181 9.16444 11.8852C9.3565 11.7448 9.5879 11.6683 9.82583 11.6668C10.0638 11.6653 10.2961 11.7387 10.49 11.8766C10.5434 11.9098 10.582 11.9623 10.5979 12.0231C10.6137 12.084 10.6056 12.1486 10.5751 12.2037H10.5751Z" fill="#EAEAEA"/>
<path d="M16.587 12.1484H16.5868C16.5849 12.1482 16.5831 12.1476 16.5812 12.1475C16.5831 12.1475 16.585 12.1484 16.587 12.1484Z" fill="#EAEAEA"/>
<path d="M16.4091 12.1461H16.411C16.4378 12.1384 16.3632 12.148 16.4091 12.1461Z" fill="#EAEAEA"/>
<path d="M17.5424 11.6949C17.4943 11.4604 17.3721 11.2476 17.1939 11.0878C17.0157 10.928 16.7908 10.8297 16.5525 10.8074C16.2796 10.8018 16.0135 10.8922 15.8004 11.0628C15.5874 11.2334 15.4409 11.4733 15.3867 11.7408C15.3604 11.8688 15.3549 12.0003 15.3704 12.13C15.3863 12.256 15.4221 12.3787 15.4766 12.4935V12.4944C15.5686 12.6898 15.7117 12.8567 15.8907 12.9774C16.3182 13.2452 16.8987 13.2136 17.2497 12.8445C17.3851 12.6892 17.4822 12.5042 17.533 12.3046C17.5839 12.1049 17.5871 11.896 17.5424 11.6949V11.6949ZM17.2335 12.2037C17.2013 12.2583 17.1489 12.298 17.0877 12.3141C17.0264 12.3302 16.9612 12.3215 16.9064 12.2898C16.8676 12.2604 16.8263 12.2345 16.783 12.2123C16.7773 12.2094 16.76 12.1989 16.7476 12.1913C16.7495 12.1932 16.7534 12.1951 16.7572 12.1979C16.741 12.1901 16.724 12.184 16.7065 12.1798C16.6687 12.1627 16.6283 12.152 16.5869 12.1482H16.5831C16.5745 12.1473 16.5649 12.1463 16.5563 12.1454C16.5322 12.1433 16.5079 12.1426 16.4837 12.1434C16.4597 12.1434 16.4349 12.1454 16.411 12.1463H16.4091C16.4069 12.1471 16.4046 12.1477 16.4024 12.1482C16.3547 12.1569 16.3077 12.1691 16.2618 12.1846C16.2551 12.1865 16.2484 12.1893 16.2417 12.1913C16.2388 12.1922 16.2369 12.1932 16.234 12.1941C16.2178 12.2027 16.2015 12.2104 16.1853 12.219C16.1427 12.2422 16.1021 12.2687 16.0638 12.2984C15.9576 12.3787 15.7998 12.3098 15.7367 12.2123C15.7052 12.1562 15.6966 12.09 15.7128 12.0277C15.731 11.9684 15.7701 11.9178 15.8228 11.8852C16.0147 11.7448 16.2459 11.6683 16.4837 11.6668C16.7215 11.6652 16.9537 11.7387 17.1474 11.8766C17.2009 11.9097 17.2397 11.9621 17.2557 12.023C17.2717 12.0838 17.2638 12.1485 17.2335 12.2037H17.2335Z" fill="#EAEAEA"/>
<path d="M9.58047 12.1919C9.57815 12.193 9.57592 12.1943 9.57377 12.1957C9.57282 12.1957 9.57186 12.1967 9.56995 12.1967C9.57353 12.1953 9.57704 12.1937 9.58047 12.1919V12.1919Z" fill="#1D1C1A"/>
<path d="M9.75262 12.1461H9.7507C9.70479 12.148 9.7794 12.1384 9.75262 12.1461Z" fill="#1D1C1A"/>
<path d="M16.411 12.1461H16.4091C16.3632 12.148 16.4377 12.1384 16.411 12.1461Z" fill="#1D1C1A"/>
</g>
<defs>
<clipPath id="clip0_315_542">
<rect width="24.725" height="25" fill="white"/>
</clipPath>
</defs>
</svg>
