<svg width="25" height="25" viewBox="0 0 25 25" fill="none" xmlns="http://www.w3.org/2000/svg">
<mask id="path-1-outside-1_315_558" maskUnits="userSpaceOnUse" x="0" y="0" width="25" height="25" fill="black">
<rect fill="white" width="25" height="25"/>
<path d="M24 12.5C24 18.8513 18.8513 24 12.5 24C6.14873 24 1 18.8513 1 12.5C1 6.14873 6.14873 1 12.5 1C18.8513 1 24 6.14873 24 12.5Z"/>
<path d="M2.34368 12.4919C2.34368 12.2122 2.40421 11.9633 2.52526 11.7454C2.64632 11.5249 2.81444 11.354 3.02965 11.233C3.24754 11.1092 3.49368 11.0474 3.76807 11.0474C4.10433 11.0474 4.39216 11.1361 4.63158 11.3137C4.87099 11.4912 5.03105 11.7333 5.11175 12.04H4.35316C4.29667 11.9216 4.21597 11.8315 4.11105 11.7696C4.00883 11.7078 3.89181 11.6768 3.76 11.6768C3.54749 11.6768 3.37532 11.7508 3.24351 11.8988C3.1117 12.0467 3.04579 12.2444 3.04579 12.4919C3.04579 12.7394 3.1117 12.9371 3.24351 13.0851C3.37532 13.233 3.54749 13.307 3.76 13.307C3.89181 13.307 4.00883 13.2761 4.11105 13.2142C4.21597 13.1523 4.29667 13.0622 4.35316 12.9439H5.11175C5.03105 13.2505 4.87099 13.4926 4.63158 13.6702C4.39216 13.845 4.10433 13.9325 3.76807 13.9325C3.49368 13.9325 3.24754 13.8719 3.02965 13.7509C2.81444 13.6271 2.64632 13.4563 2.52526 13.2384C2.40421 13.0205 2.34368 12.7717 2.34368 12.4919Z"/>
<path d="M6.55922 13.9446C6.33863 13.9446 6.13957 13.8975 5.96202 13.8033C5.78717 13.7092 5.64863 13.5747 5.54641 13.3998C5.44688 13.225 5.39711 13.0205 5.39711 12.7865C5.39711 12.5551 5.44822 12.352 5.55044 12.1772C5.65267 11.9996 5.79255 11.8638 5.97009 11.7696C6.14764 11.6755 6.3467 11.6284 6.56729 11.6284C6.78787 11.6284 6.98694 11.6755 7.16448 11.7696C7.34202 11.8638 7.48191 11.9996 7.58413 12.1772C7.68635 12.352 7.73746 12.5551 7.73746 12.7865C7.73746 13.0178 7.68501 13.2223 7.58009 13.3998C7.47787 13.5747 7.33664 13.7092 7.15641 13.8033C6.97887 13.8975 6.7798 13.9446 6.55922 13.9446ZM6.55922 13.3474C6.69103 13.3474 6.80267 13.2989 6.89413 13.2021C6.98828 13.1053 7.03536 12.9667 7.03536 12.7865C7.03536 12.6063 6.98963 12.4677 6.89816 12.3709C6.80939 12.274 6.6991 12.2256 6.56729 12.2256C6.43278 12.2256 6.32115 12.274 6.23237 12.3709C6.1436 12.465 6.09922 12.6036 6.09922 12.7865C6.09922 12.9667 6.14226 13.1053 6.22834 13.2021C6.31711 13.2989 6.4274 13.3474 6.55922 13.3474Z"/>
<path d="M7.96633 12.7825C7.96633 12.5511 8.00937 12.348 8.09545 12.1732C8.18422 11.9983 8.30393 11.8638 8.45457 11.7696C8.60522 11.6755 8.77334 11.6284 8.95896 11.6284C9.10691 11.6284 9.24141 11.6594 9.36247 11.7212C9.48621 11.7831 9.58305 11.8665 9.65299 11.9714V10.9263H10.343V13.9123H9.65299V13.5895C9.58843 13.6971 9.49563 13.7832 9.37457 13.8477C9.25621 13.9123 9.11767 13.9446 8.95896 13.9446C8.77334 13.9446 8.60522 13.8975 8.45457 13.8033C8.30393 13.7065 8.18422 13.5706 8.09545 13.3958C8.00937 13.2182 7.96633 13.0138 7.96633 12.7825ZM9.65299 12.7865C9.65299 12.6143 9.60457 12.4785 9.50773 12.3789C9.41358 12.2794 9.29791 12.2296 9.16071 12.2296C9.02352 12.2296 8.9065 12.2794 8.80966 12.3789C8.71551 12.4758 8.66843 12.6103 8.66843 12.7825C8.66843 12.9546 8.71551 13.0918 8.80966 13.194C8.9065 13.2936 9.02352 13.3433 9.16071 13.3433C9.29791 13.3433 9.41358 13.2936 9.50773 13.194C9.60457 13.0945 9.65299 12.9587 9.65299 12.7865Z"/>
<path d="M12.2262 11.6365C12.4845 11.6365 12.6916 11.7226 12.8476 11.8947C13.0036 12.0642 13.0817 12.2982 13.0817 12.5968V13.9123H12.3957V12.6896C12.3957 12.539 12.3567 12.422 12.2787 12.3386C12.2007 12.2552 12.0957 12.2135 11.9639 12.2135C11.8321 12.2135 11.7272 12.2552 11.6492 12.3386C11.5712 12.422 11.5322 12.539 11.5322 12.6896V13.9123H10.8422V10.9263H11.5322V11.9633C11.6021 11.8638 11.6976 11.7844 11.8187 11.7253C11.9397 11.6661 12.0756 11.6365 12.2262 11.6365Z"/>
<path d="M15.6836 12.7502C15.6836 12.8147 15.6796 12.882 15.6715 12.9519H14.1099C14.1207 13.0918 14.1651 13.1994 14.2431 13.2747C14.3238 13.3474 14.422 13.3837 14.5376 13.3837C14.7098 13.3837 14.8295 13.3111 14.8967 13.1658H15.6311C15.5935 13.3137 15.5249 13.4469 15.4253 13.5653C15.3285 13.6836 15.2061 13.7764 15.0582 13.8437C14.9102 13.9109 14.7448 13.9446 14.5618 13.9446C14.3412 13.9446 14.1449 13.8975 13.9727 13.8033C13.8005 13.7092 13.666 13.5747 13.5692 13.3998C13.4724 13.225 13.4239 13.0205 13.4239 12.7865C13.4239 12.5525 13.471 12.348 13.5652 12.1732C13.662 11.9983 13.7965 11.8638 13.9687 11.7696C14.1408 11.6755 14.3386 11.6284 14.5618 11.6284C14.7797 11.6284 14.9734 11.6742 15.1429 11.7656C15.3124 11.8571 15.4442 11.9875 15.5383 12.157C15.6352 12.3265 15.6836 12.5242 15.6836 12.7502ZM14.9774 12.5686C14.9774 12.4502 14.9371 12.3561 14.8564 12.2861C14.7757 12.2162 14.6748 12.1812 14.5538 12.1812C14.4381 12.1812 14.3399 12.2149 14.2592 12.2821C14.1812 12.3494 14.1328 12.4449 14.1139 12.5686H14.9774Z"/>
<path d="M18.2709 11.6607V13.9123H17.5809V13.6056C17.511 13.7051 17.4155 13.7858 17.2944 13.8477C17.1761 13.9069 17.0443 13.9365 16.899 13.9365C16.7268 13.9365 16.5749 13.8988 16.443 13.8235C16.3112 13.7455 16.209 13.6339 16.1364 13.4886C16.0637 13.3433 16.0274 13.1725 16.0274 12.9761V11.6607H16.7134V12.8833C16.7134 13.034 16.7524 13.151 16.8304 13.2344C16.9084 13.3178 17.0133 13.3595 17.1451 13.3595C17.2796 13.3595 17.3859 13.3178 17.4639 13.2344C17.5419 13.151 17.5809 13.034 17.5809 12.8833V11.6607H18.2709Z"/>
<path d="M19.4566 12.036C19.5373 11.9122 19.6381 11.8154 19.7592 11.7454C19.8802 11.6728 20.0147 11.6365 20.1627 11.6365V12.3668H19.973C19.8009 12.3668 19.6718 12.4045 19.5857 12.4798C19.4996 12.5525 19.4566 12.6816 19.4566 12.8672V13.9123H18.7666V11.6607H19.4566V12.036Z"/>
<path d="M22.615 12.7502C22.615 12.8147 22.6109 12.882 22.6029 12.9519H21.0413C21.052 13.0918 21.0964 13.1994 21.1744 13.2747C21.2551 13.3474 21.3533 13.3837 21.469 13.3837C21.6412 13.3837 21.7609 13.3111 21.8281 13.1658H22.5625C22.5248 13.3137 22.4562 13.4469 22.3567 13.5653C22.2599 13.6836 22.1375 13.7764 21.9895 13.8437C21.8416 13.9109 21.6761 13.9446 21.4932 13.9446C21.2726 13.9446 21.0762 13.8975 20.9041 13.8033C20.7319 13.7092 20.5974 13.5747 20.5006 13.3998C20.4037 13.225 20.3553 13.0205 20.3553 12.7865C20.3553 12.5525 20.4024 12.348 20.4965 12.1732C20.5934 11.9983 20.7279 11.8638 20.9 11.7696C21.0722 11.6755 21.2699 11.6284 21.4932 11.6284C21.7111 11.6284 21.9048 11.6742 22.0743 11.7656C22.2437 11.8571 22.3755 11.9875 22.4697 12.157C22.5665 12.3265 22.615 12.5242 22.615 12.7502ZM21.9088 12.5686C21.9088 12.4502 21.8685 12.3561 21.7878 12.2861C21.7071 12.2162 21.6062 12.1812 21.4851 12.1812C21.3695 12.1812 21.2713 12.2149 21.1906 12.2821C21.1126 12.3494 21.0641 12.4449 21.0453 12.5686H21.9088Z"/>
</mask>
<path d="M2.34368 12.4919C2.34368 12.2122 2.40421 11.9633 2.52526 11.7454C2.64632 11.5249 2.81444 11.354 3.02965 11.233C3.24754 11.1092 3.49368 11.0474 3.76807 11.0474C4.10433 11.0474 4.39216 11.1361 4.63158 11.3137C4.87099 11.4912 5.03105 11.7333 5.11175 12.04H4.35316C4.29667 11.9216 4.21597 11.8315 4.11105 11.7696C4.00883 11.7078 3.89181 11.6768 3.76 11.6768C3.54749 11.6768 3.37532 11.7508 3.24351 11.8988C3.1117 12.0467 3.04579 12.2444 3.04579 12.4919C3.04579 12.7394 3.1117 12.9371 3.24351 13.0851C3.37532 13.233 3.54749 13.307 3.76 13.307C3.89181 13.307 4.00883 13.2761 4.11105 13.2142C4.21597 13.1523 4.29667 13.0622 4.35316 12.9439H5.11175C5.03105 13.2505 4.87099 13.4926 4.63158 13.6702C4.39216 13.845 4.10433 13.9325 3.76807 13.9325C3.49368 13.9325 3.24754 13.8719 3.02965 13.7509C2.81444 13.6271 2.64632 13.4563 2.52526 13.2384C2.40421 13.0205 2.34368 12.7717 2.34368 12.4919Z" fill="#E1E8EB"/>
<path d="M6.55922 13.9446C6.33863 13.9446 6.13957 13.8975 5.96202 13.8033C5.78717 13.7092 5.64863 13.5747 5.54641 13.3998C5.44688 13.225 5.39711 13.0205 5.39711 12.7865C5.39711 12.5551 5.44822 12.352 5.55044 12.1772C5.65267 11.9996 5.79255 11.8638 5.97009 11.7696C6.14764 11.6755 6.3467 11.6284 6.56729 11.6284C6.78787 11.6284 6.98694 11.6755 7.16448 11.7696C7.34202 11.8638 7.48191 11.9996 7.58413 12.1772C7.68635 12.352 7.73746 12.5551 7.73746 12.7865C7.73746 13.0178 7.68501 13.2223 7.58009 13.3998C7.47787 13.5747 7.33664 13.7092 7.15641 13.8033C6.97887 13.8975 6.7798 13.9446 6.55922 13.9446ZM6.55922 13.3474C6.69103 13.3474 6.80267 13.2989 6.89413 13.2021C6.98828 13.1053 7.03536 12.9667 7.03536 12.7865C7.03536 12.6063 6.98963 12.4677 6.89816 12.3709C6.80939 12.274 6.6991 12.2256 6.56729 12.2256C6.43278 12.2256 6.32115 12.274 6.23237 12.3709C6.1436 12.465 6.09922 12.6036 6.09922 12.7865C6.09922 12.9667 6.14226 13.1053 6.22834 13.2021C6.31711 13.2989 6.4274 13.3474 6.55922 13.3474Z" fill="#E1E8EB"/>
<path d="M7.96633 12.7825C7.96633 12.5511 8.00937 12.348 8.09545 12.1732C8.18422 11.9983 8.30393 11.8638 8.45457 11.7696C8.60522 11.6755 8.77334 11.6284 8.95896 11.6284C9.10691 11.6284 9.24141 11.6594 9.36247 11.7212C9.48621 11.7831 9.58305 11.8665 9.65299 11.9714V10.9263H10.343V13.9123H9.65299V13.5895C9.58843 13.6971 9.49563 13.7832 9.37457 13.8477C9.25621 13.9123 9.11767 13.9446 8.95896 13.9446C8.77334 13.9446 8.60522 13.8975 8.45457 13.8033C8.30393 13.7065 8.18422 13.5706 8.09545 13.3958C8.00937 13.2182 7.96633 13.0138 7.96633 12.7825ZM9.65299 12.7865C9.65299 12.6143 9.60457 12.4785 9.50773 12.3789C9.41358 12.2794 9.29791 12.2296 9.16071 12.2296C9.02352 12.2296 8.9065 12.2794 8.80966 12.3789C8.71551 12.4758 8.66843 12.6103 8.66843 12.7825C8.66843 12.9546 8.71551 13.0918 8.80966 13.194C8.9065 13.2936 9.02352 13.3433 9.16071 13.3433C9.29791 13.3433 9.41358 13.2936 9.50773 13.194C9.60457 13.0945 9.65299 12.9587 9.65299 12.7865Z" fill="#E1E8EB"/>
<path d="M12.2262 11.6365C12.4845 11.6365 12.6916 11.7226 12.8476 11.8947C13.0036 12.0642 13.0817 12.2982 13.0817 12.5968V13.9123H12.3957V12.6896C12.3957 12.539 12.3567 12.422 12.2787 12.3386C12.2007 12.2552 12.0957 12.2135 11.9639 12.2135C11.8321 12.2135 11.7272 12.2552 11.6492 12.3386C11.5712 12.422 11.5322 12.539 11.5322 12.6896V13.9123H10.8422V10.9263H11.5322V11.9633C11.6021 11.8638 11.6976 11.7844 11.8187 11.7253C11.9397 11.6661 12.0756 11.6365 12.2262 11.6365Z" fill="#E1E8EB"/>
<path d="M15.6836 12.7502C15.6836 12.8147 15.6796 12.882 15.6715 12.9519H14.1099C14.1207 13.0918 14.1651 13.1994 14.2431 13.2747C14.3238 13.3474 14.422 13.3837 14.5376 13.3837C14.7098 13.3837 14.8295 13.3111 14.8967 13.1658H15.6311C15.5935 13.3137 15.5249 13.4469 15.4253 13.5653C15.3285 13.6836 15.2061 13.7764 15.0582 13.8437C14.9102 13.9109 14.7448 13.9446 14.5618 13.9446C14.3412 13.9446 14.1449 13.8975 13.9727 13.8033C13.8005 13.7092 13.666 13.5747 13.5692 13.3998C13.4724 13.225 13.4239 13.0205 13.4239 12.7865C13.4239 12.5525 13.471 12.348 13.5652 12.1732C13.662 11.9983 13.7965 11.8638 13.9687 11.7696C14.1408 11.6755 14.3386 11.6284 14.5618 11.6284C14.7797 11.6284 14.9734 11.6742 15.1429 11.7656C15.3124 11.8571 15.4442 11.9875 15.5383 12.157C15.6352 12.3265 15.6836 12.5242 15.6836 12.7502ZM14.9774 12.5686C14.9774 12.4502 14.9371 12.3561 14.8564 12.2861C14.7757 12.2162 14.6748 12.1812 14.5538 12.1812C14.4381 12.1812 14.3399 12.2149 14.2592 12.2821C14.1812 12.3494 14.1328 12.4449 14.1139 12.5686H14.9774Z" fill="#E1E8EB"/>
<path d="M18.2709 11.6607V13.9123H17.5809V13.6056C17.511 13.7051 17.4155 13.7858 17.2944 13.8477C17.1761 13.9069 17.0443 13.9365 16.899 13.9365C16.7268 13.9365 16.5749 13.8988 16.443 13.8235C16.3112 13.7455 16.209 13.6339 16.1364 13.4886C16.0637 13.3433 16.0274 13.1725 16.0274 12.9761V11.6607H16.7134V12.8833C16.7134 13.034 16.7524 13.151 16.8304 13.2344C16.9084 13.3178 17.0133 13.3595 17.1451 13.3595C17.2796 13.3595 17.3859 13.3178 17.4639 13.2344C17.5419 13.151 17.5809 13.034 17.5809 12.8833V11.6607H18.2709Z" fill="#E1E8EB"/>
<path d="M19.4566 12.036C19.5373 11.9122 19.6381 11.8154 19.7592 11.7454C19.8802 11.6728 20.0147 11.6365 20.1627 11.6365V12.3668H19.973C19.8009 12.3668 19.6718 12.4045 19.5857 12.4798C19.4996 12.5525 19.4566 12.6816 19.4566 12.8672V13.9123H18.7666V11.6607H19.4566V12.036Z" fill="#E1E8EB"/>
<path d="M22.615 12.7502C22.615 12.8147 22.6109 12.882 22.6029 12.9519H21.0413C21.052 13.0918 21.0964 13.1994 21.1744 13.2747C21.2551 13.3474 21.3533 13.3837 21.469 13.3837C21.6412 13.3837 21.7609 13.3111 21.8281 13.1658H22.5625C22.5248 13.3137 22.4562 13.4469 22.3567 13.5653C22.2599 13.6836 22.1375 13.7764 21.9895 13.8437C21.8416 13.9109 21.6761 13.9446 21.4932 13.9446C21.2726 13.9446 21.0762 13.8975 20.9041 13.8033C20.7319 13.7092 20.5974 13.5747 20.5006 13.3998C20.4037 13.225 20.3553 13.0205 20.3553 12.7865C20.3553 12.5525 20.4024 12.348 20.4965 12.1732C20.5934 11.9983 20.7279 11.8638 20.9 11.7696C21.0722 11.6755 21.2699 11.6284 21.4932 11.6284C21.7111 11.6284 21.9048 11.6742 22.0743 11.7656C22.2437 11.8571 22.3755 11.9875 22.4697 12.157C22.5665 12.3265 22.615 12.5242 22.615 12.7502ZM21.9088 12.5686C21.9088 12.4502 21.8685 12.3561 21.7878 12.2861C21.7071 12.2162 21.6062 12.1812 21.4851 12.1812C21.3695 12.1812 21.2713 12.2149 21.1906 12.2821C21.1126 12.3494 21.0641 12.4449 21.0453 12.5686H21.9088Z" fill="#E1E8EB"/>
<path d="M2.52526 11.7454L3.39943 12.2311L3.40193 12.2265L2.52526 11.7454ZM3.02965 11.233L3.51991 12.1046L3.52347 12.1025L3.02965 11.233ZM4.63158 11.3137L5.22724 10.5104L5.22724 10.5104L4.63158 11.3137ZM5.11175 12.04V13.04H6.40896L6.07883 11.7855L5.11175 12.04ZM4.35316 12.04L3.45068 12.4707L3.72237 13.04H4.35316V12.04ZM4.11105 11.7696L3.59322 12.6252L3.60307 12.631L4.11105 11.7696ZM3.24351 11.8988L3.99017 12.564L3.99017 12.564L3.24351 11.8988ZM4.11105 13.2142L3.60303 12.3528L3.59325 12.3587L4.11105 13.2142ZM4.35316 12.9439V11.9439H3.72237L3.45068 12.5131L4.35316 12.9439ZM5.11175 12.9439L6.07883 13.1984L6.40896 11.9439H5.11175V12.9439ZM4.63158 13.6702L5.22138 14.4778L5.22724 14.4734L4.63158 13.6702ZM3.02965 13.7509L2.53118 14.6178L2.53757 14.6215L2.54401 14.625L3.02965 13.7509ZM2.52526 13.2384L3.39942 12.7528L3.39942 12.7528L2.52526 13.2384ZM5.96202 13.8033L5.48791 14.6838L5.49352 14.6868L5.96202 13.8033ZM5.54641 13.3998L4.67729 13.8946L4.68311 13.9045L5.54641 13.3998ZM5.55044 12.1772L6.41376 12.6819L6.41707 12.6762L5.55044 12.1772ZM5.97009 11.7696L6.4386 12.6531L6.4386 12.6531L5.97009 11.7696ZM7.16448 11.7696L6.69598 12.6531L6.69598 12.6531L7.16448 11.7696ZM7.58413 12.1772L6.71749 12.6762L6.72083 12.6819L7.58413 12.1772ZM7.58009 13.3998L6.71916 12.8911L6.7168 12.8951L7.58009 13.3998ZM7.15641 13.8033L6.69338 12.917L6.68791 12.9199L7.15641 13.8033ZM6.89413 13.2021L6.17713 12.505L6.17209 12.5102L6.16712 12.5155L6.89413 13.2021ZM6.89816 12.3709L6.16101 13.0466L6.16604 13.0521L6.17115 13.0575L6.89816 12.3709ZM6.23237 12.3709L6.96004 13.057L6.96953 13.0466L6.23237 12.3709ZM6.22834 13.2021L5.48093 13.8665L5.48601 13.8722L5.49118 13.8778L6.22834 13.2021ZM8.09545 12.1732L7.20372 11.7204L7.19828 11.7315L8.09545 12.1732ZM8.45457 11.7696L8.98457 12.6176L8.98457 12.6176L8.45457 11.7696ZM9.36247 11.7212L8.90734 12.6117L8.91525 12.6157L9.36247 11.7212ZM9.65299 11.9714L8.82094 12.5261L10.653 15.2742V11.9714H9.65299ZM9.65299 10.9263V9.92632H8.65299V10.9263H9.65299ZM10.343 10.9263H11.343V9.92632H10.343V10.9263ZM10.343 13.9123V14.9123H11.343V13.9123H10.343ZM9.65299 13.9123H8.65299V14.9123H9.65299V13.9123ZM9.65299 13.5895H10.653V9.97916L8.7955 13.075L9.65299 13.5895ZM9.37457 13.8477L8.90396 12.9653L8.89572 12.9698L9.37457 13.8477ZM8.45457 13.8033L7.91377 14.6446L7.92457 14.6513L8.45457 13.8033ZM8.09545 13.3958L7.19564 13.8321L7.19963 13.8403L7.20378 13.8485L8.09545 13.3958ZM9.50773 12.3789L8.78119 13.0662L8.791 13.0763L9.50773 12.3789ZM8.80966 12.3789L8.09293 11.6816L8.09267 11.6819L8.80966 12.3789ZM8.80966 13.194L8.07412 13.8715L8.08339 13.8816L8.09293 13.8914L8.80966 13.194ZM9.50773 13.194L8.79093 12.4966L8.78126 12.5068L9.50773 13.194ZM12.8476 11.8947L12.1066 12.5663L12.1119 12.572L12.8476 11.8947ZM13.0817 13.9123V14.9123H14.0817V13.9123H13.0817ZM12.3957 13.9123H11.3957V14.9123H12.3957V13.9123ZM12.2787 12.3386L11.5484 13.0218L11.5484 13.0218L12.2787 12.3386ZM11.6492 12.3386L12.3795 13.0218L12.3795 13.0218L11.6492 12.3386ZM11.5322 13.9123V14.9123H12.5322V13.9123H11.5322ZM10.8422 13.9123H9.84218V14.9123H10.8422V13.9123ZM10.8422 10.9263V9.92632H9.84218V10.9263H10.8422ZM11.5322 10.9263H12.5322V9.92632H11.5322V10.9263ZM11.5322 11.9633H10.5322V15.1257L12.3504 12.5383L11.5322 11.9633ZM11.8187 11.7253L11.3795 10.8269L11.3795 10.8269L11.8187 11.7253ZM15.6715 12.9519V13.9519H16.5627L16.6649 13.0666L15.6715 12.9519ZM14.1099 12.9519V11.9519H13.03L13.1129 13.0286L14.1099 12.9519ZM14.2431 13.2747L13.5485 13.9941L13.5611 14.0063L13.5741 14.018L14.2431 13.2747ZM14.8967 13.1658V12.1658H14.2577L13.9893 12.7457L14.8967 13.1658ZM15.6311 13.1658L16.6002 13.4125L16.9176 12.1658H15.6311V13.1658ZM15.4253 13.5653L14.6599 12.9216L14.6514 12.932L15.4253 13.5653ZM15.0582 13.8437L15.472 14.7541L15.472 14.7541L15.0582 13.8437ZM13.9727 13.8033L13.4929 14.6807L13.4929 14.6807L13.9727 13.8033ZM13.5692 13.3998L14.444 12.9153L14.444 12.9153L13.5692 13.3998ZM13.5652 12.1732L12.6903 11.6886L12.6847 11.6991L13.5652 12.1732ZM13.9687 11.7696L14.4485 12.647L14.4485 12.647L13.9687 11.7696ZM15.1429 11.7656L14.668 12.6456L14.668 12.6456L15.1429 11.7656ZM15.5383 12.157L14.6641 12.6427L14.6701 12.6532L15.5383 12.157ZM14.9774 12.5686V13.5686H15.9774V12.5686H14.9774ZM14.8564 12.2861L15.5113 11.5305L15.5113 11.5305L14.8564 12.2861ZM14.2592 12.2821L13.619 11.5139L13.6126 11.5192L13.6063 11.5247L14.2592 12.2821ZM14.1139 12.5686L13.1253 12.4182L12.9503 13.5686H14.1139V12.5686ZM18.2709 11.6607H19.2709V10.6607H18.2709V11.6607ZM18.2709 13.9123V14.9123H19.2709V13.9123H18.2709ZM17.5809 13.9123H16.5809V14.9123H17.5809V13.9123ZM17.5809 13.6056H18.5809V10.4432L16.7627 13.0307L17.5809 13.6056ZM17.2944 13.8477L17.7417 14.7422L17.7496 14.7382L17.2944 13.8477ZM16.443 13.8235L15.9337 14.6841L15.9403 14.688L15.9469 14.6918L16.443 13.8235ZM16.1364 13.4886L15.2419 13.9358L15.2419 13.9358L16.1364 13.4886ZM16.0274 11.6607V10.6607H15.0274V11.6607H16.0274ZM16.7134 11.6607H17.7134V10.6607H16.7134V11.6607ZM16.8304 13.2344L16.1001 13.9175L16.1001 13.9175L16.8304 13.2344ZM17.5809 11.6607V10.6607H16.5809V11.6607H17.5809ZM19.4566 12.036H18.4566V15.3999L20.2942 12.5822L19.4566 12.036ZM19.7592 11.7454L20.2595 12.6113L20.2666 12.6072L20.2737 12.6029L19.7592 11.7454ZM20.1627 11.6365H21.1627V10.6365H20.1627V11.6365ZM20.1627 12.3668V13.3668H21.1627V12.3668H20.1627ZM19.5857 12.4798L20.2305 13.2441L20.2374 13.2383L20.2442 13.2324L19.5857 12.4798ZM19.4566 13.9123V14.9123H20.4566V13.9123H19.4566ZM18.7666 13.9123H17.7666V14.9123H18.7666V13.9123ZM18.7666 11.6607V10.6607H17.7666V11.6607H18.7666ZM19.4566 11.6607H20.4566V10.6607H19.4566V11.6607ZM22.6029 12.9519V13.9519H23.4941L23.5963 13.0666L22.6029 12.9519ZM21.0413 12.9519V11.9519H19.9614L20.0442 13.0286L21.0413 12.9519ZM21.1744 13.2747L20.4798 13.9941L20.4924 14.0063L20.5055 14.018L21.1744 13.2747ZM21.8281 13.1658V12.1658H21.1891L20.9206 12.7457L21.8281 13.1658ZM22.5625 13.1658L23.5316 13.4125L23.8489 12.1658H22.5625V13.1658ZM22.3567 13.5653L21.5913 12.9216L21.5828 12.932L22.3567 13.5653ZM21.9895 13.8437L22.4033 14.7541L22.4033 14.7541L21.9895 13.8437ZM20.9041 13.8033L20.4243 14.6807L20.4243 14.6807L20.9041 13.8033ZM20.5006 13.3998L21.3754 12.9153L21.3754 12.9153L20.5006 13.3998ZM20.4965 12.1732L19.6217 11.6886L19.6161 11.6991L20.4965 12.1732ZM20.9 11.7696L21.3799 12.647L21.3799 12.647L20.9 11.7696ZM22.0743 11.7656L21.5993 12.6456L21.5993 12.6456L22.0743 11.7656ZM22.4697 12.157L21.5955 12.6427L21.6014 12.6532L22.4697 12.157ZM21.9088 12.5686V13.5686H22.9088V12.5686H21.9088ZM21.7878 12.2861L22.4427 11.5305L22.4427 11.5305L21.7878 12.2861ZM21.1906 12.2821L20.5504 11.5139L20.544 11.5192L20.5376 11.5247L21.1906 12.2821ZM21.0453 12.5686L20.0567 12.4182L19.8816 13.5686H21.0453V12.5686ZM23 12.5C23 18.299 18.299 23 12.5 23V25C19.4036 25 25 19.4036 25 12.5H23ZM12.5 23C6.70101 23 2 18.299 2 12.5H0C0 19.4036 5.59644 25 12.5 25V23ZM2 12.5C2 6.70101 6.70101 2 12.5 2V0C5.59644 0 0 5.59644 0 12.5H2ZM12.5 2C18.299 2 23 6.70101 23 12.5H25C25 5.59644 19.4036 0 12.5 0V2ZM3.34368 12.4919C3.34368 12.3609 3.37061 12.2829 3.39942 12.2311L1.65111 11.2598C1.43782 11.6437 1.34368 12.0634 1.34368 12.4919H3.34368ZM3.40193 12.2265C3.43496 12.1663 3.47067 12.1323 3.51991 12.1046L2.53939 10.3614C2.15822 10.5758 1.85767 10.8834 1.6486 11.2643L3.40193 12.2265ZM3.52347 12.1025C3.57679 12.0723 3.64992 12.0474 3.76807 12.0474V10.0474C3.33745 10.0474 2.9183 10.1462 2.53582 10.3634L3.52347 12.1025ZM3.76807 12.0474C3.91857 12.0474 3.99057 12.0833 4.03592 12.1169L5.22724 10.5104C4.79376 10.189 4.29008 10.0474 3.76807 10.0474V12.0474ZM4.03592 12.1169C4.08062 12.1501 4.11785 12.1926 4.14468 12.2945L6.07883 11.7855C5.94425 11.2741 5.66137 10.8324 5.22724 10.5104L4.03592 12.1169ZM5.11175 11.04H4.35316V13.04H5.11175V11.04ZM5.25564 11.6093C5.12033 11.3258 4.90868 11.0791 4.61904 10.9083L3.60307 12.631C3.56764 12.6101 3.53398 12.5828 3.50531 12.5508C3.47707 12.5192 3.46 12.4903 3.45068 12.4707L5.25564 11.6093ZM4.62886 10.9141C4.35465 10.7482 4.05496 10.6768 3.76 10.6768V12.6768C3.74724 12.6768 3.72298 12.6753 3.69103 12.6668C3.65849 12.6582 3.62485 12.6443 3.59325 12.6251L4.62886 10.9141ZM3.76 10.6768C3.28555 10.6768 2.83338 10.8558 2.49685 11.2336L3.99017 12.564C3.96446 12.5928 3.9223 12.627 3.86628 12.6511C3.81198 12.6744 3.77133 12.6768 3.76 12.6768V10.6768ZM2.49685 11.2336C2.16409 11.6071 2.04579 12.0626 2.04579 12.4919H4.04579C4.04579 12.4561 4.05062 12.4541 4.0439 12.4743C4.04048 12.4845 4.03458 12.4989 4.02504 12.5156C4.01544 12.5324 4.00365 12.5488 3.99017 12.564L2.49685 11.2336ZM2.04579 12.4919C2.04579 12.9213 2.16409 13.3768 2.49685 13.7503L3.99017 12.4199C4.00365 12.435 4.01544 12.4515 4.02504 12.4683C4.03458 12.485 4.04048 12.4993 4.0439 12.5096C4.05062 12.5298 4.04579 12.5278 4.04579 12.4919H2.04579ZM2.49685 13.7503C2.83338 14.128 3.28555 14.307 3.76 14.307V12.307C3.77133 12.307 3.81198 12.3094 3.86627 12.3328C3.9223 12.3568 3.96446 12.391 3.99017 12.4199L2.49685 13.7503ZM3.76 14.307C4.05496 14.307 4.35465 14.2357 4.62886 14.0697L3.59325 12.3587C3.62485 12.3396 3.65849 12.3256 3.69104 12.317C3.72298 12.3086 3.74724 12.307 3.76 12.307V14.307ZM4.61904 14.0756C4.90868 13.9048 5.12033 13.6581 5.25564 13.3746L3.45068 12.5131C3.46 12.4936 3.47707 12.4646 3.50531 12.4331C3.53398 12.4011 3.56764 12.3737 3.60307 12.3528L4.61904 14.0756ZM4.35316 13.9439H5.11175V11.9439H4.35316V13.9439ZM4.14468 12.6894C4.11785 12.7913 4.08062 12.8338 4.03592 12.8669L5.22724 14.4734C5.66137 14.1515 5.94425 13.7097 6.07883 13.1984L4.14468 12.6894ZM4.04179 12.8626C3.9961 12.896 3.92198 12.9325 3.76807 12.9325V14.9325C4.28668 14.9325 4.78822 14.7941 5.22137 14.4777L4.04179 12.8626ZM3.76807 12.9325C3.6461 12.9325 3.57002 12.9071 3.51529 12.8767L2.54401 14.625C2.92507 14.8367 3.34127 14.9325 3.76807 14.9325V12.9325ZM3.52812 12.884C3.47114 12.8512 3.4326 12.8125 3.39942 12.7528L1.65111 13.7241C1.86003 14.1001 2.15775 14.4031 2.53118 14.6178L3.52812 12.884ZM3.39942 12.7528C3.3706 12.7009 3.34368 12.6229 3.34368 12.4919H1.34368C1.34368 12.9205 1.43782 13.3401 1.65111 13.7241L3.39942 12.7528ZM6.55922 12.9446C6.4857 12.9446 6.45004 12.9302 6.43053 12.9199L5.49352 14.6868C5.82909 14.8648 6.19156 14.9446 6.55922 14.9446V12.9446ZM6.43612 12.9229C6.42769 12.9183 6.42468 12.9154 6.42356 12.9144C6.42235 12.9132 6.41737 12.9082 6.40971 12.8951L4.68311 13.9045C4.87613 14.2347 5.14792 14.5007 5.48792 14.6838L6.43612 12.9229ZM6.41547 12.9051C6.41486 12.9041 6.39711 12.8756 6.39711 12.7865H4.39711C4.39711 13.1654 4.47889 13.5459 4.67734 13.8945L6.41547 12.9051ZM6.39711 12.7865C6.39711 12.7069 6.41316 12.6829 6.41374 12.6819L4.68715 11.6725C4.48328 12.0212 4.39711 12.4034 4.39711 12.7865H6.39711ZM6.41707 12.6762C6.42427 12.6636 6.42855 12.6597 6.42871 12.6595C6.42912 12.6591 6.42967 12.6586 6.43074 12.6579C6.43183 12.6571 6.43425 12.6554 6.4386 12.6531L5.50159 10.8862C5.15443 11.0703 4.878 11.341 4.68382 11.6782L6.41707 12.6762ZM6.4386 12.6531C6.45811 12.6428 6.49377 12.6284 6.56729 12.6284V10.6284C6.19964 10.6284 5.83717 10.7082 5.50159 10.8862L6.4386 12.6531ZM6.56729 12.6284C6.64081 12.6284 6.67646 12.6428 6.69598 12.6531L7.63298 10.8862C7.29741 10.7082 6.93494 10.6284 6.56729 10.6284V12.6284ZM6.69598 12.6531C6.70032 12.6554 6.70275 12.6571 6.70383 12.6579C6.7049 12.6586 6.70546 12.6591 6.70587 12.6595C6.70602 12.6597 6.7103 12.6636 6.71751 12.6762L8.45075 11.6782C8.25657 11.341 7.98014 11.0703 7.63298 10.8862L6.69598 12.6531ZM6.72083 12.6819C6.72141 12.6829 6.73746 12.7069 6.73746 12.7865H8.73746C8.73746 12.4034 8.65129 12.0212 8.44743 11.6725L6.72083 12.6819ZM6.73746 12.7865C6.73746 12.8612 6.72231 12.8858 6.71917 12.8911L8.44102 13.9086C8.6477 13.5588 8.73746 13.1745 8.73746 12.7865H6.73746ZM6.7168 12.8951C6.71375 12.9003 6.71149 12.9034 6.71027 12.905C6.70907 12.9065 6.7083 12.9073 6.70785 12.9077C6.70768 12.9079 6.7043 12.9113 6.69339 12.917L7.61943 14.6897C7.96561 14.5088 8.24588 14.2424 8.44339 13.9045L6.7168 12.8951ZM6.68791 12.9199C6.66839 12.9302 6.63273 12.9446 6.55922 12.9446V14.9446C6.92687 14.9446 7.28934 14.8648 7.62491 14.6868L6.68791 12.9199ZM6.55922 14.3474C6.96944 14.3474 7.34303 14.1832 7.62114 13.8887L6.16712 12.5155C6.20547 12.4749 6.2642 12.4282 6.34389 12.3936C6.4238 12.359 6.49974 12.3474 6.55922 12.3474V14.3474ZM7.61112 13.8992C7.94082 13.5601 8.03536 13.1375 8.03536 12.7865H6.03536C6.03536 12.7916 6.03448 12.759 6.05322 12.7038C6.07342 12.6444 6.11225 12.5718 6.17713 12.505L7.61112 13.8992ZM8.03536 12.7865C8.03536 12.4428 7.94622 12.0242 7.62518 11.6843L6.17115 13.0575C6.03303 12.9113 6.03536 12.7697 6.03536 12.7865H8.03536ZM7.63532 11.6952C7.35641 11.3909 6.97833 11.2256 6.56729 11.2256V13.2256C6.50797 13.2256 6.42997 13.2141 6.34688 13.1776C6.26371 13.1411 6.20188 13.0912 6.16101 13.0466L7.63532 11.6952ZM6.56729 11.2256C6.16007 11.2256 5.77847 11.3862 5.49522 11.6952L6.96953 13.0466C6.9267 13.0933 6.86357 13.1434 6.7806 13.1794C6.69818 13.2151 6.62244 13.2256 6.56729 13.2256V11.2256ZM5.50478 11.6849C5.17995 12.0294 5.09922 12.4543 5.09922 12.7865H7.09922C7.09922 12.7529 7.10725 12.9007 6.95996 13.0569L5.50478 11.6849ZM5.09922 12.7865C5.09922 13.1159 5.17813 13.5258 5.48093 13.8665L6.97575 12.5377C7.10638 12.6847 7.09922 12.8176 7.09922 12.7865H5.09922ZM5.49118 13.8778C5.77009 14.1821 6.14817 14.3474 6.55922 14.3474V12.3474C6.61854 12.3474 6.69654 12.3589 6.77963 12.3954C6.8628 12.4319 6.92462 12.4818 6.96549 12.5264L5.49118 13.8778ZM8.96633 12.7825C8.96633 12.6759 8.98571 12.6289 8.99262 12.6148L7.19828 11.7315C7.03303 12.0671 6.96633 12.4264 6.96633 12.7825H8.96633ZM8.98712 12.6259C8.99603 12.6083 9.00092 12.6036 8.99881 12.606C8.9979 12.607 8.99601 12.609 8.99316 12.6114C8.99031 12.6138 8.98733 12.6159 8.98457 12.6176L7.92457 10.9217C7.60395 11.122 7.3661 11.4008 7.20378 11.7205L8.98712 12.6259ZM8.98457 12.6176C8.98297 12.6187 8.98002 12.6203 8.9759 12.6221C8.97176 12.624 8.96743 12.6255 8.96328 12.6267C8.95421 12.6292 8.95155 12.6284 8.95896 12.6284V10.6284C8.59474 10.6284 8.24147 10.7236 7.92457 10.9217L8.98457 12.6176ZM8.95896 12.6284C8.96288 12.6284 8.95799 12.6288 8.94665 12.6262C8.93498 12.6235 8.92118 12.6187 8.90736 12.6117L9.81758 10.8308C9.54346 10.6907 9.25089 10.6284 8.95896 10.6284V12.6284ZM8.91525 12.6157C8.90935 12.6127 8.89441 12.6043 8.87538 12.5879C8.85597 12.5712 8.83701 12.5502 8.82094 12.5261L10.485 11.4167C10.3094 11.1532 10.0735 10.9587 9.80968 10.8268L8.91525 12.6157ZM10.653 11.9714V10.9263H8.65299V11.9714H10.653ZM9.65299 11.9263H10.343V9.92632H9.65299V11.9263ZM9.34299 10.9263V13.9123H11.343V10.9263H9.34299ZM10.343 12.9123H9.65299V14.9123H10.343V12.9123ZM10.653 13.9123V13.5895H8.65299V13.9123H10.653ZM8.7955 13.075C8.81219 13.0472 8.83277 13.0221 8.85492 13.0016C8.87667 12.9814 8.89487 12.9702 8.90398 12.9654L9.84516 14.7301C10.1107 14.5884 10.3441 14.3813 10.5105 14.104L8.7955 13.075ZM8.89572 12.9698C8.92004 12.9566 8.94115 12.9497 8.95497 12.9464C8.96809 12.9434 8.97059 12.9446 8.95896 12.9446V14.9446C9.25528 14.9446 9.56413 14.8834 9.85343 14.7256L8.89572 12.9698ZM8.95896 12.9446C8.95156 12.9446 8.95422 12.9438 8.96328 12.9463C8.96744 12.9475 8.97176 12.949 8.9759 12.9508C8.98002 12.9527 8.98297 12.9543 8.98457 12.9553L7.92457 14.6513C8.24146 14.8494 8.59474 14.9446 8.95896 14.9446V12.9446ZM8.99533 12.9622C8.99659 12.963 8.99817 12.9641 8.99973 12.9655C9.00129 12.9668 9.00209 12.9677 9.00208 12.9677C9.00205 12.9676 9.00068 12.9661 8.99822 12.9624C8.99573 12.9587 8.99189 12.9525 8.98712 12.9431L7.20378 13.8485C7.36509 14.1662 7.59981 14.4427 7.91381 14.6445L8.99533 12.9622ZM8.99526 12.9595C8.98556 12.9395 8.96633 12.8886 8.96633 12.7825H6.96633C6.96633 13.139 7.03317 13.497 7.19564 13.8321L8.99526 12.9595ZM10.653 12.7865C10.653 12.4197 10.5442 12.0102 10.2245 11.6816L8.791 13.0763C8.73537 13.0191 8.69684 12.9533 8.67473 12.8912C8.65389 12.8328 8.65299 12.7932 8.65299 12.7865H10.653ZM10.2342 11.6917C9.95088 11.3922 9.57233 11.2296 9.16071 11.2296V13.2296C9.10568 13.2296 9.03295 13.219 8.95516 13.1856C8.87733 13.1521 8.8194 13.1065 8.78126 13.0661L10.2342 11.6917ZM9.16071 11.2296C8.74985 11.2296 8.37544 11.3912 8.09293 11.6816L9.52639 13.0763C9.49081 13.1129 9.43592 13.1555 9.36142 13.1872C9.28666 13.219 9.21588 13.2296 9.16071 13.2296V11.2296ZM8.09267 11.6819C7.77088 12.0128 7.66843 12.4247 7.66843 12.7825H9.66843C9.66843 12.7862 9.66804 12.8244 9.6476 12.8828C9.62579 12.9451 9.58653 13.0144 9.52666 13.076L8.09267 11.6819ZM7.66843 12.7825C7.66843 13.1429 7.77172 13.5432 8.07412 13.8715L9.54521 12.5166C9.596 12.5717 9.63022 12.6334 9.6496 12.6899C9.6679 12.7432 9.66843 12.7782 9.66843 12.7825H7.66843ZM8.09293 13.8914C8.37544 14.1817 8.74985 14.3433 9.16071 14.3433V12.3433C9.21588 12.3433 9.28666 12.354 9.36142 12.3858C9.43592 12.4175 9.49081 12.4601 9.52639 12.4967L8.09293 13.8914ZM9.16071 14.3433C9.57234 14.3433 9.95088 14.1807 10.2342 13.8812L8.78126 12.5068C8.8194 12.4665 8.87733 12.4209 8.95515 12.3874C9.03295 12.3539 9.10568 12.3433 9.16071 12.3433V14.3433ZM10.2245 13.8914C10.5442 13.5628 10.653 13.1533 10.653 12.7865H8.65299C8.65299 12.7797 8.65389 12.7402 8.67473 12.6818C8.69684 12.6197 8.73537 12.5539 8.791 12.4967L10.2245 13.8914ZM12.2262 12.6365C12.2434 12.6365 12.2265 12.6391 12.1915 12.6245C12.1539 12.6089 12.124 12.5854 12.1066 12.5663L13.5886 11.2232C13.2207 10.8173 12.7317 10.6365 12.2262 10.6365V12.6365ZM12.1119 12.572C12.1009 12.5601 12.0918 12.5475 12.085 12.5357C12.0782 12.524 12.0752 12.5159 12.0745 12.5136C12.0732 12.5098 12.0817 12.5332 12.0817 12.5968H14.0817C14.0817 12.1239 13.9549 11.621 13.5833 11.2174L12.1119 12.572ZM12.0817 12.5968V13.9123H14.0817V12.5968H12.0817ZM13.0817 12.9123H12.3957V14.9123H13.0817V12.9123ZM13.3957 13.9123V12.6896H11.3957V13.9123H13.3957ZM13.3957 12.6896C13.3957 12.3684 13.3097 11.977 13.0089 11.6554L11.5484 13.0218C11.4036 12.867 11.3957 12.7096 11.3957 12.6896H13.3957ZM13.0089 11.6554C12.7121 11.3381 12.3258 11.2135 11.9639 11.2135V13.2135C11.9242 13.2135 11.8552 13.2071 11.7721 13.1741C11.686 13.1398 11.6089 13.0864 11.5484 13.0218L13.0089 11.6554ZM11.9639 11.2135C11.6021 11.2135 11.2158 11.3381 10.9189 11.6554L12.3795 13.0218C12.319 13.0864 12.2419 13.1398 12.1557 13.1741C12.0727 13.2071 12.0036 13.2135 11.9639 13.2135V11.2135ZM10.9189 11.6554C10.6181 11.977 10.5322 12.3684 10.5322 12.6896H12.5322C12.5322 12.7096 12.5242 12.867 12.3795 13.0218L10.9189 11.6554ZM10.5322 12.6896V13.9123H12.5322V12.6896H10.5322ZM11.5322 12.9123H10.8422V14.9123H11.5322V12.9123ZM11.8422 13.9123V10.9263H9.84218V13.9123H11.8422ZM10.8422 11.9263H11.5322V9.92632H10.8422V11.9263ZM10.5322 10.9263V11.9633H12.5322V10.9263H10.5322ZM12.3504 12.5383C12.3334 12.5624 12.3142 12.5826 12.2954 12.5983C12.2769 12.6136 12.2629 12.6212 12.2579 12.6236L11.3795 10.8269C11.1235 10.952 10.8911 11.1364 10.714 11.3884L12.3504 12.5383ZM12.2579 12.6236C12.2441 12.6304 12.2321 12.634 12.2242 12.6358C12.2166 12.6374 12.2165 12.6365 12.2262 12.6365V10.6365C11.9415 10.6365 11.6527 10.6933 11.3795 10.8269L12.2579 12.6236ZM14.6836 12.7502C14.6836 12.7732 14.6821 12.802 14.6781 12.8373L16.6649 13.0666C16.677 12.9619 16.6836 12.8563 16.6836 12.7502H14.6836ZM15.6715 11.9519H14.1099V13.9519H15.6715V11.9519ZM13.1129 13.0286C13.1367 13.339 13.2477 13.7037 13.5485 13.9941L14.9377 12.5553C15.0824 12.6951 15.1046 12.8446 15.107 12.8752L13.1129 13.0286ZM13.5741 14.018C13.8511 14.2673 14.1925 14.3837 14.5376 14.3837V12.3837C14.5858 12.3837 14.6511 12.3915 14.7241 12.4185C14.7981 12.4459 14.8619 12.4863 14.912 12.5314L13.5741 14.018ZM14.5376 14.3837C14.7647 14.3837 15.0267 14.335 15.2753 14.1842C15.5285 14.0305 15.6994 13.8123 15.8042 13.5859L13.9893 12.7457C14.0268 12.6646 14.1043 12.5553 14.2378 12.4743C14.3667 12.3961 14.4827 12.3837 14.5376 12.3837V14.3837ZM14.8967 14.1658H15.6311V12.1658H14.8967V14.1658ZM14.662 12.9191C14.6615 12.9213 14.6615 12.9205 14.6625 12.9187C14.6634 12.9168 14.6633 12.9177 14.66 12.9217L16.1907 14.2089C16.3859 13.9768 16.5249 13.7083 16.6002 13.4125L14.662 12.9191ZM14.6514 12.932C14.6521 12.9312 14.653 12.9301 14.6542 12.929C14.6554 12.9279 14.6563 12.9271 14.6567 12.9268C14.6579 12.9259 14.6547 12.9286 14.6443 12.9333L15.472 14.7541C15.7507 14.6274 15.9992 14.4431 16.1993 14.1985L14.6514 12.932ZM14.6443 12.9333C14.6418 12.9345 14.62 12.9446 14.5618 12.9446V14.9446C14.8695 14.9446 15.1786 14.8874 15.472 14.7541L14.6443 12.9333ZM14.5618 12.9446C14.4878 12.9446 14.4601 12.9301 14.4525 12.926L13.4929 14.6807C13.8297 14.8649 14.1947 14.9446 14.5618 14.9446V12.9446ZM14.4525 12.926C14.4509 12.9251 14.4499 12.9244 14.4493 12.9241C14.449 12.9239 14.4487 12.9237 14.4486 12.9236C14.4485 12.9235 14.4484 12.9235 14.4484 12.9235C14.4484 12.9235 14.4484 12.9235 14.4484 12.9235C14.4485 12.9235 14.4485 12.9235 14.4485 12.9236C14.4486 12.9237 14.4488 12.9238 14.4489 12.9239C14.4492 12.9241 14.4495 12.9244 14.4498 12.9247C14.4505 12.9254 14.4505 12.9255 14.4497 12.9245C14.449 12.9235 14.4469 12.9207 14.444 12.9153L12.6944 13.8843C12.8812 14.2216 13.1513 14.4939 13.4929 14.6807L14.4525 12.926ZM14.444 12.9153C14.4423 12.9123 14.4239 12.8801 14.4239 12.7865H12.4239C12.4239 13.1609 12.5024 13.5377 12.6944 13.8843L14.444 12.9153ZM14.4239 12.7865C14.4239 12.6884 14.4429 12.6524 14.4456 12.6473L12.6847 11.6991C12.4992 12.0436 12.4239 12.4165 12.4239 12.7865H14.4239ZM14.44 12.6577C14.4429 12.6523 14.4449 12.6495 14.4457 12.6485C14.4464 12.6475 14.4465 12.6476 14.4458 12.6482C14.4455 12.6485 14.4452 12.6488 14.4449 12.6491C14.4447 12.6492 14.4446 12.6493 14.4445 12.6494C14.4444 12.6495 14.4444 12.6495 14.4444 12.6495C14.4444 12.6495 14.4444 12.6495 14.4446 12.6494C14.4447 12.6493 14.4449 12.6491 14.4452 12.6489C14.4458 12.6485 14.4469 12.6479 14.4485 12.647L13.4889 10.8923C13.1472 11.0791 12.8772 11.3513 12.6904 11.6887L14.44 12.6577ZM14.4485 12.647C14.4543 12.6439 14.4828 12.6284 14.5618 12.6284V10.6284C14.1943 10.6284 13.8274 10.7071 13.4889 10.8923L14.4485 12.647ZM14.5618 12.6284C14.636 12.6284 14.6627 12.6428 14.668 12.6456L15.6178 10.8856C15.2842 10.7055 14.9235 10.6284 14.5618 10.6284V12.6284ZM14.668 12.6456C14.6704 12.647 14.6709 12.6474 14.6699 12.6467C14.6688 12.6459 14.6672 12.6446 14.6654 12.6428C14.6636 12.641 14.6624 12.6396 14.6619 12.6389C14.6615 12.6384 14.6623 12.6394 14.6642 12.6427L16.4125 11.6714C16.2263 11.3362 15.9565 11.0684 15.6178 10.8856L14.668 12.6456ZM14.6701 12.6532C14.6703 12.6536 14.673 12.658 14.676 12.6703C14.6792 12.6833 14.6836 12.7087 14.6836 12.7502H16.6836C16.6836 12.3779 16.6025 12.0038 16.4066 11.6609L14.6701 12.6532ZM15.9774 12.5686C15.9774 12.1955 15.8365 11.8123 15.5113 11.5305L14.2015 13.0418C14.1325 12.9821 14.07 12.901 14.028 12.8031C13.9872 12.7079 13.9774 12.624 13.9774 12.5686H15.9774ZM15.5113 11.5305C15.2245 11.2819 14.8812 11.1812 14.5538 11.1812V13.1812C14.5175 13.1812 14.4606 13.1759 14.3927 13.1523C14.3229 13.1281 14.2572 13.0901 14.2015 13.0418L15.5113 11.5305ZM14.5538 11.1812C14.2295 11.1812 13.898 11.2814 13.619 11.5139L14.8994 13.0503C14.8472 13.0938 14.7851 13.1293 14.7174 13.1525C14.651 13.1753 14.5936 13.1812 14.5538 13.1812V11.1812ZM13.6063 11.5247C13.3107 11.7795 13.172 12.1114 13.1253 12.4182L15.1026 12.719C15.0986 12.7449 15.0875 12.7949 15.0563 12.8564C15.0239 12.9203 14.9758 12.9846 14.9121 13.0395L13.6063 11.5247ZM14.1139 13.5686H14.9774V11.5686H14.1139V13.5686ZM17.2709 11.6607V13.9123H19.2709V11.6607H17.2709ZM18.2709 12.9123H17.5809V14.9123H18.2709V12.9123ZM18.5809 13.9123V13.6056H16.5809V13.9123H18.5809ZM16.7627 13.0307C16.7784 13.0084 16.7955 12.9904 16.8114 12.977C16.8269 12.9639 16.8376 12.9581 16.8393 12.9573L17.7496 14.7382C17.9982 14.6111 18.2251 14.4283 18.3991 14.1806L16.7627 13.0307ZM16.8472 12.9533C16.862 12.9459 16.8763 12.9412 16.8878 12.9386C16.8989 12.9361 16.9034 12.9365 16.899 12.9365V14.9365C17.1841 14.9365 17.4713 14.8773 17.7417 14.7421L16.8472 12.9533ZM16.899 12.9365C16.886 12.9365 16.8864 12.9351 16.8964 12.9376C16.9071 12.9403 16.9225 12.9457 16.9392 12.9553L15.9469 14.6918C16.2492 14.8645 16.5765 14.9365 16.899 14.9365V12.9365ZM16.9524 12.9629C16.9702 12.9735 16.9888 12.9882 17.005 13.006C17.0209 13.0233 17.0287 13.0371 17.0308 13.0414L15.2419 13.9358C15.3951 14.2421 15.6263 14.5021 15.9337 14.6841L16.9524 12.9629ZM17.0308 13.0414C17.0406 13.0611 17.0274 13.0493 17.0274 12.9761H15.0274C15.0274 13.2957 15.0868 13.6256 15.2419 13.9358L17.0308 13.0414ZM17.0274 12.9761V11.6607H15.0274V12.9761H17.0274ZM16.0274 12.6607H16.7134V10.6607H16.0274V12.6607ZM15.7134 11.6607V12.8833H17.7134V11.6607H15.7134ZM15.7134 12.8833C15.7134 13.2045 15.7993 13.596 16.1001 13.9175L17.5607 12.5512C17.7055 12.706 17.7134 12.8634 17.7134 12.8833H15.7134ZM16.1001 13.9175C16.397 14.2349 16.7833 14.3595 17.1451 14.3595V12.3595C17.1848 12.3595 17.2539 12.3659 17.3369 12.3989C17.4231 12.4331 17.5002 12.4866 17.5607 12.5512L16.1001 13.9175ZM17.1451 14.3595C17.5029 14.3595 17.8934 14.2391 18.1942 13.9175L16.7336 12.5512C16.7963 12.4843 16.8749 12.4309 16.9604 12.3973C17.0424 12.3651 17.1093 12.3595 17.1451 12.3595V14.3595ZM18.1942 13.9175C18.495 13.596 18.5809 13.2045 18.5809 12.8833H16.5809C16.5809 12.8634 16.5889 12.706 16.7336 12.5512L18.1942 13.9175ZM18.5809 12.8833V11.6607H16.5809V12.8833H18.5809ZM17.5809 12.6607H18.2709V10.6607H17.5809V12.6607ZM20.2942 12.5822C20.2953 12.5805 20.2927 12.5848 20.2853 12.5919C20.2777 12.5992 20.2686 12.606 20.2595 12.6113L19.2589 10.8796C18.9942 11.0325 18.7804 11.2421 18.6189 11.4897L20.2942 12.5822ZM20.2737 12.6029C20.2561 12.6135 20.2346 12.6229 20.2115 12.6292C20.1887 12.6353 20.1713 12.6365 20.1627 12.6365V10.6365C19.8426 10.6365 19.5288 10.7175 19.2447 10.8879L20.2737 12.6029ZM19.1627 11.6365V12.3668H21.1627V11.6365H19.1627ZM20.1627 11.3668H19.973V13.3668H20.1627V11.3668ZM19.973 11.3668C19.6771 11.3668 19.2684 11.4287 18.9272 11.7272L20.2442 13.2324C20.16 13.306 20.0779 13.3403 20.0271 13.3551C19.9794 13.369 19.9566 13.3668 19.973 13.3668V11.3668ZM18.9408 11.7155C18.5181 12.0722 18.4566 12.5733 18.4566 12.8672H20.4566C20.4566 12.8456 20.4598 12.8804 20.4375 12.9474C20.4131 13.0208 20.3548 13.1393 20.2305 13.2441L18.9408 11.7155ZM18.4566 12.8672V13.9123H20.4566V12.8672H18.4566ZM19.4566 12.9123H18.7666V14.9123H19.4566V12.9123ZM19.7666 13.9123V11.6607H17.7666V13.9123H19.7666ZM18.7666 12.6607H19.4566V10.6607H18.7666V12.6607ZM18.4566 11.6607V12.036H20.4566V11.6607H18.4566ZM21.615 12.7502C21.615 12.7732 21.6135 12.802 21.6094 12.8373L23.5963 13.0666C23.6083 12.9619 23.615 12.8563 23.615 12.7502H21.615ZM22.6029 11.9519H21.0413V13.9519H22.6029V11.9519ZM20.0442 13.0286C20.0681 13.339 20.1791 13.7037 20.4798 13.9941L21.869 12.5553C22.0138 12.6951 22.036 12.8446 22.0383 12.8752L20.0442 13.0286ZM20.5055 14.018C20.7825 14.2673 21.1239 14.3837 21.469 14.3837V12.3837C21.5172 12.3837 21.5825 12.3915 21.6555 12.4185C21.7295 12.4459 21.7932 12.4863 21.8434 12.5314L20.5055 14.018ZM21.469 14.3837C21.6961 14.3837 21.9581 14.335 22.2066 14.1841C22.4599 14.0305 22.6308 13.8123 22.7356 13.5859L20.9206 12.7457C20.9582 12.6646 21.0356 12.5553 21.1692 12.4743C21.298 12.3961 21.4141 12.3837 21.469 12.3837V14.3837ZM21.8281 14.1658H22.5625V12.1658H21.8281V14.1658ZM21.5934 12.9191C21.5929 12.9213 21.5929 12.9205 21.5938 12.9187C21.5948 12.9168 21.5947 12.9177 21.5913 12.9217L23.1221 14.2089C23.3172 13.9768 23.4563 13.7083 23.5316 13.4125L21.5934 12.9191ZM21.5828 12.932C21.5834 12.9312 21.5844 12.9301 21.5856 12.929C21.5867 12.9279 21.5876 12.9271 21.5881 12.9268C21.5893 12.9259 21.5861 12.9286 21.5757 12.9333L22.4033 14.7541C22.682 14.6274 22.9306 14.4431 23.1307 14.1985L21.5828 12.932ZM21.5757 12.9333C21.5731 12.9345 21.5513 12.9446 21.4932 12.9446V14.9446C21.8009 14.9446 22.11 14.8874 22.4033 14.7541L21.5757 12.9333ZM21.4932 12.9446C21.4192 12.9446 21.3914 12.9301 21.3839 12.926L20.4243 14.6807C20.7611 14.8649 21.1261 14.9446 21.4932 14.9446V12.9446ZM21.3839 12.926C21.3823 12.9251 21.3812 12.9244 21.3806 12.9241C21.3803 12.9239 21.3801 12.9237 21.38 12.9236C21.3798 12.9235 21.3798 12.9235 21.3798 12.9235C21.3798 12.9235 21.3798 12.9235 21.3798 12.9235C21.3798 12.9235 21.3799 12.9235 21.3799 12.9236C21.38 12.9237 21.3801 12.9238 21.3803 12.9239C21.3806 12.9241 21.3809 12.9244 21.3812 12.9247C21.3819 12.9254 21.3818 12.9255 21.3811 12.9245C21.3803 12.9235 21.3783 12.9207 21.3754 12.9153L19.6258 13.8843C19.8126 14.2216 20.0826 14.4939 20.4243 14.6807L21.3839 12.926ZM21.3754 12.9153C21.3737 12.9123 21.3553 12.8801 21.3553 12.7865H19.3553C19.3553 13.1609 19.4338 13.5377 19.6258 13.8843L21.3754 12.9153ZM21.3553 12.7865C21.3553 12.6884 21.3742 12.6524 21.377 12.6473L19.6161 11.6991C19.4305 12.0436 19.3553 12.4165 19.3553 12.7865H21.3553ZM21.3713 12.6577C21.3743 12.6523 21.3763 12.6495 21.3771 12.6485C21.3778 12.6475 21.3778 12.6476 21.3772 12.6482C21.3769 12.6485 21.3765 12.6488 21.3762 12.6491C21.3761 12.6492 21.376 12.6493 21.3759 12.6494C21.3758 12.6494 21.3758 12.6495 21.3758 12.6495C21.3757 12.6495 21.3757 12.6495 21.3757 12.6495C21.3757 12.6495 21.3758 12.6495 21.3759 12.6494C21.3761 12.6493 21.3763 12.6491 21.3766 12.6489C21.3772 12.6485 21.3783 12.6479 21.3799 12.647L20.4202 10.8923C20.0786 11.0791 19.8086 11.3513 19.6217 11.6887L21.3713 12.6577ZM21.3799 12.647C21.3856 12.6439 21.4142 12.6284 21.4932 12.6284V10.6284C21.1256 10.6284 20.7588 10.7071 20.4202 10.8923L21.3799 12.647ZM21.4932 12.6284C21.5674 12.6284 21.594 12.6428 21.5993 12.6456L22.5492 10.8856C22.2155 10.7055 21.8548 10.6284 21.4932 10.6284V12.6284ZM21.5993 12.6456C21.6018 12.647 21.6022 12.6474 21.6012 12.6467C21.6002 12.6459 21.5986 12.6446 21.5967 12.6428C21.5949 12.641 21.5938 12.6396 21.5933 12.6389C21.5929 12.6384 21.5937 12.6394 21.5955 12.6427L23.3438 11.6714C23.1577 11.3362 22.8878 11.0684 22.5492 10.8856L21.5993 12.6456ZM21.6014 12.6532C21.6017 12.6536 21.6043 12.658 21.6073 12.6703C21.6105 12.6833 21.615 12.7087 21.615 12.7502H23.615C23.615 12.3779 23.5339 12.0038 23.3379 11.6609L21.6014 12.6532ZM22.9088 12.5686C22.9088 12.1955 22.7679 11.8123 22.4427 11.5305L21.1328 13.0418C21.0639 12.9821 21.0014 12.901 20.9594 12.8031C20.9186 12.7079 20.9088 12.624 20.9088 12.5686H22.9088ZM22.4427 11.5305C22.1559 11.2819 21.8125 11.1812 21.4851 11.1812V13.1812C21.4489 13.1812 21.392 13.1759 21.324 13.1523C21.2543 13.1281 21.1886 13.0901 21.1328 13.0418L22.4427 11.5305ZM21.4851 11.1812C21.1608 11.1812 20.8293 11.2814 20.5504 11.5139L21.8308 13.0503C21.7786 13.0938 21.7164 13.1293 21.6487 13.1525C21.5823 13.1753 21.525 13.1812 21.4851 13.1812V11.1812ZM20.5376 11.5247C20.2421 11.7795 20.1034 12.1114 20.0567 12.4182L22.0339 12.719C22.03 12.7449 22.0189 12.7949 21.9876 12.8564C21.9552 12.9203 21.9072 12.9846 21.8435 13.0395L20.5376 11.5247ZM21.0453 13.5686H21.9088V11.5686H21.0453V13.5686Z" fill="#E1E8EB" mask="url(#path-1-outside-1_315_558)"/>
</svg>
