<svg width="164" height="157" viewBox="0 0 164 157" fill="none" xmlns="http://www.w3.org/2000/svg">
<rect width="164" height="157" rx="5" fill="#4C40F6"/>
<g filter="url(#filter0_b_167_654)">
<rect width="164" height="157" rx="5" fill="url(#paint0_linear_167_654)"/>
<rect x="0.5" y="0.5" width="163" height="156" rx="4.5" stroke="url(#paint1_linear_167_654)"/>
</g>
<mask id="path-4-outside-1_167_654" maskUnits="userSpaceOnUse" x="34" y="30.5" width="96" height="96" fill="black">
<rect fill="white" x="34" y="30.5" width="96" height="96"/>
<path d="M127 78.5C127 103.353 106.853 123.5 82 123.5C57.1472 123.5 37 103.353 37 78.5C37 53.6472 57.1472 33.5 82 33.5C106.853 33.5 127 53.6472 127 78.5Z"/>
<path d="M42.2579 78.4684C42.2579 77.3737 42.4947 76.4 42.9684 75.5474C43.4421 74.6842 44.1 74.0158 44.9421 73.5421C45.7947 73.0579 46.7579 72.8158 47.8316 72.8158C49.1474 72.8158 50.2737 73.1632 51.2105 73.8579C52.1474 74.5526 52.7737 75.5 53.0895 76.7H50.1211C49.9 76.2368 49.5842 75.8842 49.1737 75.6421C48.7737 75.4 48.3158 75.2789 47.8 75.2789C46.9684 75.2789 46.2947 75.5684 45.7789 76.1474C45.2632 76.7263 45.0053 77.5 45.0053 78.4684C45.0053 79.4368 45.2632 80.2105 45.7789 80.7895C46.2947 81.3684 46.9684 81.6579 47.8 81.6579C48.3158 81.6579 48.7737 81.5368 49.1737 81.2947C49.5842 81.0526 49.9 80.7 50.1211 80.2368H53.0895C52.7737 81.4368 52.1474 82.3842 51.2105 83.0789C50.2737 83.7632 49.1474 84.1053 47.8316 84.1053C46.7579 84.1053 45.7947 83.8684 44.9421 83.3947C44.1 82.9105 43.4421 82.2421 42.9684 81.3895C42.4947 80.5368 42.2579 79.5632 42.2579 78.4684Z"/>
<path d="M58.7535 84.1526C57.8903 84.1526 57.1113 83.9684 56.4166 83.6C55.7324 83.2316 55.1903 82.7053 54.7903 82.0211C54.4008 81.3368 54.2061 80.5368 54.2061 79.6211C54.2061 78.7158 54.4061 77.9211 54.8061 77.2368C55.2061 76.5421 55.7535 76.0105 56.4482 75.6421C57.1429 75.2737 57.9219 75.0895 58.785 75.0895C59.6482 75.0895 60.4271 75.2737 61.1219 75.6421C61.8166 76.0105 62.364 76.5421 62.764 77.2368C63.164 77.9211 63.364 78.7158 63.364 79.6211C63.364 80.5263 63.1587 81.3263 62.7482 82.0211C62.3482 82.7053 61.7956 83.2316 61.0903 83.6C60.3956 83.9684 59.6166 84.1526 58.7535 84.1526ZM58.7535 81.8158C59.2692 81.8158 59.7061 81.6263 60.064 81.2474C60.4324 80.8684 60.6166 80.3263 60.6166 79.6211C60.6166 78.9158 60.4377 78.3737 60.0798 77.9947C59.7324 77.6158 59.3008 77.4263 58.785 77.4263C58.2587 77.4263 57.8219 77.6158 57.4745 77.9947C57.1271 78.3632 56.9535 78.9053 56.9535 79.6211C56.9535 80.3263 57.1219 80.8684 57.4587 81.2474C57.8061 81.6263 58.2377 81.8158 58.7535 81.8158Z"/>
<path d="M64.2595 79.6053C64.2595 78.7 64.428 77.9053 64.7648 77.2211C65.1122 76.5368 65.5806 76.0105 66.1701 75.6421C66.7595 75.2737 67.4174 75.0895 68.1438 75.0895C68.7227 75.0895 69.249 75.2105 69.7227 75.4526C70.2069 75.6947 70.5859 76.0211 70.8595 76.4316V72.3421H73.5595V84.0263H70.8595V82.7632C70.6069 83.1842 70.2438 83.5211 69.7701 83.7737C69.3069 84.0263 68.7648 84.1526 68.1438 84.1526C67.4174 84.1526 66.7595 83.9684 66.1701 83.6C65.5806 83.2211 65.1122 82.6895 64.7648 82.0053C64.428 81.3105 64.2595 80.5105 64.2595 79.6053ZM70.8595 79.6211C70.8595 78.9474 70.6701 78.4158 70.2911 78.0263C69.9227 77.6368 69.4701 77.4421 68.9332 77.4421C68.3964 77.4421 67.9385 77.6368 67.5595 78.0263C67.1911 78.4053 67.0069 78.9316 67.0069 79.6053C67.0069 80.2789 67.1911 80.8158 67.5595 81.2158C67.9385 81.6053 68.3964 81.8 68.9332 81.8C69.4701 81.8 69.9227 81.6053 70.2911 81.2158C70.6701 80.8263 70.8595 80.2947 70.8595 79.6211Z"/>
<path d="M80.9287 75.1211C81.9392 75.1211 82.7497 75.4579 83.3602 76.1316C83.9708 76.7947 84.276 77.7105 84.276 78.8789V84.0263H81.5918V79.2421C81.5918 78.6526 81.4392 78.1947 81.1339 77.8684C80.8287 77.5421 80.4181 77.3789 79.9023 77.3789C79.3866 77.3789 78.976 77.5421 78.6708 77.8684C78.3655 78.1947 78.2129 78.6526 78.2129 79.2421V84.0263H75.5129V72.3421H78.2129V76.4C78.4866 76.0105 78.8602 75.7 79.3339 75.4684C79.8076 75.2368 80.3392 75.1211 80.9287 75.1211Z"/>
<path d="M94.4575 79.4789C94.4575 79.7316 94.4417 79.9947 94.4102 80.2684H88.2996C88.3417 80.8158 88.5154 81.2368 88.8207 81.5316C89.1365 81.8158 89.5207 81.9579 89.9733 81.9579C90.647 81.9579 91.1154 81.6737 91.3786 81.1053H94.2523C94.1049 81.6842 93.8365 82.2053 93.447 82.6684C93.0681 83.1316 92.5891 83.4947 92.0102 83.7579C91.4312 84.0211 90.7838 84.1526 90.0681 84.1526C89.2049 84.1526 88.4365 83.9684 87.7628 83.6C87.0891 83.2316 86.5628 82.7053 86.1838 82.0211C85.8049 81.3368 85.6154 80.5368 85.6154 79.6211C85.6154 78.7053 85.7996 77.9053 86.1681 77.2211C86.547 76.5368 87.0733 76.0105 87.747 75.6421C88.4207 75.2737 89.1944 75.0895 90.0681 75.0895C90.9207 75.0895 91.6786 75.2684 92.3417 75.6263C93.0049 75.9842 93.5207 76.4947 93.8891 77.1579C94.2681 77.8211 94.4575 78.5947 94.4575 79.4789ZM91.6944 78.7684C91.6944 78.3053 91.5365 77.9368 91.2207 77.6632C90.9049 77.3895 90.5102 77.2526 90.0365 77.2526C89.5838 77.2526 89.1996 77.3842 88.8838 77.6474C88.5786 77.9105 88.3891 78.2842 88.3154 78.7684H91.6944Z"/>
<path d="M104.582 75.2158V84.0263H101.882V82.8263C101.608 83.2158 101.235 83.5316 100.761 83.7737C100.298 84.0053 99.7819 84.1211 99.2135 84.1211C98.5398 84.1211 97.9451 83.9737 97.4293 83.679C96.9135 83.3737 96.5135 82.9368 96.2293 82.3684C95.9451 81.8 95.803 81.1316 95.803 80.3632V75.2158H98.4872V80C98.4872 80.5895 98.6398 81.0474 98.9451 81.3737C99.2503 81.7 99.6609 81.8632 100.177 81.8632C100.703 81.8632 101.119 81.7 101.424 81.3737C101.729 81.0474 101.882 80.5895 101.882 80V75.2158H104.582Z"/>
<path d="M109.221 76.6842C109.537 76.2 109.932 75.8211 110.406 75.5474C110.879 75.2632 111.406 75.1211 111.984 75.1211V77.979H111.242C110.569 77.979 110.063 78.1263 109.727 78.4211C109.39 78.7053 109.221 79.2105 109.221 79.9368V84.0263H106.521V75.2158H109.221V76.6842Z"/>
<path d="M121.58 79.4789C121.58 79.7316 121.564 79.9947 121.533 80.2684H115.422C115.464 80.8158 115.638 81.2368 115.943 81.5316C116.259 81.8158 116.643 81.9579 117.096 81.9579C117.77 81.9579 118.238 81.6737 118.501 81.1053H121.375C121.228 81.6842 120.959 82.2053 120.57 82.6684C120.191 83.1316 119.712 83.4947 119.133 83.7579C118.554 84.0211 117.907 84.1526 117.191 84.1526C116.328 84.1526 115.559 83.9684 114.886 83.6C114.212 83.2316 113.686 82.7053 113.307 82.0211C112.928 81.3368 112.738 80.5368 112.738 79.6211C112.738 78.7053 112.922 77.9053 113.291 77.2211C113.67 76.5368 114.196 76.0105 114.87 75.6421C115.543 75.2737 116.317 75.0895 117.191 75.0895C118.043 75.0895 118.801 75.2684 119.464 75.6263C120.128 75.9842 120.643 76.4947 121.012 77.1579C121.391 77.8211 121.58 78.5947 121.58 79.4789ZM118.817 78.7684C118.817 78.3053 118.659 77.9368 118.343 77.6632C118.028 77.3895 117.633 77.2526 117.159 77.2526C116.707 77.2526 116.322 77.3842 116.007 77.6474C115.701 77.9105 115.512 78.2842 115.438 78.7684H118.817Z"/>
</mask>
<path d="M42.2579 78.4684C42.2579 77.3737 42.4947 76.4 42.9684 75.5474C43.4421 74.6842 44.1 74.0158 44.9421 73.5421C45.7947 73.0579 46.7579 72.8158 47.8316 72.8158C49.1474 72.8158 50.2737 73.1632 51.2105 73.8579C52.1474 74.5526 52.7737 75.5 53.0895 76.7H50.1211C49.9 76.2368 49.5842 75.8842 49.1737 75.6421C48.7737 75.4 48.3158 75.2789 47.8 75.2789C46.9684 75.2789 46.2947 75.5684 45.7789 76.1474C45.2632 76.7263 45.0053 77.5 45.0053 78.4684C45.0053 79.4368 45.2632 80.2105 45.7789 80.7895C46.2947 81.3684 46.9684 81.6579 47.8 81.6579C48.3158 81.6579 48.7737 81.5368 49.1737 81.2947C49.5842 81.0526 49.9 80.7 50.1211 80.2368H53.0895C52.7737 81.4368 52.1474 82.3842 51.2105 83.0789C50.2737 83.7632 49.1474 84.1053 47.8316 84.1053C46.7579 84.1053 45.7947 83.8684 44.9421 83.3947C44.1 82.9105 43.4421 82.2421 42.9684 81.3895C42.4947 80.5368 42.2579 79.5632 42.2579 78.4684Z" fill="#E1E8EB"/>
<path d="M58.7535 84.1526C57.8903 84.1526 57.1113 83.9684 56.4166 83.6C55.7324 83.2316 55.1903 82.7053 54.7903 82.0211C54.4008 81.3368 54.2061 80.5368 54.2061 79.6211C54.2061 78.7158 54.4061 77.9211 54.8061 77.2368C55.2061 76.5421 55.7535 76.0105 56.4482 75.6421C57.1429 75.2737 57.9219 75.0895 58.785 75.0895C59.6482 75.0895 60.4271 75.2737 61.1219 75.6421C61.8166 76.0105 62.364 76.5421 62.764 77.2368C63.164 77.9211 63.364 78.7158 63.364 79.6211C63.364 80.5263 63.1587 81.3263 62.7482 82.0211C62.3482 82.7053 61.7956 83.2316 61.0903 83.6C60.3956 83.9684 59.6166 84.1526 58.7535 84.1526ZM58.7535 81.8158C59.2692 81.8158 59.7061 81.6263 60.064 81.2474C60.4324 80.8684 60.6166 80.3263 60.6166 79.6211C60.6166 78.9158 60.4377 78.3737 60.0798 77.9947C59.7324 77.6158 59.3008 77.4263 58.785 77.4263C58.2587 77.4263 57.8219 77.6158 57.4745 77.9947C57.1271 78.3632 56.9535 78.9053 56.9535 79.6211C56.9535 80.3263 57.1219 80.8684 57.4587 81.2474C57.8061 81.6263 58.2377 81.8158 58.7535 81.8158Z" fill="#E1E8EB"/>
<path d="M64.2595 79.6053C64.2595 78.7 64.428 77.9053 64.7648 77.2211C65.1122 76.5368 65.5806 76.0105 66.1701 75.6421C66.7595 75.2737 67.4174 75.0895 68.1438 75.0895C68.7227 75.0895 69.249 75.2105 69.7227 75.4526C70.2069 75.6947 70.5859 76.0211 70.8595 76.4316V72.3421H73.5595V84.0263H70.8595V82.7632C70.6069 83.1842 70.2438 83.5211 69.7701 83.7737C69.3069 84.0263 68.7648 84.1526 68.1438 84.1526C67.4174 84.1526 66.7595 83.9684 66.1701 83.6C65.5806 83.2211 65.1122 82.6895 64.7648 82.0053C64.428 81.3105 64.2595 80.5105 64.2595 79.6053ZM70.8595 79.6211C70.8595 78.9474 70.6701 78.4158 70.2911 78.0263C69.9227 77.6368 69.4701 77.4421 68.9332 77.4421C68.3964 77.4421 67.9385 77.6368 67.5595 78.0263C67.1911 78.4053 67.0069 78.9316 67.0069 79.6053C67.0069 80.2789 67.1911 80.8158 67.5595 81.2158C67.9385 81.6053 68.3964 81.8 68.9332 81.8C69.4701 81.8 69.9227 81.6053 70.2911 81.2158C70.6701 80.8263 70.8595 80.2947 70.8595 79.6211Z" fill="#E1E8EB"/>
<path d="M80.9287 75.1211C81.9392 75.1211 82.7497 75.4579 83.3602 76.1316C83.9708 76.7947 84.276 77.7105 84.276 78.8789V84.0263H81.5918V79.2421C81.5918 78.6526 81.4392 78.1947 81.1339 77.8684C80.8287 77.5421 80.4181 77.3789 79.9023 77.3789C79.3866 77.3789 78.976 77.5421 78.6708 77.8684C78.3655 78.1947 78.2129 78.6526 78.2129 79.2421V84.0263H75.5129V72.3421H78.2129V76.4C78.4866 76.0105 78.8602 75.7 79.3339 75.4684C79.8076 75.2368 80.3392 75.1211 80.9287 75.1211Z" fill="#E1E8EB"/>
<path d="M94.4575 79.4789C94.4575 79.7316 94.4417 79.9947 94.4102 80.2684H88.2996C88.3417 80.8158 88.5154 81.2368 88.8207 81.5316C89.1365 81.8158 89.5207 81.9579 89.9733 81.9579C90.647 81.9579 91.1154 81.6737 91.3786 81.1053H94.2523C94.1049 81.6842 93.8365 82.2053 93.447 82.6684C93.0681 83.1316 92.5891 83.4947 92.0102 83.7579C91.4312 84.0211 90.7838 84.1526 90.0681 84.1526C89.2049 84.1526 88.4365 83.9684 87.7628 83.6C87.0891 83.2316 86.5628 82.7053 86.1838 82.0211C85.8049 81.3368 85.6154 80.5368 85.6154 79.6211C85.6154 78.7053 85.7996 77.9053 86.1681 77.2211C86.547 76.5368 87.0733 76.0105 87.747 75.6421C88.4207 75.2737 89.1944 75.0895 90.0681 75.0895C90.9207 75.0895 91.6786 75.2684 92.3417 75.6263C93.0049 75.9842 93.5207 76.4947 93.8891 77.1579C94.2681 77.8211 94.4575 78.5947 94.4575 79.4789ZM91.6944 78.7684C91.6944 78.3053 91.5365 77.9368 91.2207 77.6632C90.9049 77.3895 90.5102 77.2526 90.0365 77.2526C89.5838 77.2526 89.1996 77.3842 88.8838 77.6474C88.5786 77.9105 88.3891 78.2842 88.3154 78.7684H91.6944Z" fill="#E1E8EB"/>
<path d="M104.582 75.2158V84.0263H101.882V82.8263C101.608 83.2158 101.235 83.5316 100.761 83.7737C100.298 84.0053 99.7819 84.1211 99.2135 84.1211C98.5398 84.1211 97.9451 83.9737 97.4293 83.679C96.9135 83.3737 96.5135 82.9368 96.2293 82.3684C95.9451 81.8 95.803 81.1316 95.803 80.3632V75.2158H98.4872V80C98.4872 80.5895 98.6398 81.0474 98.9451 81.3737C99.2503 81.7 99.6609 81.8632 100.177 81.8632C100.703 81.8632 101.119 81.7 101.424 81.3737C101.729 81.0474 101.882 80.5895 101.882 80V75.2158H104.582Z" fill="#E1E8EB"/>
<path d="M109.221 76.6842C109.537 76.2 109.932 75.8211 110.406 75.5474C110.879 75.2632 111.406 75.1211 111.984 75.1211V77.979H111.242C110.569 77.979 110.063 78.1263 109.727 78.4211C109.39 78.7053 109.221 79.2105 109.221 79.9368V84.0263H106.521V75.2158H109.221V76.6842Z" fill="#E1E8EB"/>
<path d="M121.58 79.4789C121.58 79.7316 121.564 79.9947 121.533 80.2684H115.422C115.464 80.8158 115.638 81.2368 115.943 81.5316C116.259 81.8158 116.643 81.9579 117.096 81.9579C117.77 81.9579 118.238 81.6737 118.501 81.1053H121.375C121.228 81.6842 120.959 82.2053 120.57 82.6684C120.191 83.1316 119.712 83.4947 119.133 83.7579C118.554 84.0211 117.907 84.1526 117.191 84.1526C116.328 84.1526 115.559 83.9684 114.886 83.6C114.212 83.2316 113.686 82.7053 113.307 82.0211C112.928 81.3368 112.738 80.5368 112.738 79.6211C112.738 78.7053 112.922 77.9053 113.291 77.2211C113.67 76.5368 114.196 76.0105 114.87 75.6421C115.543 75.2737 116.317 75.0895 117.191 75.0895C118.043 75.0895 118.801 75.2684 119.464 75.6263C120.128 75.9842 120.643 76.4947 121.012 77.1579C121.391 77.8211 121.58 78.5947 121.58 79.4789ZM118.817 78.7684C118.817 78.3053 118.659 77.9368 118.343 77.6632C118.028 77.3895 117.633 77.2526 117.159 77.2526C116.707 77.2526 116.322 77.3842 116.007 77.6474C115.701 77.9105 115.512 78.2842 115.438 78.7684H118.817Z" fill="#E1E8EB"/>
<path d="M42.9684 75.5474L45.5909 77.0043L45.5947 76.9975L45.5984 76.9907L42.9684 75.5474ZM44.9421 73.5421L46.4129 76.1569L46.4236 76.1508L44.9421 73.5421ZM51.2105 73.8579L52.9975 71.4482H52.9975L51.2105 73.8579ZM53.0895 76.7V79.7H56.9811L55.9907 75.9365L53.0895 76.7ZM50.1211 76.7L47.4136 77.9922L48.2287 79.7H50.1211V76.7ZM49.1737 75.6421L47.6203 78.2086L47.635 78.2175L47.6497 78.2262L49.1737 75.6421ZM45.7789 76.1474L48.0189 78.143L48.0189 78.143L45.7789 76.1474ZM49.1737 81.2947L47.6497 78.7106L47.635 78.7194L47.6203 78.7282L49.1737 81.2947ZM50.1211 80.2368V77.2368H48.2287L47.4136 78.9447L50.1211 80.2368ZM53.0895 80.2368L55.9907 81.0003L56.9811 77.2368H53.0895V80.2368ZM51.2105 83.0789L52.9799 85.5016L52.9887 85.4952L52.9975 85.4887L51.2105 83.0789ZM44.9421 83.3947L43.4467 85.9955L43.4659 86.0065L43.4852 86.0172L44.9421 83.3947ZM42.9684 81.3895L45.5909 79.9325L42.9684 81.3895ZM56.4166 83.6L54.9943 86.2414L55.0027 86.2459L55.0111 86.2504L56.4166 83.6ZM54.7903 82.0211L52.1831 83.5051L52.1917 83.5202L52.2004 83.5351L54.7903 82.0211ZM54.8061 77.2368L57.396 78.7509L57.401 78.7424L57.406 78.7337L54.8061 77.2368ZM56.4482 75.6421L57.8537 78.2925L57.8537 78.2925L56.4482 75.6421ZM61.1219 75.6421L59.7164 78.2925V78.2925L61.1219 75.6421ZM62.764 77.2368L60.1641 78.7337L60.1691 78.7424L60.1741 78.7509L62.764 77.2368ZM62.7482 82.0211L60.1654 80.4948L60.1583 80.507L62.7482 82.0211ZM61.0903 83.6L59.7012 80.941L59.693 80.9453L59.6848 80.9496L61.0903 83.6ZM60.064 81.2474L57.913 79.1561L57.8979 79.1717L57.8829 79.1875L60.064 81.2474ZM60.0798 77.9947L57.8683 80.0219L57.8834 80.0384L57.8987 80.0546L60.0798 77.9947ZM57.4745 77.9947L59.6573 80.0528L59.6717 80.0374L59.686 80.0219L57.4745 77.9947ZM57.4587 81.2474L55.2165 83.2405L55.2317 83.2576L55.2473 83.2745L57.4587 81.2474ZM64.7648 77.2211L62.0898 75.863L62.0814 75.8794L62.0733 75.896L64.7648 77.2211ZM66.1701 75.6421L67.7601 78.1861L66.1701 75.6421ZM69.7227 75.4526L68.3574 78.1239L68.3692 78.13L68.3811 78.1359L69.7227 75.4526ZM70.8595 76.4316L68.3634 78.0957L73.8595 86.3399V76.4316H70.8595ZM70.8595 72.3421V69.3421H67.8595V72.3421H70.8595ZM73.5595 72.3421H76.5595V69.3421H73.5595V72.3421ZM73.5595 84.0263V87.0263H76.5595V84.0263H73.5595ZM70.8595 84.0263H67.8595V87.0263H70.8595V84.0263ZM70.8595 82.7632H73.8595V71.9322L68.2871 81.2197L70.8595 82.7632ZM69.7701 83.7737L68.3583 81.1266L68.3459 81.1333L68.3335 81.14L69.7701 83.7737ZM66.1701 83.6L64.5478 86.1235L64.5639 86.1339L64.5801 86.144L66.1701 83.6ZM64.7648 82.0053L62.0654 83.3141L62.0774 83.3388L62.0898 83.3633L64.7648 82.0053ZM70.2911 78.0263L68.1117 80.0879L68.1262 80.1032L68.1409 80.1184L70.2911 78.0263ZM67.5595 78.0263L65.4094 75.9342L65.4086 75.9351L67.5595 78.0263ZM67.5595 81.2158L65.3529 83.2482L65.3807 83.2784L65.4094 83.3079L67.5595 81.2158ZM70.2911 81.2158L68.1409 79.1237L68.1262 79.1389L68.1117 79.1542L70.2911 81.2158ZM83.3602 76.1316L81.1373 78.1461L81.1452 78.1549L81.1531 78.1635L83.3602 76.1316ZM84.276 84.0263V87.0263H87.276V84.0263H84.276ZM81.5918 84.0263H78.5918V87.0263H81.5918V84.0263ZM81.1339 77.8684L78.9431 79.9179L78.9431 79.9179L81.1339 77.8684ZM78.6708 77.8684L80.8616 79.9179L80.8616 79.9179L78.6708 77.8684ZM78.2129 84.0263V87.0263H81.2129V84.0263H78.2129ZM75.5129 84.0263H72.5129V87.0263H75.5129V84.0263ZM75.5129 72.3421V69.3421H72.5129V72.3421H75.5129ZM78.2129 72.3421H81.2129V69.3421H78.2129V72.3421ZM78.2129 76.4H75.2129V85.8871L80.6674 78.1248L78.2129 76.4ZM79.3339 75.4684L78.0163 72.7733L79.3339 75.4684ZM94.4102 80.2684V83.2684H97.0839L97.3904 80.6123L94.4102 80.2684ZM88.2996 80.2684V77.2684H85.06L85.3085 80.4985L88.2996 80.2684ZM88.8207 81.5316L86.7369 83.6898L86.7747 83.7263L86.8138 83.7615L88.8207 81.5316ZM91.3786 81.1053V78.1053H89.4616L88.6562 79.8449L91.3786 81.1053ZM94.2523 81.1053L97.1596 81.8453L98.1116 78.1053H94.2523V81.1053ZM93.447 82.6684L91.1509 80.7376L91.1379 80.7531L91.1251 80.7687L93.447 82.6684ZM92.0102 83.7579L93.2516 86.489L92.0102 83.7579ZM87.7628 83.6L86.3234 86.2321L87.7628 83.6ZM86.1838 82.0211L88.8082 80.5676L86.1838 82.0211ZM86.1681 77.2211L83.5437 75.7676L83.5351 75.7831L83.5266 75.7988L86.1681 77.2211ZM87.747 75.6421L89.1864 78.2742L87.747 75.6421ZM92.3417 75.6263L90.9169 78.2664H90.9169L92.3417 75.6263ZM93.8891 77.1579L91.2666 78.6148L91.2754 78.6306L91.2844 78.6463L93.8891 77.1579ZM91.6944 78.7684V81.7684H94.6944V78.7684H91.6944ZM91.2207 77.6632L93.1855 75.3961L91.2207 77.6632ZM88.8838 77.6474L86.9633 75.3427L86.944 75.3588L86.925 75.3751L88.8838 77.6474ZM88.3154 78.7684L85.3496 78.3171L84.8244 81.7684H88.3154V78.7684ZM104.582 75.2158H107.582V72.2158H104.582V75.2158ZM104.582 84.0263V87.0263H107.582V84.0263H104.582ZM101.882 84.0263H98.8819V87.0263H101.882V84.0263ZM101.882 82.8263H104.882V73.3392L99.4273 81.1015L101.882 82.8263ZM100.761 83.7737L102.102 86.457L102.114 86.451L102.126 86.445L100.761 83.7737ZM97.4293 83.679L95.9013 86.2607L95.921 86.2723L95.9409 86.2837L97.4293 83.679ZM96.2293 82.3684L93.546 83.7101L96.2293 82.3684ZM95.803 75.2158V72.2158H92.803V75.2158H95.803ZM98.4872 75.2158H101.487V72.2158H98.4872V75.2158ZM98.9451 81.3737L96.7543 83.4232L98.9451 81.3737ZM101.882 75.2158V72.2158H98.8819V75.2158H101.882ZM109.221 76.6842H106.221V86.776L111.734 78.323L109.221 76.6842ZM110.406 75.5474L111.906 78.145L111.928 78.1326L111.949 78.1198L110.406 75.5474ZM111.984 75.1211H114.984V72.1211H111.984V75.1211ZM111.984 77.979V80.979H114.984V77.979H111.984ZM109.727 78.4211L111.661 80.7139L111.682 80.6965L111.702 80.6788L109.727 78.4211ZM109.221 84.0263V87.0263H112.221V84.0263H109.221ZM106.521 84.0263H103.521V87.0263H106.521V84.0263ZM106.521 75.2158V72.2158H103.521V75.2158H106.521ZM109.221 75.2158H112.221V72.2158H109.221V75.2158ZM121.533 80.2684V83.2684H124.207L124.513 80.6123L121.533 80.2684ZM115.422 80.2684V77.2684H112.183L112.431 80.4985L115.422 80.2684ZM115.943 81.5316L113.86 83.6898L113.897 83.7263L113.937 83.7615L115.943 81.5316ZM118.501 81.1053V78.1053H116.584L115.779 79.8449L118.501 81.1053ZM121.375 81.1053L124.282 81.8453L125.234 78.1053H121.375V81.1053ZM120.57 82.6684L118.274 80.7376L118.261 80.7531L118.248 80.7687L120.57 82.6684ZM119.133 83.7579L120.374 86.489L119.133 83.7579ZM114.886 83.6L113.446 86.2321L114.886 83.6ZM113.307 82.0211L115.931 80.5676L113.307 82.0211ZM113.291 77.2211L110.666 75.7676L110.658 75.7831L110.649 75.7988L113.291 77.2211ZM114.87 75.6421L116.309 78.2742L114.87 75.6421ZM119.464 75.6263L118.04 78.2664L119.464 75.6263ZM121.012 77.1579L118.389 78.6148L118.398 78.6306L118.407 78.6463L121.012 77.1579ZM118.817 78.7684V81.7684H121.817V78.7684H118.817ZM118.343 77.6632L120.308 75.3961L118.343 77.6632ZM116.007 77.6474L114.086 75.3427L114.067 75.3588L114.048 75.3751L116.007 77.6474ZM115.438 78.7684L112.472 78.3171L111.947 81.7684H115.438V78.7684ZM124 78.5C124 101.696 105.196 120.5 82 120.5V126.5C108.51 126.5 130 105.01 130 78.5H124ZM82 120.5C58.804 120.5 40 101.696 40 78.5H34C34 105.01 55.4903 126.5 82 126.5V120.5ZM40 78.5C40 55.304 58.804 36.5 82 36.5V30.5C55.4903 30.5 34 51.9903 34 78.5H40ZM82 36.5C105.196 36.5 124 55.304 124 78.5H130C130 51.9903 108.51 30.5 82 30.5V36.5ZM45.2579 78.4684C45.2579 77.82 45.3939 77.3588 45.5909 77.0043L40.3459 74.0904C39.5956 75.4412 39.2579 76.9274 39.2579 78.4684H45.2579ZM45.5984 76.9907C45.8081 76.6087 46.0687 76.3504 46.4129 76.1568L43.4713 70.9274C42.1313 71.6811 41.0762 72.7598 40.3384 74.1041L45.5984 76.9907ZM46.4236 76.1508C46.7825 75.947 47.2266 75.8158 47.8316 75.8158V69.8158C46.2892 69.8158 44.807 70.1688 43.4606 70.9334L46.4236 76.1508ZM47.8316 75.8158C48.5901 75.8158 49.0689 76.0046 49.4235 76.2676L52.9975 71.4482C51.4785 70.3217 49.7046 69.8158 47.8316 69.8158V75.8158ZM49.4235 76.2676C49.7762 76.5292 50.0341 76.8777 50.1883 77.4635L55.9907 75.9365C55.5133 74.1224 54.5185 72.5761 52.9975 71.4482L49.4235 76.2676ZM53.0895 73.7H50.1211V79.7H53.0895V73.7ZM52.8285 75.4078C52.371 74.4493 51.6623 73.6269 50.6976 73.058L47.6497 78.2262C47.5913 78.1918 47.5327 78.1444 47.4836 78.0895C47.4357 78.036 47.4158 77.9967 47.4136 77.9922L52.8285 75.4078ZM50.7271 73.0756C49.8111 72.5212 48.8052 72.2789 47.8 72.2789V78.2789C47.8219 78.2789 47.8059 78.2813 47.7635 78.2701C47.7193 78.2584 47.6684 78.2377 47.6203 78.2086L50.7271 73.0756ZM47.8 72.2789C46.1826 72.2789 44.6689 72.8834 43.539 74.1518L48.0189 78.143C48.0139 78.1486 47.9962 78.1672 47.9644 78.1904C47.9321 78.214 47.8946 78.2355 47.8554 78.2524C47.7711 78.2886 47.737 78.2789 47.8 78.2789V72.2789ZM43.539 74.1518C42.4204 75.4073 42.0053 76.9544 42.0053 78.4684H48.0053C48.0053 78.2479 48.0348 78.1403 48.0447 78.1105C48.0516 78.0898 48.046 78.1126 48.0189 78.143L43.539 74.1518ZM42.0053 78.4684C42.0053 79.9825 42.4204 81.5295 43.539 82.7851L48.0189 78.7939C48.046 78.8242 48.0516 78.847 48.0447 78.8263C48.0348 78.7965 48.0053 78.689 48.0053 78.4684H42.0053ZM43.539 82.7851C44.6689 84.0534 46.1826 84.6579 47.8 84.6579V78.6579C47.737 78.6579 47.7711 78.6483 47.8554 78.6845C47.8946 78.7013 47.9321 78.7229 47.9644 78.7465C47.9962 78.7697 48.0139 78.7882 48.0189 78.7939L43.539 82.7851ZM47.8 84.6579C48.8052 84.6579 49.8111 84.4156 50.7271 83.8612L47.6203 78.7282C47.6684 78.6991 47.7193 78.6784 47.7635 78.6667C47.8059 78.6555 47.8219 78.6579 47.8 78.6579V84.6579ZM50.6976 83.8788C51.6623 83.3099 52.371 82.4876 52.8285 81.529L47.4136 78.9447C47.4158 78.9401 47.4357 78.9008 47.4836 78.8473C47.5327 78.7924 47.5913 78.7451 47.6497 78.7106L50.6976 83.8788ZM50.1211 83.2368H53.0895V77.2368H50.1211V83.2368ZM50.1883 79.4734C50.0341 80.0592 49.7762 80.4077 49.4235 80.6692L52.9975 85.4887C54.5185 84.3607 55.5133 82.8145 55.9907 81.0003L50.1883 79.4734ZM49.4412 80.6563C49.0855 80.916 48.6003 81.1053 47.8316 81.1053V87.1053C49.6944 87.1053 51.4619 86.6103 52.9799 85.5016L49.4412 80.6563ZM47.8316 81.1053C47.2151 81.1053 46.7622 80.974 46.399 80.7723L43.4852 86.0172C44.8273 86.7628 46.3007 87.1053 47.8316 87.1053V81.1053ZM46.4375 80.794C46.0701 80.5828 45.801 80.3106 45.5909 79.9325L40.3459 82.8464C41.0833 84.1736 42.1299 85.2383 43.4467 85.9955L46.4375 80.794ZM45.5909 79.9325C45.3939 79.578 45.2579 79.1168 45.2579 78.4684H39.2579C39.2579 80.0095 39.5956 81.4957 40.3459 82.8464L45.5909 79.9325ZM58.7535 81.1526C58.3315 81.1526 58.0428 81.0666 57.8221 80.9496L55.0111 86.2504C56.1799 86.8702 57.4491 87.1526 58.7535 87.1526V81.1526ZM57.8389 80.9586C57.6502 80.8569 57.5078 80.7252 57.3802 80.507L52.2004 83.5351C52.8728 84.6853 53.8146 85.6062 54.9943 86.2414L57.8389 80.9586ZM57.3975 80.537C57.3048 80.3741 57.2061 80.1022 57.2061 79.6211H51.2061C51.2061 80.9715 51.4969 82.2996 52.1831 83.5051L57.3975 80.537ZM57.2061 79.6211C57.2061 79.171 57.3009 78.9136 57.396 78.7509L52.2162 75.7228C51.5113 76.9285 51.2061 78.2606 51.2061 79.6211H57.2061ZM57.406 78.7337C57.5301 78.5182 57.6678 78.3911 57.8537 78.2925L55.0427 72.9917C53.8391 73.63 52.8821 74.5661 52.2062 75.74L57.406 78.7337ZM57.8537 78.2925C58.0743 78.1755 58.3631 78.0895 58.785 78.0895V72.0895C57.4807 72.0895 56.2115 72.3719 55.0427 72.9917L57.8537 78.2925ZM58.785 78.0895C59.207 78.0895 59.4957 78.1755 59.7164 78.2925L62.5274 72.9917C61.3586 72.3719 60.0894 72.0895 58.785 72.0895V78.0895ZM59.7164 78.2925C59.9022 78.3911 60.04 78.5182 60.1641 78.7337L65.3638 75.74C64.688 74.566 63.731 73.63 62.5274 72.9917L59.7164 78.2925ZM60.1741 78.7509C60.2692 78.9136 60.364 79.1709 60.364 79.6211H66.364C66.364 78.2606 66.0588 76.9285 65.3539 75.7228L60.1741 78.7509ZM60.364 79.6211C60.364 80.0564 60.2706 80.3168 60.1654 80.4949L65.331 83.5472C66.0468 82.3359 66.364 80.9963 66.364 79.6211H60.364ZM60.1583 80.507C60.0442 80.7022 59.9087 80.8326 59.7012 80.941L62.4794 86.259C63.6825 85.6306 64.6522 84.7084 65.3381 83.5351L60.1583 80.507ZM59.6848 80.9496C59.4641 81.0666 59.1754 81.1526 58.7535 81.1526V87.1526C60.0578 87.1526 61.327 86.8702 62.4958 86.2504L59.6848 80.9496ZM58.7535 84.8158C60.1045 84.8158 61.3272 84.2791 62.245 83.3072L57.8829 79.1875C57.9562 79.1099 58.0861 79.003 58.2742 78.9214C58.463 78.8395 58.6352 78.8158 58.7535 78.8158V84.8158ZM62.215 83.3386C63.29 82.2328 63.6166 80.8387 63.6166 79.6211H57.6166C57.6166 79.7186 57.6032 79.6936 57.638 79.5914C57.6771 79.4762 57.7613 79.3121 57.913 79.1561L62.215 83.3386ZM63.6166 79.6211C63.6166 78.4253 63.3075 77.0431 62.2608 75.9349L57.8987 80.0546C57.7479 79.8949 57.6687 79.7322 57.6336 79.6259C57.6026 79.5319 57.6166 79.5157 57.6166 79.6211H63.6166ZM62.2912 75.9676C61.3735 74.9664 60.1385 74.4263 58.785 74.4263V80.4263C58.6672 80.4263 58.4885 80.4027 58.2896 80.3154C58.0904 80.2279 57.9504 80.1115 57.8683 80.0219L62.2912 75.9676ZM58.785 74.4263C57.4406 74.4263 56.1938 74.9522 55.263 75.9676L59.686 80.0219C59.598 80.1178 59.4544 80.2348 59.2564 80.3207C59.0601 80.4058 58.8891 80.4263 58.785 80.4263V74.4263ZM55.2917 75.9367C54.2362 77.0562 53.9535 78.4573 53.9535 79.6211H59.9535C59.9535 79.4976 59.9694 79.5034 59.9407 79.593C59.908 79.6951 59.827 79.8728 59.6573 80.0528L55.2917 75.9367ZM53.9535 79.6211C53.9535 80.7738 54.2295 82.1301 55.2165 83.2405L59.7009 79.2543C59.8484 79.4202 59.9174 79.5787 59.9447 79.6665C59.9686 79.7436 59.9535 79.7418 59.9535 79.6211H53.9535ZM55.2473 83.2745C56.165 84.2757 57.4 84.8158 58.7535 84.8158V78.8158C58.8712 78.8158 59.05 78.8394 59.2489 78.9268C59.4481 79.0142 59.5881 79.1306 59.6702 79.2202L55.2473 83.2745ZM67.2595 79.6053C67.2595 79.0742 67.357 78.7479 67.4563 78.5461L62.0733 75.896C61.4989 77.0627 61.2595 78.3258 61.2595 79.6053H67.2595ZM67.4398 78.5791C67.5665 78.3295 67.6805 78.2358 67.7601 78.1861L64.5801 73.0981C63.4807 73.7852 62.6578 74.7442 62.0898 75.863L67.4398 78.5791ZM67.7601 78.1861C67.8508 78.1294 67.9532 78.0895 68.1438 78.0895V72.0895C66.8816 72.0895 65.6683 72.418 64.5801 73.0981L67.7601 78.1861ZM68.1438 78.0895C68.2908 78.0895 68.3429 78.1165 68.3574 78.1239L71.088 72.7813C70.1551 72.3045 69.1546 72.0895 68.1438 72.0895V78.0895ZM68.3811 78.1359C68.4198 78.1553 68.4254 78.1633 68.4125 78.1523C68.4065 78.1471 68.3982 78.1392 68.3888 78.1286C68.3793 78.1179 68.3707 78.1067 68.3634 78.0957L73.3557 74.7675C72.7648 73.8811 71.9689 73.2216 71.0643 72.7694L68.3811 78.1359ZM73.8595 76.4316V72.3421H67.8595V76.4316H73.8595ZM70.8595 75.3421H73.5595V69.3421H70.8595V75.3421ZM70.5595 72.3421V84.0263H76.5595V72.3421H70.5595ZM73.5595 81.0263H70.8595V87.0263H73.5595V81.0263ZM73.8595 84.0263V82.7632H67.8595V84.0263H73.8595ZM68.2871 81.2197C68.3076 81.1854 68.3335 81.1544 68.3576 81.1321C68.3804 81.1109 68.3862 81.1117 68.3583 81.1266L71.1818 86.4207C72.0891 85.9369 72.8739 85.2369 73.432 84.3066L68.2871 81.2197ZM68.3335 81.14C68.3524 81.1297 68.3571 81.1311 68.3353 81.1362C68.3115 81.1417 68.2511 81.1526 68.1438 81.1526V87.1526C69.1776 87.1526 70.2307 86.9397 71.2066 86.4074L68.3335 81.14ZM68.1438 81.1526C67.9532 81.1526 67.8508 81.1127 67.7601 81.056L64.5801 86.144C65.6683 86.8241 66.8816 87.1526 68.1438 87.1526V81.1526ZM67.7923 81.0765C67.6929 81.0126 67.5696 80.9028 67.4398 80.6472L62.0898 83.3633C62.6548 84.4762 63.4682 85.4295 64.5478 86.1235L67.7923 81.0765ZM67.4642 80.6964C67.3565 80.4743 67.2595 80.1349 67.2595 79.6053H61.2595C61.2595 80.8861 61.4994 82.1467 62.0654 83.3141L67.4642 80.6964ZM73.8595 79.6211C73.8595 78.3635 73.489 77.011 72.4413 75.9342L68.1409 80.1184C68.0182 79.9923 67.9358 79.8485 67.8916 79.7243C67.8512 79.611 67.8595 79.5627 67.8595 79.6211H73.8595ZM72.4705 75.9647C71.5346 74.9753 70.2934 74.4421 68.9332 74.4421V80.4421C68.8308 80.4421 68.6703 80.4216 68.4897 80.3439C68.309 80.2662 68.1832 80.1634 68.1117 80.0879L72.4705 75.9647ZM68.9332 74.4421C67.5754 74.4421 66.3453 74.9723 65.4094 75.9342L69.7097 80.1184C69.6472 80.1826 69.5313 80.2765 69.3613 80.3489C69.1904 80.4215 69.0361 80.4421 68.9332 80.4421V74.4421ZM65.4086 75.9351C64.3572 77.0164 64.0069 78.3747 64.0069 79.6053H70.0069C70.0069 79.5378 70.0165 79.5825 69.9766 79.6963C69.9327 79.8218 69.8472 79.977 69.7105 80.1175L65.4086 75.9351ZM64.0069 79.6053C64.0069 80.8438 64.3598 82.1699 65.3529 83.2482L69.7662 79.1834C69.8756 79.3021 69.946 79.4326 69.9827 79.5395C70.016 79.6368 70.0069 79.6711 70.0069 79.6053H64.0069ZM65.4094 83.3079C66.3453 84.2698 67.5754 84.8 68.9332 84.8V78.8C69.0361 78.8 69.1904 78.8206 69.3613 78.8932C69.5314 78.9656 69.6472 79.0595 69.7097 79.1237L65.4094 83.3079ZM68.9332 84.8C70.2934 84.8 71.5346 84.2668 72.4705 83.2774L68.1117 79.1542C68.1832 79.0787 68.309 78.9759 68.4897 78.8982C68.6703 78.8205 68.8307 78.8 68.9332 78.8V84.8ZM72.4413 83.3079C73.489 82.2311 73.8595 80.8786 73.8595 79.6211H67.8595C67.8595 79.6794 67.8512 79.6311 67.8916 79.5178C67.9358 79.3936 68.0182 79.2498 68.1409 79.1237L72.4413 83.3079ZM80.9287 78.1211C81.098 78.1211 81.1538 78.1484 81.1432 78.144C81.1399 78.1426 81.1328 78.139 81.1263 78.1343C81.12 78.1299 81.1239 78.1314 81.1373 78.1461L85.5832 74.117C84.3371 72.742 82.681 72.1211 80.9287 72.1211V78.1211ZM81.1531 78.1635C81.1558 78.1664 81.1597 78.1709 81.1658 78.1815C81.1722 78.1925 81.1855 78.218 81.201 78.2645C81.2328 78.3599 81.276 78.5516 81.276 78.8789H87.276C87.276 77.1875 86.8245 75.4652 85.5673 74.0997L81.1531 78.1635ZM81.276 78.8789V84.0263H87.276V78.8789H81.276ZM84.276 81.0263H81.5918V87.0263H84.276V81.0263ZM84.5918 84.0263V79.2421H78.5918V84.0263H84.5918ZM84.5918 79.2421C84.5918 78.141 84.2984 76.8597 83.3247 75.819L78.9431 79.9179C78.7775 79.7409 78.6805 79.5528 78.6313 79.4053C78.586 79.2693 78.5918 79.201 78.5918 79.2421H84.5918ZM83.3247 75.819C82.363 74.7909 81.1082 74.3789 79.9023 74.3789V80.3789C79.8434 80.3789 79.6902 80.3692 79.4891 80.2892C79.2785 80.2055 79.089 80.0738 78.9431 79.9179L83.3247 75.819ZM79.9023 74.3789C78.6965 74.3789 77.4417 74.7909 76.48 75.819L80.8616 79.9179C80.7157 80.0738 80.5262 80.2055 80.3156 80.2892C80.1144 80.3692 79.9613 80.3789 79.9023 80.3789V74.3789ZM76.48 75.819C75.5063 76.8597 75.2129 78.141 75.2129 79.2421H81.2129C81.2129 79.201 81.2187 79.2693 81.1734 79.4053C81.1242 79.5528 81.0272 79.7409 80.8616 79.9179L76.48 75.819ZM75.2129 79.2421V84.0263H81.2129V79.2421H75.2129ZM78.2129 81.0263H75.5129V87.0263H78.2129V81.0263ZM78.5129 84.0263V72.3421H72.5129V84.0263H78.5129ZM75.5129 75.3421H78.2129V69.3421H75.5129V75.3421ZM75.2129 72.3421V76.4H81.2129V72.3421H75.2129ZM80.6674 78.1248C80.6588 78.1372 80.6492 78.149 80.6394 78.1596C80.6296 78.1702 80.6213 78.1778 80.6157 78.1823C80.604 78.1921 80.6113 78.1833 80.6516 78.1636L78.0163 72.7733C77.1378 73.2027 76.3534 73.8282 75.7583 74.6752L80.6674 78.1248ZM80.6516 78.1636C80.6687 78.1552 80.7415 78.1211 80.9287 78.1211V72.1211C79.9369 72.1211 78.9465 72.3185 78.0163 72.7733L80.6516 78.1636ZM91.4575 79.4789C91.4575 79.6069 91.4495 79.7549 91.4299 79.9246L97.3904 80.6123C97.434 80.2346 97.4575 79.8563 97.4575 79.4789H91.4575ZM94.4102 77.2684H88.2996V83.2684H94.4102V77.2684ZM85.3085 80.4985C85.3899 81.5574 85.7634 82.7498 86.7369 83.6898L90.9045 79.3734C91.0704 79.5336 91.1758 79.7077 91.2348 79.8507C91.2898 79.9842 91.2925 80.0602 91.2908 80.0383L85.3085 80.4985ZM86.8138 83.7615C87.7185 84.5757 88.8324 84.9579 89.9733 84.9579V78.9579C90.065 78.9579 90.2122 78.9732 90.3864 79.0376C90.5636 79.1032 90.7139 79.1994 90.8276 79.3017L86.8138 83.7615ZM89.9733 84.9579C90.7332 84.9579 91.5858 84.7951 92.3861 84.3096C93.2004 83.8155 93.7559 83.111 94.101 82.3656L88.6562 79.8449C88.7381 79.668 88.9278 79.3898 89.2737 79.1799C89.6056 78.9785 89.8871 78.9579 89.9733 78.9579V84.9579ZM91.3786 84.1053H94.2523V78.1053H91.3786V84.1053ZM91.345 80.3652C91.3106 80.5005 91.2535 80.6157 91.1509 80.7376L95.7431 84.5992C96.4195 83.7949 96.8992 82.868 97.1596 81.8453L91.345 80.3652ZM91.1251 80.7687C91.0559 80.8533 90.9554 80.9419 90.7688 81.0268L93.2516 86.489C94.2228 86.0475 95.0802 85.4099 95.7689 84.5681L91.1251 80.7687ZM90.7688 81.0268C90.6259 81.0917 90.4095 81.1526 90.0681 81.1526V87.1526C91.1582 87.1526 92.2365 86.9504 93.2516 86.489L90.7688 81.0268ZM90.0681 81.1526C89.6445 81.1526 89.382 81.0662 89.2022 80.9679L86.3234 86.2321C87.4909 86.8706 88.7653 87.1526 90.0681 87.1526V81.1526ZM89.2022 80.9679C89.0369 80.8775 88.9172 80.7644 88.8082 80.5676L83.5595 83.4746C84.2084 84.6462 85.1413 85.5857 86.3234 86.2321L89.2022 80.9679ZM88.8082 80.5676C88.7147 80.3988 88.6154 80.1157 88.6154 79.6211H82.6154C82.6154 80.958 82.895 82.2749 83.5595 83.4746L88.8082 80.5676ZM88.6154 79.6211C88.6154 79.113 88.7152 78.8185 88.8095 78.6434L83.5266 75.7988C82.8841 76.992 82.6154 78.2975 82.6154 79.6211H88.6154ZM88.7924 78.6746C88.9014 78.4777 89.0211 78.3646 89.1864 78.2742L86.3076 73.01C85.1255 73.6564 84.1926 74.596 83.5437 75.7676L88.7924 78.6746ZM89.1864 78.2742C89.361 78.1788 89.6272 78.0895 90.0681 78.0895V72.0895C88.7615 72.0895 87.4804 72.3686 86.3076 73.01L89.1864 78.2742ZM90.0681 78.0895C90.4895 78.0895 90.7463 78.1743 90.9169 78.2664L93.7665 72.9863C92.6108 72.3625 91.3519 72.0895 90.0681 72.0895V78.0895ZM90.9169 78.2664C91.0726 78.3504 91.1743 78.4487 91.2666 78.6148L96.5116 75.701C95.867 74.5408 94.9372 73.6181 93.7665 72.9863L90.9169 78.2664ZM91.2844 78.6463C91.3659 78.789 91.4575 79.0336 91.4575 79.4789H97.4575C97.4575 78.1559 97.1702 76.8531 96.4938 75.6695L91.2844 78.6463ZM94.6944 78.7684C94.6944 77.541 94.2347 76.3054 93.1855 75.3961L89.2559 79.9302C89.0859 79.7829 88.926 79.5772 88.8185 79.3265C88.7145 79.0837 88.6944 78.8805 88.6944 78.7684H94.6944ZM93.1855 75.3961C92.2513 74.5865 91.1292 74.2526 90.0365 74.2526V80.2526C89.983 80.2526 89.863 80.2445 89.7052 80.1898C89.542 80.1332 89.3863 80.0432 89.2559 79.9302L93.1855 75.3961ZM90.0365 74.2526C88.9579 74.2526 87.8738 74.584 86.9633 75.3427L90.8044 79.952C90.6848 80.0517 90.5391 80.1353 90.3808 80.1895C90.2264 80.2424 90.1033 80.2526 90.0365 80.2526V74.2526ZM86.925 75.3751C85.9672 76.2008 85.5068 77.284 85.3496 78.3171L91.2813 79.2197C91.2781 79.2409 91.26 79.3407 91.1885 79.4817C91.1134 79.6298 90.9981 79.7856 90.8427 79.9196L86.925 75.3751ZM88.3154 81.7684H91.6944V75.7684H88.3154V81.7684ZM101.582 75.2158V84.0263H107.582V75.2158H101.582ZM104.582 81.0263H101.882V87.0263H104.582V81.0263ZM104.882 84.0263V82.8263H98.8819V84.0263H104.882ZM99.4273 81.1015C99.4342 81.0918 99.4412 81.0831 99.4478 81.0759C99.4544 81.0688 99.4589 81.0648 99.46 81.0639C99.4629 81.0615 99.4457 81.0767 99.3955 81.1024L102.126 86.445C102.983 86.0072 103.75 85.3851 104.336 84.5512L99.4273 81.1015ZM99.4192 81.0904C99.4121 81.094 99.3624 81.1211 99.2135 81.1211V87.1211C100.201 87.1211 101.183 86.9166 102.102 86.457L99.4192 81.0904ZM99.2135 81.1211C98.9907 81.1211 98.9221 81.0768 98.9177 81.0742L95.9409 86.2837C96.968 86.8706 98.0889 87.1211 99.2135 87.1211V81.1211ZM98.9572 81.0972C98.9524 81.0943 98.9515 81.0934 98.9529 81.0945C98.9543 81.0957 98.9553 81.0967 98.955 81.0964C98.9547 81.0961 98.9509 81.092 98.9442 81.0821C98.9374 81.0721 98.9264 81.0544 98.9126 81.0268L93.546 83.7101C94.0718 84.7617 94.8587 85.6436 95.9013 86.2607L98.9572 81.0972ZM98.9126 81.0268C98.8758 80.9532 98.803 80.762 98.803 80.3632H92.803C92.803 81.5011 93.0144 82.6468 93.546 83.7101L98.9126 81.0268ZM98.803 80.3632V75.2158H92.803V80.3632H98.803ZM95.803 78.2158H98.4872V72.2158H95.803V78.2158ZM95.4872 75.2158V80H101.487V75.2158H95.4872ZM95.4872 80C95.4872 81.1011 95.7806 82.3824 96.7543 83.4232L101.136 79.3242C101.301 79.5012 101.399 79.6893 101.448 79.8368C101.493 79.9728 101.487 80.0411 101.487 80H95.4872ZM96.7543 83.4232C97.716 84.4512 98.9708 84.8632 100.177 84.8632V78.8632C100.236 78.8632 100.389 78.8729 100.59 78.9529C100.8 79.0366 100.99 79.1683 101.136 79.3242L96.7543 83.4232ZM100.177 84.8632C101.373 84.8632 102.641 84.464 103.615 83.4232L99.2332 79.3242C99.3856 79.1614 99.5793 79.0297 99.7874 78.9481C99.9849 78.8706 100.13 78.8632 100.177 78.8632V84.8632ZM103.615 83.4232C104.588 82.3824 104.882 81.1011 104.882 80H98.8819C98.8819 80.0411 98.8761 79.9728 98.9214 79.8368C98.9706 79.6893 99.0676 79.5012 99.2332 79.3242L103.615 83.4232ZM104.882 80V75.2158H98.8819V80H104.882ZM101.882 78.2158H104.582V72.2158H101.882V78.2158ZM111.734 78.323C111.808 78.2104 111.864 78.1696 111.906 78.145L108.905 72.9498C108 73.4725 107.267 74.1896 106.708 75.0454L111.734 78.323ZM111.949 78.1198C111.951 78.1184 111.951 78.119 111.947 78.1205C111.944 78.1221 111.94 78.1232 111.938 78.1239C111.935 78.1246 111.936 78.124 111.943 78.1232C111.949 78.1224 111.963 78.1211 111.984 78.1211V72.1211C110.889 72.1211 109.825 72.3972 108.862 72.9749L111.949 78.1198ZM108.984 75.1211V77.979H114.984V75.1211H108.984ZM111.984 74.979H111.242V80.979H111.984V74.979ZM111.242 74.979C110.197 74.979 108.853 75.1989 107.751 76.1633L111.702 80.6788C111.489 80.8653 111.292 80.9422 111.198 80.9695C111.114 80.994 111.115 80.979 111.242 80.979V74.979ZM107.792 76.1282C106.445 77.2646 106.221 78.8857 106.221 79.9368H112.221C112.221 79.7872 112.241 79.82 112.194 79.9618C112.14 80.123 111.995 80.4326 111.661 80.7139L107.792 76.1282ZM106.221 79.9368V84.0263H112.221V79.9368H106.221ZM109.221 81.0263H106.521V87.0263H109.221V81.0263ZM109.521 84.0263V75.2158H103.521V84.0263H109.521ZM106.521 78.2158H109.221V72.2158H106.521V78.2158ZM106.221 75.2158V76.6842H112.221V75.2158H106.221ZM118.58 79.4789C118.58 79.6069 118.572 79.7549 118.553 79.9246L124.513 80.6123C124.557 80.2346 124.58 79.8563 124.58 79.4789H118.58ZM121.533 77.2684H115.422V83.2684H121.533V77.2684ZM112.431 80.4985C112.513 81.5574 112.886 82.7498 113.86 83.6898L118.027 79.3734C118.193 79.5336 118.299 79.7077 118.358 79.8507C118.413 79.9842 118.415 80.0602 118.414 80.0383L112.431 80.4985ZM113.937 83.7615C114.841 84.5757 115.955 84.9579 117.096 84.9579V78.9579C117.188 78.9579 117.335 78.9732 117.509 79.0376C117.686 79.1032 117.837 79.1994 117.95 79.3017L113.937 83.7615ZM117.096 84.9579C117.856 84.9579 118.709 84.7951 119.509 84.3096C120.323 83.8155 120.879 83.111 121.224 82.3656L115.779 79.8449C115.861 79.668 116.051 79.3898 116.396 79.1799C116.728 78.9785 117.01 78.9579 117.096 78.9579V84.9579ZM118.501 84.1053H121.375V78.1053H118.501V84.1053ZM118.468 80.3652C118.433 80.5005 118.376 80.6157 118.274 80.7376L122.866 84.5992C123.542 83.7949 124.022 82.868 124.282 81.8453L118.468 80.3652ZM118.248 80.7687C118.179 80.8533 118.078 80.9419 117.891 81.0268L120.374 86.489C121.346 86.0475 122.203 85.4099 122.892 84.5681L118.248 80.7687ZM117.891 81.0268C117.749 81.0917 117.532 81.1526 117.191 81.1526V87.1526C118.281 87.1526 119.359 86.9504 120.374 86.489L117.891 81.0268ZM117.191 81.1526C116.767 81.1526 116.505 81.0662 116.325 80.9679L113.446 86.2321C114.614 86.8706 115.888 87.1526 117.191 87.1526V81.1526ZM116.325 80.9679C116.16 80.8775 116.04 80.7644 115.931 80.5676L110.682 83.4746C111.331 84.6462 112.264 85.5857 113.446 86.2321L116.325 80.9679ZM115.931 80.5676C115.837 80.3988 115.738 80.1157 115.738 79.6211H109.738C109.738 80.958 110.018 82.2749 110.682 83.4746L115.931 80.5676ZM115.738 79.6211C115.738 79.1131 115.838 78.8185 115.932 78.6434L110.649 75.7988C110.007 76.992 109.738 78.2975 109.738 79.6211H115.738ZM115.915 78.6746C116.024 78.4777 116.144 78.3646 116.309 78.2742L113.43 73.01C112.248 73.6564 111.315 74.596 110.666 75.7676L115.915 78.6746ZM116.309 78.2742C116.484 78.1788 116.75 78.0895 117.191 78.0895V72.0895C115.884 72.0895 114.603 72.3686 113.43 73.01L116.309 78.2742ZM117.191 78.0895C117.612 78.0895 117.869 78.1743 118.04 78.2664L120.889 72.9863C119.734 72.3625 118.475 72.0895 117.191 72.0895V78.0895ZM118.04 78.2664C118.195 78.3504 118.297 78.4487 118.389 78.6148L123.634 75.701C122.99 74.5408 122.06 73.6181 120.889 72.9863L118.04 78.2664ZM118.407 78.6463C118.489 78.789 118.58 79.0336 118.58 79.4789H124.58C124.58 78.1559 124.293 76.8531 123.617 75.6695L118.407 78.6463ZM121.817 78.7684C121.817 77.541 121.357 76.3054 120.308 75.3961L116.379 79.9302C116.209 79.7829 116.049 79.5772 115.941 79.3265C115.837 79.0837 115.817 78.8805 115.817 78.7684H121.817ZM120.308 75.3961C119.374 74.5865 118.252 74.2526 117.159 74.2526V80.2526C117.106 80.2526 116.986 80.2445 116.828 80.1898C116.665 80.1332 116.509 80.0432 116.379 79.9302L120.308 75.3961ZM117.159 74.2526C116.081 74.2526 114.997 74.584 114.086 75.3427L117.927 79.952C117.808 80.0517 117.662 80.1353 117.504 80.1895C117.349 80.2424 117.226 80.2526 117.159 80.2526V74.2526ZM114.048 75.3751C113.09 76.2008 112.63 77.284 112.472 78.3171L118.404 79.2197C118.401 79.2409 118.383 79.3407 118.311 79.4817C118.236 79.6298 118.121 79.7856 117.965 79.9196L114.048 75.3751ZM115.438 81.7684H118.817V75.7684H115.438V81.7684Z" fill="#E1E8EB" mask="url(#path-4-outside-1_167_654)"/>
<defs>
<filter id="filter0_b_167_654" x="-40" y="-40" width="244" height="237" filterUnits="userSpaceOnUse" color-interpolation-filters="sRGB">
<feFlood flood-opacity="0" result="BackgroundImageFix"/>
<feGaussianBlur in="BackgroundImage" stdDeviation="20"/>
<feComposite in2="SourceAlpha" operator="in" result="effect1_backgroundBlur_167_654"/>
<feBlend mode="normal" in="SourceGraphic" in2="effect1_backgroundBlur_167_654" result="shape"/>
</filter>
<linearGradient id="paint0_linear_167_654" x1="0" y1="0" x2="107.626" y2="179.716" gradientUnits="userSpaceOnUse">
<stop stop-color="#E1E8EB" stop-opacity="0.4"/>
<stop offset="1" stop-color="#E1E8EB" stop-opacity="0.1"/>
</linearGradient>
<linearGradient id="paint1_linear_167_654" x1="18.7744" y1="10.8203" x2="95.842" y2="168.592" gradientUnits="userSpaceOnUse">
<stop stop-color="#E1E8EB" stop-opacity="0.6"/>
<stop offset="0.381568" stop-color="#E1E8EB" stop-opacity="0.1"/>
<stop offset="0.617815" stop-color="#E1E8EB" stop-opacity="0.1"/>
<stop offset="1" stop-color="#E1E8EB" stop-opacity="0.6"/>
</linearGradient>
</defs>
</svg>
