<svg width="164" height="157" viewBox="0 0 164 157" fill="none" xmlns="http://www.w3.org/2000/svg">
<rect width="164" height="157" rx="5" fill="#FF4848"/>
<g filter="url(#filter0_b_173_669)">
<rect width="164" height="157" rx="5" fill="url(#paint0_linear_173_669)"/>
<rect x="0.5" y="0.5" width="163" height="156" rx="4.5" stroke="url(#paint1_linear_173_669)"/>
</g>
<path d="M66.2604 73.0676C66.3969 72.878 67.6954 71.02 66.9604 68.9442C66.5929 67.9081 65.8859 67.2899 65.5219 67.0125C66.0679 66.3592 66.4809 65.597 66.7434 64.7857C67.1109 63.6477 67.0794 62.717 67.0619 62.2639C66.9604 59.9072 65.7494 58.151 65.1754 57.424C58.6164 50.6734 49.4044 47.0242 40.1224 45.5876C30.837 44.1511 21.373 44.7482 12 45.3945C20.4875 46.0758 27.6345 46.9188 33.0875 47.6493C39.3244 48.4853 42.4954 49.135 45.1449 50.1185C45.7224 50.3327 46.6954 50.7191 47.7524 51.2529C53.3174 54.0663 56.5269 58.8816 57.9584 61.2032C65.2839 73.1098 63.0649 80.1062 70.3904 89.505C71.5209 90.9556 75.7979 96.6033 83.6763 100.165C88.9088 102.529 94.6173 103.712 100.34 104.137C95.6183 103.115 91.9468 101.629 89.4548 100.446C85.4088 98.5281 74.8319 93.509 69.2214 82.1117C67.4294 78.4695 66.6419 75.189 66.2604 73.0676Z" fill="white"/>
<path d="M79.1858 50.9826C77.1593 47.9023 75.4898 46.7292 74.2508 46.0865C71.7343 44.7764 69.3788 44.7378 67.6778 44.8326C63.3134 45.0785 59.0294 46.5747 55.4559 49.1C56.1874 49.4056 56.9434 49.7076 57.7309 50.0027C58.6234 50.3398 59.4949 50.6454 60.3419 50.9229C61.4304 50.0659 64.0519 48.243 67.8213 47.9234C69.1758 47.8075 71.8463 47.5827 74.3348 49.0438C76.4208 50.2696 77.0613 51.9098 79.6653 56.9886C80.6278 58.8641 82.1188 61.7196 84.0718 65.2389C83.6448 61.3789 82.4723 55.984 79.1858 50.9826Z" fill="white"/>
<path d="M134.034 39.7188C133.142 41.9737 132.249 44.2321 131.353 46.4869C132.813 46.4272 134.272 46.3675 135.732 46.3078C136.96 43.9476 138.567 40.3053 139.515 35.627C140.698 29.7791 141.552 25.5679 139.543 23.4324C134.503 18.0797 114.97 29.3717 113.041 30.485C105.642 34.763 100.651 39.4624 96.5458 43.3329C92.6503 47.0032 90.5503 49.5356 88.8038 52.1171C86.1508 56.0403 84.5758 59.6966 83.6343 62.3238C85.9443 59.8862 89.3288 56.374 93.5183 52.226C97.9283 47.8602 102.272 43.7368 103.791 42.3706C108.043 38.5457 116.881 32.3114 134.983 28.1037C134.836 29.0977 134.542 30.5412 133.866 32.1569C132.862 34.5663 130.996 37.4428 122.824 43.1714C120.598 44.7308 117.542 46.7609 113.755 48.9526C115.796 49.0368 118.519 48.8999 121.56 48.0183C128.235 46.0901 132.319 41.784 134.034 39.7188Z" fill="white"/>
<path d="M112.702 50.6175C100.851 54.0068 93.7353 59.3244 91.4253 61.1437C86.7003 64.8632 83.3719 68.7092 81.1809 71.6033C99.2653 56.7148 114.875 53.1042 124 52.1207C132.389 51.2146 145.164 51.4639 145.679 54.1543C145.98 55.7384 142.004 58.0775 140.142 59.1734C137.688 60.6169 135.459 61.351 132.578 62.1026C129.358 62.942 124.899 63.9184 119.394 64.5506C121.462 65.362 125.225 66.5245 130.013 66.2787C135.112 66.0188 138.924 64.2872 140.908 63.2054C140.257 64.2064 139.218 65.6219 137.681 67.0444C135.686 68.8918 133.089 70.5461 126.502 72.5586C123.058 73.6123 118.361 74.8135 112.625 75.6073C113.283 76.0884 114.298 76.7101 115.642 77.0578C117.322 77.4898 118.61 77.258 120.129 77.1035C121.644 76.9489 123.807 76.8295 126.52 77.0192C125.883 77.7814 124.864 78.8385 123.401 79.7693C120.045 81.9012 116.902 81.7327 112.03 82.1225C109.496 82.3262 105.929 82.7266 101.603 83.6012C102.275 84.1421 103.29 84.8305 104.645 85.3222C106.339 85.9368 107.56 85.8736 107.564 86.0668C107.571 86.3408 105.131 86.6569 100.655 87.0221C97.7358 87.261 95.2963 87.4085 93.5568 87.4998C96.1678 88.2479 100.301 89.1119 105.341 88.7572C109.489 88.4657 112.95 87.3523 116.783 85.8877C130.902 80.4893 143.012 69.9701 150.355 56.7218C151.534 54.5934 152.294 53.3711 151.891 52.0399C150.085 46.0375 128.889 45.9848 112.702 50.6175Z" fill="white"/>
<path d="M108.306 121.116C110.577 125.534 114.035 128.014 115.929 129.373C119.569 131.983 123.279 133.658 131.126 134.75C132.617 134.958 134.136 135.119 135.623 134.884C137.111 134.652 138.581 133.981 139.508 132.79C139.526 132.766 139.55 132.738 139.575 132.703C140.87 130.932 140.548 128.47 140.457 127.814C139.386 119.806 131.087 108.658 131.087 108.658C128.571 105.275 126.037 101.904 121.886 98.0787C116.863 93.4496 112.086 90.559 111.907 90.7873C111.746 90.991 115.19 93.7586 119.296 98.4826C119.481 98.6934 119.765 99.0235 120.122 99.4415C120.122 99.4415 122.691 102.462 124.878 105.476C127.542 109.142 133.397 117.196 135.221 126.553C135.627 128.639 135.676 129.97 135.403 130.054C135.014 130.174 134.412 127.884 132.561 125.65C131.189 123.992 129.631 122.977 128.459 122.359C129.288 123.753 130.118 125.148 130.951 126.546C131.696 127.8 131.91 129.078 131.395 129.742C130.674 130.673 128.228 130.409 126.439 129.366C123.538 127.677 123.961 124.881 120.542 121.657C119.513 120.684 118.533 120.051 117.906 119.683C118.61 121.024 119.537 122.939 120.451 125.33C121.452 127.947 121.326 128.225 121.203 128.333C120.454 129.011 116.174 126.437 112.964 122.696C109.104 118.193 109.412 115.054 104.953 110.628C103.591 109.279 102.317 108.335 101.47 107.759C102.625 109.374 104.312 111.952 105.891 115.38C107.189 118.183 107.347 119.251 108.306 121.116Z" fill="white"/>
<path d="M71.0542 56.7808C72.0616 56.7808 72.8783 55.9612 72.8783 54.9502C72.8783 53.9392 72.0616 53.1196 71.0542 53.1196C70.0467 53.1196 69.23 53.9392 69.23 54.9502C69.23 55.9612 70.0467 56.7808 71.0542 56.7808Z" fill="white"/>
<path d="M71.4304 55.9001C71.7759 55.9001 72.056 55.619 72.056 55.2723C72.056 54.9256 71.7759 54.6445 71.4304 54.6445C71.0849 54.6445 70.8049 54.9256 70.8049 55.2723C70.8049 55.619 71.0849 55.9001 71.4304 55.9001Z" fill="#F77576"/>
<defs>
<filter id="filter0_b_173_669" x="-40" y="-40" width="244" height="237" filterUnits="userSpaceOnUse" color-interpolation-filters="sRGB">
<feFlood flood-opacity="0" result="BackgroundImageFix"/>
<feGaussianBlur in="BackgroundImage" stdDeviation="20"/>
<feComposite in2="SourceAlpha" operator="in" result="effect1_backgroundBlur_173_669"/>
<feBlend mode="normal" in="SourceGraphic" in2="effect1_backgroundBlur_173_669" result="shape"/>
</filter>
<linearGradient id="paint0_linear_173_669" x1="0" y1="0" x2="107.626" y2="179.716" gradientUnits="userSpaceOnUse">
<stop stop-color="#E1E8EB" stop-opacity="0.4"/>
<stop offset="1" stop-color="#E1E8EB" stop-opacity="0.1"/>
</linearGradient>
<linearGradient id="paint1_linear_173_669" x1="18.7744" y1="10.8203" x2="95.842" y2="168.592" gradientUnits="userSpaceOnUse">
<stop stop-color="#E1E8EB" stop-opacity="0.6"/>
<stop offset="0.381568" stop-color="#E1E8EB" stop-opacity="0.1"/>
<stop offset="0.617815" stop-color="#E1E8EB" stop-opacity="0.1"/>
<stop offset="1" stop-color="#E1E8EB" stop-opacity="0.6"/>
</linearGradient>
</defs>
</svg>
