<svg width="100" height="100" viewBox="0 0 100 100" fill="none" xmlns="http://www.w3.org/2000/svg">
<path d="M50 0C22.4115 0 0 22.4115 0 50C0 77.5885 22.4115 100 50 100C77.5885 100 100 77.5885 100 50C100 22.4115 77.5885 0 50 0ZM50 4.34783C75.2388 4.34783 95.6522 24.7612 95.6522 50C95.6522 75.2387 75.2388 95.6522 50 95.6522C24.7612 95.6522 4.34783 75.2387 4.34783 50C4.34783 24.7612 24.7612 4.34783 50 4.34783ZM50 13.0435C41.7033 13.0435 34.7826 19.4343 34.7826 27.4244C34.7826 35.6721 41.957 43.9022 48.6031 49.4862C48.9946 49.8145 49.4891 49.9944 50 49.9944C50.5109 49.9944 51.0054 49.8145 51.3969 49.4862C58.041 43.9042 65.2174 35.6725 65.2174 27.4244C65.2174 19.4356 58.2946 13.046 50 13.0435ZM50 17.3913C56.0881 17.3931 60.8696 21.9567 60.8696 27.4244C60.8696 32.3961 55.5728 39.4846 50 44.6204C44.4257 39.4832 39.1304 32.3966 39.1304 27.4244C39.1304 21.9537 43.9098 17.3913 50 17.3913ZM29.4115 49.9023C26.0154 49.9822 22.7997 50.6537 20.096 52.1994C13.1107 56.1954 11.0052 65.4127 15.2004 72.6095C19.3983 79.8066 28.4674 82.5944 35.4535 78.6005V78.6048C42.6638 74.4854 46.2609 64.131 47.7921 55.5664C47.8825 55.0608 47.7909 54.5395 47.5337 54.095C47.2764 53.6504 46.8701 53.3113 46.3867 53.1377C42.2627 51.6544 37.4954 50.3878 32.855 50.0085C31.6949 49.9137 30.5436 49.8757 29.4115 49.9023ZM70.5927 49.9066C69.4611 49.8802 68.3093 49.918 67.1493 50.0127C62.5092 50.3917 57.7384 51.6544 53.6133 53.1377C53.1299 53.3113 52.7236 53.6504 52.4663 54.095C52.2091 54.5395 52.1175 55.0608 52.2079 55.5664C53.7391 64.1284 57.3347 74.4833 64.5465 78.6048C71.5326 82.5961 80.6017 79.8066 84.7996 72.6095C88.9973 65.4127 86.892 56.1929 79.904 52.1994C77.2005 50.6548 73.9877 49.9856 70.5927 49.9066ZM29.5177 54.4497C30.487 54.4375 31.4939 54.4734 32.5238 54.5516C35.9629 54.813 39.5364 55.7534 42.8711 56.785C41.1908 64.1893 37.6679 72.3284 33.2965 74.8259C28.4869 77.5755 22.0385 75.6999 18.958 70.4186C15.8794 65.1372 17.4467 58.7216 22.2571 55.9698V55.974C24.0453 54.9518 26.6097 54.4863 29.5177 54.4497ZM70.4823 54.454C73.3914 54.4895 75.9588 54.9523 77.7471 55.974C82.5591 58.724 84.1225 65.1372 81.0419 70.4186C77.9615 75.6999 71.513 77.578 66.7035 74.8302C62.3297 72.3306 58.8089 64.192 57.1289 56.7892C60.4642 55.7577 64.0372 54.8171 67.4762 54.5559C68.506 54.4777 69.5126 54.4421 70.4823 54.454Z" fill="url(#paint0_linear_252_511)"/>
<defs>
<linearGradient id="paint0_linear_252_511" x1="0" y1="0" x2="100" y2="100" gradientUnits="userSpaceOnUse">
<stop stop-color="#F473B9"/>
<stop offset="1" stop-color="#BC40F6"/>
</linearGradient>
</defs>
</svg>
