<svg width="67" height="100" viewBox="0 0 67 100" fill="none" xmlns="http://www.w3.org/2000/svg">
<path d="M58.1259 34.2593C61.4595 32.1412 64.03 28.9634 65.4474 25.2079C66.8648 21.4525 67.0518 17.3244 65.9799 13.4498C64.9081 9.57528 62.636 6.16576 59.5082 3.7385C56.3805 1.31124 52.5678 -0.00129991 48.6486 9.66047e-07H18.018C14.0988 -0.00129991 10.2861 1.31124 7.15839 3.7385C4.03064 6.16576 1.75851 9.57528 0.686683 13.4498C-0.385144 17.3244 -0.198172 21.4525 1.21923 25.2079C2.63663 28.9634 5.20712 32.1412 8.54074 34.2593C5.92962 35.9172 3.77427 38.2337 2.27944 40.9887C0.784617 43.7437 -4.42306e-05 46.8458 1.86998e-09 50.0002C4.42343e-05 53.1547 0.784793 56.2568 2.2797 59.0117C3.7746 61.7667 5.93002 64.0831 8.54118 65.7409C5.872 67.4387 3.68079 69.8239 2.18467 72.6601C0.688552 75.4963 -0.0605441 78.685 0.0116073 81.9104C0.0837587 85.1358 0.974655 88.2858 2.59602 91.0483C4.21738 93.8109 6.51293 96.09 9.25521 97.66C11.9975 99.2299 15.0913 100.036 18.2301 99.9988C21.3689 99.9614 24.4437 99.0817 27.1498 97.4469C29.856 95.8121 32.0996 93.4789 33.6582 90.6785C35.2169 87.8782 36.0366 84.7078 36.036 81.4815V63.2082C37.8436 65.0335 40.0057 66.4461 42.3809 67.3538C44.7561 68.2615 47.2909 68.6438 49.8197 68.4757C52.3485 68.3075 54.8143 67.5928 57.0559 66.3783C59.2975 65.1637 61.2645 63.4766 62.8283 61.4272C64.3922 59.3778 65.5176 57.0123 66.131 54.4853C66.7444 51.9583 66.8321 49.3267 66.3883 46.7624C65.9444 44.1982 64.9791 41.7592 63.5553 39.6046C62.1315 37.4501 60.2814 35.6287 58.1259 34.2593ZM61.2612 18.5187C61.2574 21.9539 59.9286 25.2475 57.566 27.6774C55.2034 30.1073 51.9998 31.4753 48.6574 31.4815L48.6486 31.4813L48.6312 31.4818L36.036 31.4813V5.55561H48.6486C51.9925 5.55946 55.1984 6.92645 57.5629 9.35666C59.9274 11.7869 61.2575 15.0819 61.2612 18.5187ZM5.4054 18.5187C5.40915 15.0819 6.73918 11.7869 9.10369 9.35666C11.4682 6.92645 14.6741 5.55946 18.018 5.55561H30.6306V31.4813H18.018L18.0094 31.4815C14.667 31.4754 11.4634 30.1074 9.10072 27.6775C6.73807 25.2476 5.40919 21.954 5.4054 18.5187ZM5.4054 50C5.40918 46.5647 6.73805 43.2711 9.10071 40.8412C11.4634 38.4113 14.667 37.0433 18.0094 37.0371L18.018 37.0374L30.6306 37.037V62.9626L18.018 62.9631C14.6741 62.9592 11.4682 61.5922 9.10369 59.162C6.73918 56.7318 5.40915 53.4368 5.4054 50ZM18.018 94.4444C16.3608 94.4458 14.7196 94.1116 13.1882 93.4608C11.6567 92.81 10.2651 91.8554 9.09281 90.6515C7.92051 89.4477 6.99054 88.0182 6.35604 86.4447C5.72154 84.8713 5.39496 83.1848 5.39496 81.4815C5.39496 79.7783 5.72154 78.0918 6.35604 76.5183C6.99054 74.9449 7.92051 73.5154 9.09281 72.3115C10.2651 71.1077 11.6567 70.1531 13.1882 69.5023C14.7196 68.8515 16.3608 68.5173 18.018 68.5187L30.6306 68.5183V81.4815C30.6268 84.9184 29.2968 88.2133 26.9322 90.6434C24.5677 93.0736 21.3619 94.4405 18.018 94.4444ZM48.6486 62.9631C45.3057 62.9621 42.1 61.5972 39.7357 59.1682C37.3715 56.7392 36.0422 53.4449 36.0399 50.0091C36.0376 46.5734 37.3625 43.2772 39.7234 40.8449C42.0844 38.4126 45.2884 37.0431 48.6312 37.0374H48.6486L48.6572 37.0372C52.0001 37.0417 55.2045 38.41 57.5663 40.8415C59.9281 43.273 61.2542 46.5687 61.253 50.0045C61.2519 53.4403 59.9237 56.7351 57.5603 59.1649C55.1968 61.5948 51.9915 62.9609 48.6486 62.9631Z" fill="url(#paint0_linear_313_504)"/>
<defs>
<linearGradient id="paint0_linear_313_504" x1="0" y1="0" x2="67" y2="100" gradientUnits="userSpaceOnUse">
<stop stop-color="#F473B9"/>
<stop offset="1" stop-color="#FF4848"/>
</linearGradient>
</defs>
</svg>
