<svg width="103" height="100" viewBox="0 0 103 100" fill="none" xmlns="http://www.w3.org/2000/svg">
<path d="M0 0V100H102.564V0H0ZM4.2735 4.2735H98.2906V95.7265H4.2735V4.2735Z" fill="url(#paint0_linear_252_505)"/>
<path d="M35.5983 56.6239L32.2222 69.4444C32.1368 69.7863 32.0085 69.8718 31.5812 69.8718H25.2991C24.8718 69.8718 24.7863 69.7436 24.8718 69.2308L37.0085 26.7521C37.2222 25.9829 37.3504 25.2991 37.4359 23.2051C37.4359 22.906 37.5641 22.7778 37.7778 22.7778H46.7521C47.0513 22.7778 47.1795 22.8632 47.265 23.2051L60.8547 69.3162C60.9402 69.6581 60.8547 69.8718 60.5128 69.8718H53.4188C53.0769 69.8718 52.8632 69.7863 52.7778 69.4872L49.2308 56.6239H35.5983ZM47.4786 49.7008C46.282 44.9572 43.4615 34.6154 42.3932 29.6154H42.3077C41.4103 34.6154 39.1453 43.0769 37.3504 49.7008H47.4786ZM66.7094 25.9402C66.7094 23.2051 68.6325 21.5812 71.0684 21.5812C73.6752 21.5812 75.4273 23.3333 75.4273 25.9402C75.4273 28.7607 73.5897 30.2991 70.9829 30.2991C68.5043 30.2991 66.7094 28.7607 66.7094 25.9402ZM67.2222 35.641C67.2222 35.2991 67.3504 35.1282 67.735 35.1282H74.4444C74.7863 35.1282 74.9573 35.2564 74.9573 35.641V69.359C74.9573 69.7008 74.8718 69.8718 74.4444 69.8718H67.8205C67.3932 69.8718 67.2649 69.6581 67.2649 69.3162V35.641H67.2222Z" fill="url(#paint1_linear_252_505)"/>
<defs>
<linearGradient id="paint0_linear_252_505" x1="0.499997" y1="-2" x2="99.5" y2="100.5" gradientUnits="userSpaceOnUse">
<stop stop-color="#FFC107"/>
<stop offset="1" stop-color="#FF4848"/>
</linearGradient>
<linearGradient id="paint1_linear_252_505" x1="25.0886" y1="20.6154" x2="72.8507" y2="71.1208" gradientUnits="userSpaceOnUse">
<stop stop-color="#FFC107"/>
<stop offset="1" stop-color="#FF4848"/>
</linearGradient>
</defs>
</svg>
