<svg width="164" height="157" viewBox="0 0 164 157" fill="none" xmlns="http://www.w3.org/2000/svg">
<rect width="164" height="157" rx="5" fill="#4C40F6"/>
<g filter="url(#filter0_b_167_651)">
<rect width="164" height="157" rx="5" fill="url(#paint0_linear_167_651)"/>
<rect x="0.5" y="0.5" width="163" height="156" rx="4.5" stroke="url(#paint1_linear_167_651)"/>
</g>
<path d="M73.0894 108.022H60.6673L58.676 113.899H50.1891L62.2319 80.6262H71.6196L83.6623 113.899H75.0807L73.0894 108.022ZM71.0032 101.766L66.8783 89.5843L62.8008 101.766H71.0032Z" fill="white"/>
<path d="M107.624 96.8362C109.552 97.247 111.101 98.2107 112.27 99.7274C113.44 101.213 114.025 102.919 114.025 104.846C114.025 107.627 113.045 109.839 111.085 111.482C109.157 113.094 106.454 113.899 102.977 113.899H87.4736V80.6262H102.456C105.838 80.6262 108.477 81.4003 110.374 82.9487C112.302 84.497 113.266 86.5983 113.266 89.2526C113.266 91.2117 112.744 92.839 111.701 94.1345C110.69 95.4301 109.331 96.3306 107.624 96.8362ZM95.5811 94.0871H100.891C102.219 94.0871 103.23 93.8027 103.926 93.234C104.653 92.6336 105.016 91.7646 105.016 90.6271C105.016 89.4895 104.653 88.6206 103.926 88.0202C103.23 87.4198 102.219 87.1197 100.891 87.1197H95.5811V94.0871ZM101.555 107.358C102.914 107.358 103.957 107.058 104.684 106.458C105.443 105.826 105.822 104.925 105.822 103.756C105.822 102.587 105.427 101.671 104.637 101.007C103.878 100.344 102.819 100.012 101.46 100.012H95.5811V107.358H101.555Z" fill="white"/>
<path d="M127 33.5V123.5L122.872 119.373V37.6268H41.1281L37 33.5H127Z" fill="white"/>
<path d="M127 123.5H37V33.5L41.1281 37.6268V119.373H122.872L127 123.5Z" fill="white"/>
<path d="M66.642 71.3972H77.2624V77.6537H58.5345V44.3805H66.642V71.3972Z" fill="white"/>
<path d="M107.624 60.5905C109.552 61.0013 111.101 61.9651 112.27 63.4818C113.44 64.9669 114.025 66.6732 114.025 68.6007C114.025 71.3814 113.045 73.5933 111.085 75.2364C109.157 76.8479 106.454 77.6537 102.977 77.6537H87.4736V44.3805H102.456C105.838 44.3805 108.477 45.1547 110.374 46.703C112.302 48.2513 113.266 50.3526 113.266 53.0069C113.266 54.966 112.744 56.5933 111.701 57.8889C110.69 59.1844 109.331 60.0849 107.624 60.5905ZM95.5811 57.8415H100.891C102.219 57.8415 103.23 57.5571 103.926 56.9883C104.653 56.3879 105.016 55.519 105.016 54.3814C105.016 53.2439 104.653 52.3749 103.926 51.7745C103.23 51.1742 102.219 50.874 100.891 50.874H95.5811V57.8415ZM101.555 71.1128C102.914 71.1128 103.957 70.8126 104.684 70.2123C105.443 69.5803 105.822 68.6797 105.822 67.5106C105.822 66.3414 105.427 65.4251 104.637 64.7615C103.878 64.098 102.819 63.7662 101.46 63.7662H95.5811V71.1128H101.555Z" fill="white"/>
<defs>
<filter id="filter0_b_167_651" x="-40" y="-40" width="244" height="237" filterUnits="userSpaceOnUse" color-interpolation-filters="sRGB">
<feFlood flood-opacity="0" result="BackgroundImageFix"/>
<feGaussianBlur in="BackgroundImage" stdDeviation="20"/>
<feComposite in2="SourceAlpha" operator="in" result="effect1_backgroundBlur_167_651"/>
<feBlend mode="normal" in="SourceGraphic" in2="effect1_backgroundBlur_167_651" result="shape"/>
</filter>
<linearGradient id="paint0_linear_167_651" x1="0" y1="0" x2="107.626" y2="179.716" gradientUnits="userSpaceOnUse">
<stop stop-color="#E1E8EB" stop-opacity="0.4"/>
<stop offset="1" stop-color="#E1E8EB" stop-opacity="0.1"/>
</linearGradient>
<linearGradient id="paint1_linear_167_651" x1="18.7744" y1="10.8203" x2="95.842" y2="168.592" gradientUnits="userSpaceOnUse">
<stop stop-color="#E1E8EB" stop-opacity="0.6"/>
<stop offset="0.381568" stop-color="#E1E8EB" stop-opacity="0.1"/>
<stop offset="0.617815" stop-color="#E1E8EB" stop-opacity="0.1"/>
<stop offset="1" stop-color="#E1E8EB" stop-opacity="0.6"/>
</linearGradient>
</defs>
</svg>
