<svg width="25" height="25" viewBox="0 0 25 25" fill="none" xmlns="http://www.w3.org/2000/svg">
<path d="M10.0248 20.7006H6.57424L6.0211 22.3332H3.66364L7.00886 13.0906H9.61655L12.9618 22.3332H10.578L10.0248 20.7006ZM9.44533 18.9627L8.29953 15.579L7.1669 18.9627H9.44533Z" fill="white"/>
<path d="M19.6177 17.5934C20.1533 17.7075 20.5836 17.9752 20.9084 18.3965C21.2333 18.8091 21.3957 19.283 21.3957 19.8184C21.3957 20.5909 21.1235 21.2053 20.5792 21.6617C20.0436 22.1093 19.2929 22.3332 18.3271 22.3332H14.0204V13.0906H18.1822C19.1217 13.0906 19.8548 13.3056 20.3816 13.7357C20.9172 14.1658 21.185 14.7495 21.185 15.4868C21.185 16.031 21.0401 16.4831 20.7504 16.8429C20.4694 17.2028 20.0919 17.453 19.6177 17.5934ZM16.2725 16.8298H17.7476C18.1163 16.8298 18.3973 16.7508 18.5905 16.5928C18.7924 16.426 18.8934 16.1846 18.8934 15.8686C18.8934 15.5527 18.7924 15.3113 18.5905 15.1445C18.3973 14.9777 18.1163 14.8944 17.7476 14.8944H16.2725V16.8298ZM17.932 20.5162C18.3095 20.5162 18.5992 20.4329 18.8012 20.2661C19.0119 20.0905 19.1173 19.8404 19.1173 19.5156C19.1173 19.1909 19.0075 18.9363 18.788 18.752C18.5773 18.5677 18.2832 18.4755 17.9056 18.4755H16.2725V20.5162H17.932Z" fill="white"/>
<path d="M25 0V25L23.8533 23.8537V1.14635H1.1467L0 0H25Z" fill="white"/>
<path d="M25 25H0V0L1.1467 1.14635V23.8537H23.8533L25 25Z" fill="white"/>
<path d="M8.23389 10.527H11.184V12.2649H5.9818V3.02236H8.23389V10.527Z" fill="white"/>
<path d="M19.6177 7.52515C20.1533 7.63925 20.5836 7.90696 20.9084 8.32827C21.2333 8.74081 21.3957 9.21479 21.3957 9.75021C21.3957 10.5226 21.1235 11.137 20.5792 11.5935C20.0436 12.0411 19.2929 12.2649 18.3271 12.2649H14.0204V3.02236H18.1822C19.1217 3.02236 19.8548 3.23741 20.3816 3.6675C20.9172 4.09759 21.185 4.68128 21.185 5.41858C21.185 5.96278 21.0401 6.41481 20.7504 6.77468C20.4694 7.13455 20.0919 7.38471 19.6177 7.52515ZM16.2725 6.76152H17.7476C18.1163 6.76152 18.3973 6.68252 18.5905 6.52453C18.7924 6.35776 18.8934 6.11638 18.8934 5.80039C18.8934 5.48441 18.7924 5.24303 18.5905 5.07626C18.3973 4.90949 18.1163 4.82611 17.7476 4.82611H16.2725V6.76152ZM17.932 10.448C18.3095 10.448 18.5992 10.3646 18.8012 10.1979C19.0119 10.0223 19.1173 9.77215 19.1173 9.44739C19.1173 9.12262 19.0075 8.86808 18.788 8.68376C18.5773 8.49943 18.2832 8.40727 17.9056 8.40727H16.2725V10.448H17.932Z" fill="white"/>
</svg>
