<svg width="103" height="100" viewBox="0 0 103 100" fill="none" xmlns="http://www.w3.org/2000/svg">
<path d="M0 0V100H102.576V0H0ZM4.26259 4.26259H98.2904V95.7146H4.26259V4.26259ZM24.8005 23.4101C24.8005 23.1137 25.3932 22.9086 25.7579 22.9086C28.5161 22.7718 32.5507 22.6806 36.7677 22.6806C48.6209 22.6806 53.2254 29.1771 53.2254 37.4972C53.2254 48.3702 45.3385 53.0203 35.6964 53.0203C34.0552 53.0203 33.5081 52.9291 32.3684 52.9291V69.364C32.3684 69.7059 32.2316 69.8655 31.8897 69.8655H25.2792C24.9373 69.8655 24.8005 69.7287 24.8005 69.3868V23.4101ZM32.3684 46.1135C33.3485 46.1819 34.1463 46.1819 35.8331 46.1819C40.8252 46.1819 45.5437 44.4039 45.5437 37.6567C45.5437 32.2316 42.17 29.4734 36.4714 29.4734C34.7846 29.4734 33.1662 29.5418 32.3912 29.6102V46.1135H32.3684ZM69.1589 41.0303C65.7625 41.0303 64.6455 42.7399 64.6455 44.1304C64.6455 45.6804 65.4206 46.729 69.9339 49.0768C76.6355 52.3364 78.7554 55.4137 78.7554 60.0182C78.7554 66.8566 73.5354 70.5266 66.4919 70.5266C62.7536 70.5266 59.5623 69.7515 57.7388 68.6802C57.4652 68.5434 57.3969 68.3383 57.3969 67.9736V61.705C57.3969 61.2947 57.602 61.1352 57.8755 61.3631C60.5425 63.1411 63.6426 63.8933 66.4691 63.8933C69.8655 63.8933 71.256 62.4801 71.256 60.5653C71.256 59.0153 70.2758 57.6704 65.9904 55.4137C59.9043 52.5188 57.3741 49.5555 57.3741 44.6091C57.3741 39.0928 61.6822 34.5338 69.1361 34.5338C72.806 34.5338 75.4046 35.1037 76.8179 35.7192C77.1598 35.9471 77.2282 36.289 77.2282 36.5626V42.4208C77.2282 42.7627 77.0002 42.9907 76.5899 42.8311C74.698 41.7369 71.8942 41.0075 69.1589 41.0303Z" fill="url(#paint0_linear_245_647)"/>
<defs>
<linearGradient id="paint0_linear_245_647" x1="-12" y1="-10" x2="103.333" y2="98.3333" gradientUnits="userSpaceOnUse">
<stop stop-color="#32CAB2"/>
<stop offset="1" stop-color="#4C40F6" stop-opacity="0.6"/>
</linearGradient>
</defs>
</svg>
