<svg width="100" height="100" viewBox="0 0 100 100" fill="none" xmlns="http://www.w3.org/2000/svg">
<path d="M98.1665 37.6106C96.4478 30.7135 93.189 25.5128 86.2472 25.5128H77.2966V36.0928C77.2966 44.3068 70.3326 51.2262 62.3864 51.2262H38.548C32.0303 51.2262 26.6287 56.8064 26.6287 63.3463V86.0688C26.6287 92.5418 32.2535 96.3363 38.548 98.1889C46.0923 100.399 53.3466 100.8 62.3864 98.1889C68.3907 96.4479 74.3057 92.9435 74.3057 86.0688V76.9843H50.4895V73.9487H86.2472C93.189 73.9487 95.7558 69.1051 98.1665 61.8509C100.666 54.3734 100.555 47.1862 98.1665 37.6106ZM63.8819 83.0332C66.3595 83.0332 68.3684 85.0643 68.3684 87.5643C68.3684 90.0865 66.3595 92.1177 63.8819 92.1177C61.4267 92.1177 59.3955 90.0642 59.3955 87.5643C59.4178 85.042 61.4267 83.0332 63.8819 83.0332ZM37.4543 48.2353H61.2927C67.922 48.2353 73.212 42.7667 73.212 36.1151V13.3704C73.212 6.89738 67.7657 2.05379 61.2927 0.960077C53.3019 -0.356842 44.6192 -0.28988 37.4543 0.982398C27.3653 2.76805 25.535 6.4956 25.535 13.3927V22.4772H49.3958V25.5128H16.5844C9.6427 25.5128 3.57147 29.6868 1.67422 37.6106C-0.513208 46.6951 -0.602491 52.3646 1.67422 61.8509C3.37059 68.9042 7.41063 73.9487 14.3524 73.9487H22.544V63.0562C22.544 55.177 29.3518 48.2353 37.4543 48.2353ZM35.9588 16.406C33.4812 16.406 31.4723 14.3748 31.4723 11.8749C31.4946 9.35265 33.4812 7.32147 35.9588 7.32147C38.414 7.32147 40.4452 9.37497 40.4452 11.8749C40.4452 14.3748 38.4364 16.406 35.9588 16.406Z" fill="url(#paint0_linear_254_526)"/>
<defs>
<linearGradient id="paint0_linear_254_526" x1="0" y1="0" x2="100" y2="100" gradientUnits="userSpaceOnUse">
<stop stop-color="#BC40F6"/>
<stop offset="1" stop-color="#FFC107"/>
</linearGradient>
</defs>
</svg>
