<svg width="164" height="157" viewBox="0 0 164 157" fill="none" xmlns="http://www.w3.org/2000/svg">
<rect width="164" height="157" rx="5" fill="#FF4848"/>
<g filter="url(#filter0_b_172_656)">
<rect width="164" height="157" rx="5" fill="url(#paint0_linear_172_656)"/>
<rect x="0.5" y="0.5" width="163" height="156" rx="4.5" stroke="url(#paint1_linear_172_656)"/>
</g>
<g clip-path="url(#clip0_172_656)">
<path d="M126.258 74.831C125.537 73.1244 124.328 71.6683 122.784 70.6448C121.24 69.6213 119.428 69.0759 117.576 69.0767H117.427V62.7942C117.428 61.5565 117.184 60.3308 116.711 59.1872C116.238 58.0436 115.543 57.0045 114.668 56.1293C113.793 55.2541 112.754 54.5599 111.611 54.0864C110.467 53.613 109.241 53.3695 108.004 53.3699C107.695 53.3699 107.389 53.3847 107.086 53.4143C107.115 53.1105 107.13 52.8045 107.13 52.4963C107.131 51.2585 106.887 50.0328 106.414 48.8891C105.94 47.7455 105.246 46.7063 104.371 45.8311C103.496 44.9559 102.457 44.2617 101.313 43.7883C100.169 43.3149 98.9436 43.0715 97.7059 43.0721H91.4233V42.9243C91.4237 41.6865 91.1803 40.4607 90.7068 39.3171C90.2334 38.1734 89.5393 37.1342 88.6642 36.2588C87.7891 35.3834 86.7501 34.689 85.6066 34.2152C84.463 33.7414 83.2373 33.4976 81.9995 33.4976C80.7617 33.4976 79.5361 33.7414 78.3925 34.2152C77.249 34.689 76.21 35.3834 75.3349 36.2588C74.4598 37.1342 73.7657 38.1734 73.2922 39.3171C72.8188 40.4607 72.5754 41.6865 72.5757 42.9243V43.073H66.2932C65.0555 43.0724 63.8299 43.3158 62.6863 43.7891C61.5427 44.2625 60.5036 44.9566 59.6283 45.8317C58.7531 46.7068 58.0589 47.7459 57.5855 48.8894C57.112 50.033 56.8685 51.2586 56.869 52.4963C56.869 52.8066 56.8837 53.1145 56.9133 53.4198C55.6008 53.2836 54.2744 53.4246 53.0199 53.8337C51.7655 54.2429 50.6109 54.9109 49.6311 55.7947C48.6513 56.6785 47.8681 57.7582 47.3322 58.964C46.7963 60.1698 46.5197 61.4747 46.5203 62.7942V69.0767H46.4233C45.1856 69.0764 43.9599 69.32 42.8164 69.7935C41.6728 70.2669 40.6336 70.961 39.7583 71.8361C38.883 72.7113 38.1887 73.7502 37.715 74.8937C37.2413 76.0372 36.9974 77.2628 36.9974 78.5005C36.9974 79.7382 37.2413 80.9638 37.715 82.1073C38.1887 83.2508 38.883 84.2898 39.7583 85.1649C40.6336 86.04 41.6728 86.7341 42.8164 87.2076C43.9599 87.681 45.1856 87.9246 46.4233 87.9243H46.5203V94.2068C46.5199 95.4445 46.7633 96.6702 47.2368 97.8138C47.7103 98.9574 48.4044 99.9965 49.2797 100.872C50.1549 101.747 51.1939 102.441 52.3375 102.915C53.4811 103.388 54.7068 103.631 55.9445 103.631C56.2696 103.631 56.5945 103.615 56.9179 103.582C56.8853 103.906 56.869 104.23 56.869 104.555C56.8684 105.793 57.1118 107.019 57.5852 108.163C58.0586 109.306 58.7528 110.345 59.628 111.221C60.5032 112.096 61.5424 112.79 62.686 113.263C63.8297 113.737 65.0554 113.98 66.2932 113.98H72.5757V114.077C72.5754 115.314 72.8188 116.54 73.2922 117.684C73.7657 118.828 74.4598 119.867 75.3349 120.742C76.21 121.618 77.249 122.312 78.3925 122.786C79.5361 123.26 80.7617 123.503 81.9995 123.503C83.2373 123.503 84.463 123.26 85.6066 122.786C86.7501 122.312 87.7891 121.618 88.6642 120.742C89.5393 119.867 90.2334 118.828 90.7068 117.684C91.1803 116.54 91.4237 115.314 91.4233 114.077V113.98H97.7059C99.0252 113.98 100.33 113.703 101.535 113.166C102.741 112.63 103.82 111.847 104.704 110.867C105.587 109.888 106.256 108.734 106.665 107.479C107.074 106.225 107.216 104.899 107.08 103.587C107.386 103.616 107.694 103.631 108.004 103.631C109.242 103.632 110.467 103.388 111.611 102.915C112.755 102.441 113.794 101.747 114.669 100.872C115.544 99.9968 116.238 98.9576 116.712 97.814C117.185 96.6703 117.429 95.4446 117.428 94.2068V87.9243H117.576C119.131 87.924 120.662 87.5387 122.033 86.8029C123.403 86.0671 124.57 85.0035 125.43 83.7072C126.289 82.4108 126.815 80.9219 126.959 79.3731C127.104 77.8244 126.863 76.264 126.258 74.831V74.831ZM46.5203 83.7363H46.4233C45.0347 83.7363 43.703 83.1846 42.7211 82.2027C41.7392 81.2208 41.1876 79.8891 41.1876 78.5005C41.1876 77.1119 41.7392 75.7802 42.7211 74.7983C43.703 73.8164 45.0347 73.2647 46.4233 73.2647H46.5203V83.7363ZM91.4233 47.261H97.7059C99.0944 47.261 100.426 47.8126 101.408 48.7944C102.39 49.7762 102.941 51.1078 102.941 52.4963C102.941 53.8848 102.39 55.2164 101.408 56.1982C100.426 57.18 99.0944 57.7316 97.7059 57.7316H91.4233V47.261ZM98.6294 95.1765C98.3237 95.146 98.0159 95.1309 97.7059 95.1312H91.4233V87.9243H98.5795V94.2068C98.5794 94.5307 98.596 94.8543 98.6294 95.1765V95.1765ZM91.4233 61.9206H97.7059C98.0143 61.9206 98.32 61.9058 98.6229 61.8762C98.5943 62.1801 98.5798 62.4861 98.5795 62.7942V69.0767H91.4233V61.9206ZM76.7638 42.9243C76.7638 41.5357 77.3154 40.204 78.2973 39.2221C79.2792 38.2402 80.6109 37.6886 81.9995 37.6886C83.3881 37.6886 84.7199 38.2402 85.7018 39.2221C86.6837 40.204 87.2353 41.5357 87.2353 42.9243V43.0721L76.7638 43.073V42.9243ZM76.7638 47.261H87.2353V57.7316L76.7638 57.7325V47.261ZM76.7638 61.9206H87.2353V71.9922C87.0109 71.8124 86.7742 71.6486 86.527 71.5018C86.2501 71.3462 85.9638 71.2077 85.67 71.0872C84.5085 70.5977 83.2608 70.3456 82.0005 70.3456C80.7401 70.3456 79.4924 70.5977 78.331 71.0872C78.2442 71.1241 77.9939 71.2312 77.7519 71.355C77.4039 71.5351 77.0731 71.7469 76.7638 71.9876V61.9206ZM87.0875 78.5259C87.0875 79.7948 86.2195 80.8734 85.0614 81.5873C84.3466 82.7444 83.2689 83.6125 82 83.6125C80.6923 83.6125 79.5869 82.6899 78.8731 81.4783C78.8241 81.4432 78.7807 81.4109 78.7428 81.3813C78.1555 80.9261 76.9143 79.9665 76.9143 78.5259C76.9143 77.0853 78.1555 76.1258 78.7428 75.6705C78.8056 75.6215 78.8832 75.5643 78.9737 75.5015C79.0374 75.4091 79.0956 75.3315 79.1446 75.2678C79.5998 74.6805 80.5594 73.4393 82 73.4393C83.4407 73.4393 84.4002 74.6805 84.8555 75.2678C84.885 75.3066 84.9183 75.35 84.9533 75.399C86.165 76.1128 87.0875 77.2182 87.0875 78.5259V78.5259ZM66.2932 47.261H72.5757V57.7325H66.2932C65.1207 57.7345 63.9819 57.3408 63.061 56.6151C63.0601 56.6151 63.0591 56.6142 63.0582 56.6133C62.202 55.9406 61.5767 55.0177 61.2696 53.9731C60.9624 52.9284 60.9887 51.814 61.3446 50.7849C61.7006 49.7559 62.3686 48.8634 63.2555 48.2318C64.1425 47.6002 65.2043 47.2609 66.2932 47.261ZM65.3235 61.8716C65.6457 61.9042 65.9694 61.9205 66.2932 61.9206H72.5757V69.0767H65.3688V62.7942C65.3688 62.4839 65.3537 62.1764 65.3235 61.8716ZM50.7093 62.7942C50.709 61.8121 50.985 60.8497 51.5058 60.017C52.0266 59.1843 52.7711 58.515 53.6543 58.0854C54.5374 57.6558 55.5237 57.4833 56.5002 57.5876C57.4768 57.692 58.4043 58.0689 59.1768 58.6754C59.1776 58.6761 59.1785 58.6768 59.1795 58.6773C59.8029 59.1672 60.3069 59.7924 60.6534 60.5056C60.9999 61.2187 61.1799 62.0013 61.1798 62.7942V69.0767H50.7093L50.7093 62.7942ZM50.7093 73.2647H61.1798V83.7363H50.7093V73.2647ZM59.3485 98.1843C58.5882 98.8354 57.6571 99.2549 56.6657 99.393C55.6742 99.5311 54.6639 99.382 53.7546 98.9633C52.8453 98.5447 52.0751 97.8741 51.5354 97.031C50.9956 96.188 50.7089 95.2078 50.7093 94.2068V87.9243H61.1798V94.2068C61.1818 95.4555 60.7354 96.6634 59.922 97.6108C59.7464 97.8169 59.5546 98.0087 59.3485 98.1843V98.1843ZM72.5757 109.791H66.2932C65.2922 109.791 64.312 109.504 63.469 108.965C62.6259 108.425 61.9554 107.655 61.5367 106.745C61.1181 105.836 60.969 104.826 61.107 103.834C61.2451 102.843 61.6646 101.912 62.3157 101.151C62.4913 100.945 62.6831 100.754 62.8892 100.578C63.8366 99.7646 65.0445 99.3183 66.2932 99.3202H72.5757V109.791ZM72.5757 95.1312H66.2932C65.9678 95.1311 65.6426 95.1478 65.3189 95.1811C65.3523 94.8574 65.3689 94.5322 65.3688 94.2068V87.9243H72.5757V95.1312ZM74.0644 80.6666C74.3076 81.7753 74.7801 82.821 75.4515 83.7363H65.3688V73.2647H75.4737C75.3315 73.4411 75.1995 73.6255 75.0784 73.817C74.8801 74.1497 74.7076 74.497 74.5622 74.8559C73.7883 76.692 73.6141 78.7256 74.0644 80.6666V80.6666ZM87.2353 114.077C87.2353 115.465 86.6837 116.797 85.7018 117.779C84.7199 118.761 83.3881 119.312 81.9995 119.312C80.6109 119.312 79.2792 118.761 78.2973 117.779C77.3154 116.797 76.7638 115.465 76.7638 114.077V113.98H87.2353V114.077ZM87.2353 109.791H76.7638V99.3202H87.2353V109.791ZM87.2353 95.1312H76.7638V85.0892C76.9307 85.2174 77.1049 85.3358 77.2856 85.4438C79.3599 86.639 81.8105 87.0026 84.1425 86.4615C84.6667 86.3459 85.1783 86.1792 85.67 85.9637C86.2241 85.7091 86.7489 85.3951 87.2353 85.0273L87.2353 95.1312ZM88.5679 83.7363C88.7334 83.5252 88.8828 83.302 89.0149 83.0686C89.2282 82.6899 89.4277 82.2217 89.4387 82.1949C89.9282 81.0335 90.1803 79.7858 90.1803 78.5254C90.1803 77.2651 89.9282 76.0174 89.4387 74.8559C89.4 74.7636 89.2928 74.5143 89.17 74.2751C88.9852 73.918 88.7662 73.5796 88.5162 73.2647H98.5795V83.7362L88.5679 83.7363ZM97.7059 109.791H91.4233V99.3202H97.7059C98.4988 99.3201 99.2813 99.5001 99.9945 99.8466C100.708 100.193 101.333 100.697 101.823 101.32C101.824 101.321 101.825 101.322 101.825 101.323C102.431 102.096 102.808 103.023 102.912 104C103.017 104.976 102.844 105.963 102.415 106.846C101.985 107.729 101.316 108.473 100.483 108.994C99.6504 109.515 98.688 109.791 97.7059 109.791V109.791ZM113.239 94.2068C113.239 95.2955 112.899 96.357 112.268 97.2437C111.636 98.1304 110.744 98.7982 109.715 99.1541C108.686 99.51 107.572 99.5363 106.527 99.2294C105.483 98.9225 104.56 98.2977 103.887 97.4418C103.886 97.4408 103.886 97.4399 103.885 97.439C103.16 96.5178 102.767 95.3791 102.768 94.2068V87.9243H113.239V94.2068ZM113.239 83.7363H102.768L102.768 73.2647H113.239V83.7363ZM113.239 69.0767H102.768V62.7942C102.767 62.1065 102.903 61.4255 103.166 60.7901C103.429 60.1547 103.814 59.5773 104.3 59.091C104.787 58.6046 105.364 58.2188 105.999 57.9556C106.635 57.6924 107.316 57.5569 108.003 57.5569C108.691 57.5569 109.372 57.6924 110.007 57.9556C110.643 58.2188 111.22 58.6046 111.706 59.091C112.192 59.5773 112.578 60.1547 112.841 60.7901C113.104 61.4255 113.239 62.1065 113.239 62.7942V69.0767ZM117.576 83.7363H117.428L117.427 73.2647H117.576C118.964 73.2647 120.296 73.8164 121.278 74.7983C122.26 75.7802 122.812 77.1119 122.812 78.5005C122.812 79.8891 122.26 81.2208 121.278 82.2027C120.296 83.1846 118.964 83.7363 117.576 83.7363Z" fill="white"/>
</g>
<defs>
<filter id="filter0_b_172_656" x="-40" y="-40" width="244" height="237" filterUnits="userSpaceOnUse" color-interpolation-filters="sRGB">
<feFlood flood-opacity="0" result="BackgroundImageFix"/>
<feGaussianBlur in="BackgroundImage" stdDeviation="20"/>
<feComposite in2="SourceAlpha" operator="in" result="effect1_backgroundBlur_172_656"/>
<feBlend mode="normal" in="SourceGraphic" in2="effect1_backgroundBlur_172_656" result="shape"/>
</filter>
<linearGradient id="paint0_linear_172_656" x1="0" y1="0" x2="107.626" y2="179.716" gradientUnits="userSpaceOnUse">
<stop stop-color="#E1E8EB" stop-opacity="0.4"/>
<stop offset="1" stop-color="#E1E8EB" stop-opacity="0.1"/>
</linearGradient>
<linearGradient id="paint1_linear_172_656" x1="18.7744" y1="10.8203" x2="95.842" y2="168.592" gradientUnits="userSpaceOnUse">
<stop stop-color="#E1E8EB" stop-opacity="0.6"/>
<stop offset="0.381568" stop-color="#E1E8EB" stop-opacity="0.1"/>
<stop offset="0.617815" stop-color="#E1E8EB" stop-opacity="0.1"/>
<stop offset="1" stop-color="#E1E8EB" stop-opacity="0.6"/>
</linearGradient>
<clipPath id="clip0_172_656">
<rect width="90" height="90" fill="white" transform="translate(37 33.5)"/>
</clipPath>
</defs>
</svg>
